<?xml version="1.0" encoding="UTF-8"?>
<svg version="1.1" xmlns="http://www.w3.org/2000/svg" width="160" height="160">
<path d="M0 0 C9.41049206 7.88688858 15.46431013 16.90408101 19.875 28.3125 C20.2153125 29.13621094 20.555625 29.95992187 20.90625 30.80859375 C26.07882375 45.7755317 23.91321875 64.0883026 17.5546875 78.25390625 C9.50461983 94.06811022 -2.61183801 104.92822919 -19.125 111.3125 C-19.94871094 111.6528125 -20.77242188 111.993125 -21.62109375 112.34375 C-36.5880317 117.51632375 -54.9008026 115.35071875 -69.06640625 108.9921875 C-84.88061022 100.94211983 -95.74072919 88.82566199 -102.125 72.3125 C-102.4653125 71.48878906 -102.805625 70.66507812 -103.15625 69.81640625 C-108.32882375 54.8494683 -106.16321875 36.5366974 -99.8046875 22.37109375 C-91.75461983 6.55688978 -79.63816199 -4.30322919 -63.125 -10.6875 C-62.30128906 -11.0278125 -61.47757813 -11.368125 -60.62890625 -11.71875 C-39.97348449 -18.85726376 -16.88231997 -12.70069918 0 0 Z M-81.34375 11.3359375 C-92.06218516 22.42539542 -96.95357164 37.10680449 -97.125 52.3125 C-96.11306095 68.18495138 -89.39996673 81.5439448 -78 92.5625 C-64.74659624 103.74505942 -49.87791121 106.37514421 -33.125 105.3125 C-19.57495143 103.62449848 -7.22694582 96.35989442 1.875 86.3125 C11.76026826 73.32858034 16.11870357 58.80774674 14.41015625 42.5078125 C11.93962665 27.75676714 4.13352588 14.39175298 -7.796875 5.26953125 C-31.97189294 -10.74471086 -59.98647712 -8.14129375 -81.34375 11.3359375 Z " fill="#004774" transform="translate(121.125,29.6875)"/>
<path d="M0 0 C2.30126953 0.78930664 2.30126953 0.78930664 3.30126953 1.78930664 C3.72192383 4.44824219 3.72192383 4.44824219 3.30126953 7.78930664 C1.45587405 10.2074564 -0.26674526 12.15316701 -2.42919922 14.24633789 C-3.01663406 14.83476974 -3.60406891 15.4232016 -4.20930481 16.02946472 C-5.45227597 17.26776364 -6.70261772 18.49870224 -7.9597168 19.72265625 C-9.87974699 21.59548256 -11.77172475 23.49354902 -13.66162109 25.39672852 C-14.87423773 26.59819111 -16.08838147 27.79811477 -17.30419922 28.99633789 C-18.15137764 29.84625053 -18.15137764 29.84625053 -19.01567078 30.71333313 C-22.08259642 33.6720214 -24.33269896 35.65982196 -28.69873047 35.78930664 C-30.65576172 34.63696289 -30.65576172 34.63696289 -32.51123047 32.85180664 C-33.18798828 32.20469727 -33.86474609 31.55758789 -34.56201172 30.89086914 C-35.26712891 30.19735352 -35.97224609 29.50383789 -36.69873047 28.78930664 C-37.45541016 28.11641602 -38.21208984 27.44352539 -38.99169922 26.75024414 C-44.55845153 21.6465668 -44.55845153 21.6465668 -45.26123047 17.35180664 C-44.69873047 14.78930664 -44.69873047 14.78930664 -43.69873047 13.78930664 C-40.97216797 13.41430664 -40.97216797 13.41430664 -37.69873047 13.78930664 C-34.92529297 15.97680664 -34.92529297 15.97680664 -32.32373047 18.78930664 C-31.44974609 19.71743164 -30.57576172 20.64555664 -29.67529297 21.60180664 C-28.69689453 22.68461914 -28.69689453 22.68461914 -27.69873047 23.78930664 C-23.64677034 20.45589411 -19.88430088 17.02079002 -16.25341797 13.23071289 C-15.48642578 12.43342773 -14.71943359 11.63614258 -13.92919922 10.81469727 C-12.34146984 9.154559 -10.76350274 7.48503593 -9.19482422 5.80688477 C-8.43041016 5.01862305 -7.66599609 4.23036133 -6.87841797 3.41821289 C-6.19505371 2.69706299 -5.51168945 1.97591309 -4.80761719 1.23291016 C-2.69873047 -0.21069336 -2.69873047 -0.21069336 0 0 Z " fill="#004774" transform="translate(100.69873046875,62.210693359375)"/>
</svg>
