<?xml version="1.0" encoding="UTF-8"?>
<!DOCTYPE svg PUBLIC "-//W3C//DTD SVG 1.1//EN" "http://www.w3.org/Graphics/SVG/1.1/DTD/svg11.dtd">
<svg xmlns="http://www.w3.org/2000/svg" version="1.1" width="160px" height="160px" style="shape-rendering:geometricPrecision; text-rendering:geometricPrecision; image-rendering:optimizeQuality; fill-rule:evenodd; clip-rule:evenodd" xmlns:xlink="http://www.w3.org/1999/xlink">
<g><path style="opacity:0.997" fill="#8d8d8d" d="M 31.5,-0.5 C 31.8333,-0.5 32.1667,-0.5 32.5,-0.5C 33.1667,0.833333 33.8333,0.833333 34.5,-0.5C 41.1667,-0.5 47.8333,-0.5 54.5,-0.5C 54.8417,0.338246 55.5084,0.67158 56.5,0.5C 56.8417,1.33825 57.5084,1.67158 58.5,1.5C 60.035,0.645696 61.3684,0.645696 62.5,1.5C 61.1667,1.83333 61.1667,2.16667 62.5,2.5C 62.5,3.16667 62.8333,3.5 63.5,3.5C 65.2832,4.17457 66.9498,4.5079 68.5,4.5C 67.1667,4.83333 67.1667,5.16667 68.5,5.5C 68.5,6.16667 68.8333,6.5 69.5,6.5C 70.7072,7.18878 72.0406,7.35545 73.5,7C 73.1667,7.33333 72.8333,7.66667 72.5,8C 75.3694,11.0379 78.3694,13.8712 81.5,16.5C 81.3284,17.4916 81.6618,18.1583 82.5,18.5C 83.0076,20.2327 83.841,20.566 85,19.5C 87.2106,22.8249 88.3773,26.1582 88.5,29.5C 88.2627,30.791 88.596,31.791 89.5,32.5C 89.2322,34.099 89.5655,35.4324 90.5,36.5C 90.5,40.5 90.5,44.5 90.5,48.5C 89.5489,49.9187 89.2155,51.5853 89.5,53.5C 101.167,53.5 112.833,53.5 124.5,53.5C 126.784,53.9752 128.784,54.9752 130.5,56.5C 130.5,56.8333 130.5,57.1667 130.5,57.5C 130.5,58.1667 130.833,58.5 131.5,58.5C 131.918,59.2216 132.584,59.7216 133.5,60C 132.075,61.7141 132.408,63.0475 134.5,64C 133.978,64.5613 133.645,65.228 133.5,66C 133.892,67.0105 134.559,67.5105 135.5,67.5C 135.069,68.2935 134.735,69.1268 134.5,70C 134.892,71.0105 135.559,71.5105 136.5,71.5C 134.978,73.1563 135.311,74.323 137.5,75C 136.209,76.2917 136.209,77.4583 137.5,78.5C 137.5,79.1667 137.5,79.8333 137.5,80.5C 137.833,81.8333 138.167,81.8333 138.5,80.5C 139.167,80.5 139.5,80.1667 139.5,79.5C 139.833,79.5 140.167,79.5 140.5,79.5C 145.565,79.781 150.565,79.4476 155.5,78.5C 155.401,80.1495 156.401,81.4829 158.5,82.5C 158.5,83.1667 158.833,83.5 159.5,83.5C 159.5,87.1667 159.5,90.8333 159.5,94.5C 158.833,94.5 158.5,94.8333 158.5,95.5C 157.833,95.5 157.5,95.8333 157.5,96.5C 156.833,96.5 156.5,96.8333 156.5,97.5C 155.167,97.8333 155.167,98.1667 156.5,98.5C 154.396,98.7073 152.063,98.874 149.5,99C 150.066,99.9947 150.733,100.828 151.5,101.5C 152.794,114.797 152.794,127.797 151.5,140.5C 151.167,139.167 150.833,139.167 150.5,140.5C 149.833,140.5 149.5,140.833 149.5,141.5C 148.833,141.5 148.5,141.833 148.5,142.5C 147.833,142.5 147.5,142.833 147.5,143.5C 146.518,146.962 146.185,150.629 146.5,154.5C 145.662,154.842 145.328,155.508 145.5,156.5C 144.833,156.5 144.5,156.833 144.5,157.5C 143.833,157.5 143.5,157.833 143.5,158.5C 142.833,158.5 142.5,158.833 142.5,159.5C 137.167,159.5 131.833,159.5 126.5,159.5C 126.167,158.167 125.833,158.167 125.5,159.5C 124.833,159.5 124.167,159.5 123.5,159.5C 121.984,154.921 121.317,149.921 121.5,144.5C 105.833,144.5 90.1667,144.5 74.5,144.5C 74.6833,148.749 74.6833,152.749 74.5,156.5C 74.1667,155.167 73.8333,155.167 73.5,156.5C 72.8333,156.5 72.5,156.833 72.5,157.5C 71.8333,157.5 71.5,157.833 71.5,158.5C 70.8333,158.5 70.5,158.833 70.5,159.5C 65.1667,159.5 59.8333,159.5 54.5,159.5C 54.5,158.833 54.1667,158.5 53.5,158.5C 53.5,157.833 53.1667,157.5 52.5,157.5C 51.8333,157.5 51.5,157.167 51.5,156.5C 50.8902,155.609 50.5569,154.609 50.5,153.5C 50.815,149.629 50.4816,145.962 49.5,142.5C 47.9826,142.489 46.8159,141.823 46,140.5C 44.8932,141.712 44.3932,141.379 44.5,139.5C 45.1667,139.5 45.5,139.167 45.5,138.5C 45.5,126.5 45.5,114.5 45.5,102.5C 45.8925,100.716 46.5592,99.0495 47.5,97.5C 48.1667,97.5 48.5,97.1667 48.5,96.5C 49.1667,96.5 49.5,96.1667 49.5,95.5C 51.0495,94.5592 52.7162,93.8925 54.5,93.5C 55.5,93.1667 56.1667,92.5 56.5,91.5C 56.5299,90.5028 56.0299,89.8361 55,89.5C 49.2879,90.1232 43.6212,90.7899 38,91.5C 37.2613,90.4258 36.2613,89.7591 35,89.5C 33.5349,90.3295 32.0349,90.4962 30.5,90C 32.9316,88.9125 32.5983,88.4125 29.5,88.5C 28.8333,87.1667 28.1667,87.1667 27.5,88.5C 26.5084,88.6716 25.8417,88.3382 25.5,87.5C 26.8333,87.1667 26.8333,86.8333 25.5,86.5C 25.5,85.8333 25.1667,85.5 24.5,85.5C 23.8333,85.5 23.5,85.8333 23.5,86.5C 18.2944,82.843 13.1277,78.1763 8,72.5C 6.33353,73.3402 6.16686,72.8402 7.5,71C 6.74714,69.513 5.9138,69.3463 5,70.5C 3.5,67.5 2,64.5 0.5,61.5C 2.09162,59.7751 1.75828,58.7751 -0.5,58.5C -0.5,58.1667 -0.5,57.8333 -0.5,57.5C 0.833333,56.5 0.833333,55.5 -0.5,54.5C -0.5,48.1667 -0.5,41.8333 -0.5,35.5C 0.833333,34.5 0.833333,33.5 -0.5,32.5C -0.5,31.8333 -0.5,31.1667 -0.5,30.5C 0.924541,32.0311 1.59121,31.6977 1.5,29.5C 2.16667,29.5 2.5,29.1667 2.5,28.5C 3.99549,25.2901 4.99549,22.2901 5.5,19.5C 5.83333,20.8333 6.16667,20.8333 6.5,19.5C 7.16667,19.5 7.5,19.1667 7.5,18.5C 7.5,18.1667 7.5,17.8333 7.5,17.5C 8.5,17.1667 9.16667,16.5 9.5,15.5C 10.1667,15.5 10.5,15.1667 10.5,14.5C 11.1667,14.5 11.5,14.1667 11.5,13.5C 12.1667,13.5 12.5,13.1667 12.5,12.5C 13.1667,12.5 13.5,12.1667 13.5,11.5C 14.1667,11.5 14.5,11.1667 14.5,10.5C 15.1667,10.5 15.5,10.1667 15.5,9.5C 16.5,9.16667 17.1667,8.5 17.5,7.5C 17.8333,7.5 18.1667,7.5 18.5,7.5C 19.1667,7.5 19.5,7.16667 19.5,6.5C 20.1667,6.5 20.5,6.16667 20.5,5.5C 20.8333,5.5 21.1667,5.5 21.5,5.5C 22.1667,5.5 22.5,5.16667 22.5,4.5C 23.9217,4.29142 25.255,3.79142 26.5,3C 25.8333,2.66667 25.1667,2.33333 24.5,2C 26.5202,0.783411 28.5202,0.616744 30.5,1.5C 31.2975,1.04311 31.6309,0.376442 31.5,-0.5 Z M 40.5,5.5 C 44.0419,5.18723 47.3752,5.52056 50.5,6.5C 51.991,6.90135 53.6577,7.06802 55.5,7C 54.3044,7.65431 54.3044,8.15431 55.5,8.5C 56.1667,8.16667 56.8333,7.83333 57.5,7.5C 58.6956,7.84569 58.6956,8.34569 57.5,9C 58.0944,9.46434 58.7611,9.63101 59.5,9.5C 60.1667,10.8333 60.8333,10.8333 61.5,9.5C 62.4916,9.32842 63.1583,9.66175 63.5,10.5C 63.0618,10.4346 62.7284,10.6012 62.5,11C 63.2438,12.0386 64.2438,12.5386 65.5,12.5C 65.9731,13.9063 66.9731,14.573 68.5,14.5C 69.1667,15.8333 70.1667,16.8333 71.5,17.5C 71.8333,18.5 72.5,19.1667 73.5,19.5C 73.8333,20.5 74.5,21.1667 75.5,21.5C 75.427,23.0269 76.0937,24.0269 77.5,24.5C 77.369,25.2389 77.5357,25.9056 78,26.5C 78.69,27.7383 79.19,27.7383 79.5,26.5C 80.3382,26.8417 80.6716,27.5084 80.5,28.5C 81.6527,29.3132 81.6527,30.3132 80.5,31.5C 81.1667,31.8333 81.8333,32.1667 82.5,32.5C 82.1667,33.1667 81.8333,33.8333 81.5,34.5C 81.8457,35.6956 82.3457,35.6956 83,34.5C 83.1667,35.1667 83.3333,35.8333 83.5,36.5C 84.4216,41.0326 84.4216,45.6992 83.5,50.5C 83.6602,52.1992 83.4935,53.8659 83,55.5C 82.3457,54.3044 81.8457,54.3044 81.5,55.5C 82.1272,56.4168 82.4606,57.4168 82.5,58.5C 81.0755,56.9689 80.4088,57.3023 80.5,59.5C 79.1667,60.1667 79.1667,60.8333 80.5,61.5C 80.6716,62.4916 80.3382,63.1583 79.5,63.5C 79.5654,63.0618 79.3988,62.7284 79,62.5C 77.9614,63.2438 77.4614,64.2438 77.5,65.5C 76.0937,65.9731 75.427,66.9731 75.5,68.5C 74.5,68.8333 73.8333,69.5 73.5,70.5C 72.1667,71.1667 71.1667,72.1667 70.5,73.5C 69.5,73.8333 68.8333,74.5 68.5,75.5C 66.9731,75.427 65.9731,76.0937 65.5,77.5C 63.1815,77.9925 61.1815,78.9925 59.5,80.5C 58.7611,80.369 58.0944,80.5357 57.5,81C 58.6956,81.6543 58.6956,82.1543 57.5,82.5C 56.8333,82.1667 56.1667,81.8333 55.5,81.5C 54.3044,81.8457 54.3044,82.3457 55.5,83C 54.2161,83.6838 53.0495,83.5171 52,82.5C 51.5,83 51,83.5 50.5,84C 46.8333,84.6667 43.1667,84.6667 39.5,84C 39,83.5 38.5,83 38,82.5C 36.9887,83.3366 35.8221,83.67 34.5,83.5C 35.5042,81.3227 34.8375,80.9893 32.5,82.5C 31.2617,82.19 31.2617,81.69 32.5,81C 31.9056,80.5357 31.2389,80.369 30.5,80.5C 24.4897,77.4851 19.1564,73.4851 14.5,68.5C 14.573,66.9731 13.9063,65.9731 12.5,65.5C 12.6716,64.5084 12.3382,63.8417 11.5,63.5C 11.1667,62.1667 10.8333,62.1667 10.5,63.5C 10.1667,62.1667 9.83333,60.8333 9.5,59.5C 8.20456,58.9694 7.5379,57.6361 7.5,55.5C 8.10139,51.745 7.43473,48.0784 5.5,44.5C 5.31429,40.554 6.31429,37.054 8.5,34C 7.16686,32.1598 7.33353,31.6598 9,32.5C 9.46434,31.9056 9.63101,31.2389 9.5,30.5C 11.0075,28.8185 12.0075,26.8185 12.5,24.5C 13.9063,24.0269 14.573,23.0269 14.5,21.5C 17.1667,19.5 19.5,17.1667 21.5,14.5C 23.0269,14.573 24.0269,13.9063 24.5,12.5C 25.4916,12.6716 26.1583,12.3382 26.5,11.5C 27.4916,11.6716 28.1583,11.3382 28.5,10.5C 29.4916,10.6716 30.1583,10.3382 30.5,9.5C 31.8512,7.90868 33.8512,6.90868 36.5,6.5C 37.6885,7.0476 38.8552,7.38093 40,7.5C 40.4643,6.90558 40.631,6.23891 40.5,5.5 Z M 46.5,22.5 C 47.4902,28.6446 47.8235,34.9779 47.5,41.5C 46.453,42.0778 46.6197,42.7445 48,43.5C 48.3988,43.2716 48.5654,42.9382 48.5,42.5C 55.0221,42.1765 61.3554,42.5098 67.5,43.5C 68.8333,44.5 68.8333,45.5 67.5,46.5C 61.3554,47.4902 55.0221,47.8235 48.5,47.5C 47.9222,46.453 47.2555,46.6197 46.5,48C 46.7284,48.3988 47.0618,48.5654 47.5,48.5C 47.8235,55.0221 47.4902,61.3554 46.5,67.5C 45.7494,68.5735 44.7494,68.7401 43.5,68C 43.8333,67.6667 44.1667,67.3333 44.5,67C 42.5698,61.1263 41.9032,54.9596 42.5,48.5C 43.547,47.9222 43.3803,47.2555 42,46.5C 41.6012,46.7284 41.4346,47.0618 41.5,47.5C 34.9779,47.8235 28.6446,47.4902 22.5,46.5C 21.4265,45.7494 21.2599,44.7494 22,43.5C 22.3333,43.8333 22.6667,44.1667 23,44.5C 28.8737,42.5698 35.0404,41.9032 41.5,42.5C 41.56,43.0431 41.8933,43.3764 42.5,43.5C 43.7733,42.7435 43.7733,42.0768 42.5,41.5C 42.1765,34.9779 42.5098,28.6446 43.5,22.5C 44.5,21.1667 45.5,21.1667 46.5,22.5 Z M 122.5,58.5 C 120.969,59.9245 121.302,60.5912 123.5,60.5C 123.5,61.1667 123.833,61.5 124.5,61.5C 124.409,63.6977 125.075,64.0311 126.5,62.5C 126.5,63.1667 126.5,63.8333 126.5,64.5C 124.989,66.8375 125.323,67.5042 127.5,66.5C 127.461,67.5832 127.127,68.5832 126.5,69.5C 126.846,70.6956 127.346,70.6956 128,69.5C 128.49,70.7932 128.657,72.1266 128.5,73.5C 129.791,74.5417 129.791,75.7083 128.5,77C 130.592,77.9525 130.925,79.2859 129.5,81C 130.973,81.7096 131.64,82.8762 131.5,84.5C 132.705,85.6719 132.705,87.0052 131.5,88.5C 131.846,89.6956 132.346,89.6956 133,88.5C 133.617,89.4491 133.451,90.2825 132.5,91C 133.167,91.3333 133.833,91.6667 134.5,92C 124.167,92.6667 113.833,92.6667 103.5,92C 104.044,91.2828 104.711,90.7828 105.5,90.5C 110.636,86.9025 115.636,82.4025 120.5,77C 120.272,76.6012 119.938,76.4346 119.5,76.5C 120.833,75.1667 120.833,73.8333 119.5,72.5C 120.043,72.44 120.376,72.1067 120.5,71.5C 119.743,70.2267 119.077,70.2267 118.5,71.5C 117.5,71.5 116.5,71.5 115.5,71.5C 114.833,70.1667 114.167,70.1667 113.5,71.5C 106.148,77.8343 99.8149,84.5009 94.5,91.5C 89.6842,92.6497 84.6842,92.8163 79.5,92C 80.0442,91.2828 80.7109,90.7828 81.5,90.5C 86.9694,86.5667 92.3027,81.7334 97.5,76C 97.2716,75.6012 96.9382,75.4346 96.5,75.5C 96.5,74.8333 96.5,74.1667 96.5,73.5C 97.8333,73.1667 97.8333,72.8333 96.5,72.5C 96.2893,70.5759 95.6226,70.2426 94.5,71.5C 93.5,71.5 92.5,71.5 91.5,71.5C 91.1034,70.475 90.4368,70.3083 89.5,71C 82.8333,77.6667 76.1667,84.3333 69.5,91C 70.056,91.3826 70.3893,91.8826 70.5,92.5C 67.7531,92.8134 65.0865,92.48 62.5,91.5C 63.0253,90.8076 63.6919,90.3076 64.5,90C 63.4829,88.9505 63.3162,87.7839 64,86.5C 64.9772,87.7736 65.8106,87.7736 66.5,86.5C 67.4916,86.6716 68.1583,86.3382 68.5,85.5C 70.0269,85.573 71.0269,84.9063 71.5,83.5C 73.0269,83.573 74.0269,82.9063 74.5,81.5C 77.1667,79.5 79.5,77.1667 81.5,74.5C 82.9063,74.0269 83.573,73.0269 83.5,71.5C 84.9063,71.0269 85.573,70.0269 85.5,68.5C 86.3382,68.1583 86.6716,67.4916 86.5,66.5C 87.3382,66.1583 87.6716,65.4916 87.5,64.5C 88.8333,63.8333 88.8333,63.1667 87.5,62.5C 87.3284,61.5084 87.6618,60.8417 88.5,60.5C 99.4507,58.5223 110.784,57.8556 122.5,58.5 Z M 152.5,86.5 C 153.833,88.1667 153.833,89.8333 152.5,91.5C 149.038,92.4816 145.371,92.815 141.5,92.5C 141.205,90.2646 141.539,88.2646 142.5,86.5C 145.833,85.1667 149.167,85.1667 152.5,86.5 Z M 141.5,100.5 C 141.833,101.5 142.5,102.167 143.5,102.5C 143.369,103.239 143.536,103.906 144,104.5C 144.654,103.304 145.154,103.304 145.5,104.5C 138.866,105.497 132.2,105.83 125.5,105.5C 125.167,104.167 124.833,104.167 124.5,105.5C 122.5,105.5 121.5,106.5 121.5,108.5C 120.662,108.842 120.328,109.508 120.5,110.5C 119.662,110.842 119.328,111.508 119.5,112.5C 118.167,113.167 118.167,113.833 119.5,114.5C 118.167,116.167 118.167,117.833 119.5,119.5C 118.5,119.5 117.5,119.5 116.5,119.5C 116.5,119.167 116.5,118.833 116.5,118.5C 117.439,117.673 117.105,117.006 115.5,116.5C 114.652,115.375 113.652,115.375 112.5,116.5C 102.5,116.5 92.5,116.5 82.5,116.5C 82.1667,115.167 81.8333,115.167 81.5,116.5C 80.1667,116.5 79.5,117.167 79.5,118.5C 77.8235,117.817 77.1568,116.483 77.5,114.5C 78.8333,114.167 78.8333,113.833 77.5,113.5C 77.6716,112.508 77.3382,111.842 76.5,111.5C 76.6716,110.508 76.3382,109.842 75.5,109.5C 75.6716,108.508 75.3382,107.842 74.5,107.5C 73.9941,105.895 73.3274,105.561 72.5,106.5C 65.2142,105.735 57.8809,105.235 50.5,105C 51.4158,104.722 52.0825,104.222 52.5,103.5C 53.8333,102.833 54.8333,101.833 55.5,100.5C 69.4452,99.1837 83.6119,98.517 98,98.5C 112.653,98.5331 127.153,99.1998 141.5,100.5 Z M 50.5,112.5 C 56.8085,112.576 62.8085,112.576 68.5,112.5C 69.3382,112.842 69.6716,113.508 69.5,114.5C 70.0431,114.56 70.3764,114.893 70.5,115.5C 63.8665,116.497 57.1998,116.83 50.5,116.5C 50.5,115.167 50.5,113.833 50.5,112.5 Z M 127.5,112.5 C 133.5,112.5 139.5,112.5 145.5,112.5C 145.5,113.833 145.5,115.167 145.5,116.5C 138.825,116.666 132.158,116.5 125.5,116C 126.066,115.005 126.733,114.172 127.5,113.5C 127.5,113.167 127.5,112.833 127.5,112.5 Z M 79.5,119.5 C 79.5,123.167 79.5,126.833 79.5,130.5C 78.9836,131.758 79.6503,132.758 81.5,133.5C 91.919,133.561 102.586,133.561 113.5,133.5C 114.779,134.715 115.779,134.382 116.5,132.5C 117.338,132.158 117.672,131.492 117.5,130.5C 118.833,130.167 118.833,129.833 117.5,129.5C 117.5,126.5 117.5,123.5 117.5,120.5C 118.815,121.476 120.148,122.476 121.5,123.5C 122.107,123.376 122.44,123.043 122.5,122.5C 130.167,122.5 137.833,122.5 145.5,122.5C 145.5,127.5 145.5,132.5 145.5,137.5C 113.996,137.832 82.6622,137.498 51.5,136.5C 50.5139,132.03 50.1805,127.363 50.5,122.5C 59.0815,122.58 67.4148,122.58 75.5,122.5C 76.5,122.167 77.1667,121.5 77.5,120.5C 78.1667,120.167 78.8333,119.833 79.5,119.5 Z M 110.5,126.5 C 102.248,126.184 94.081,126.518 86,127.5C 85.5065,125.866 85.3398,124.199 85.5,122.5C 94.1731,122.334 102.84,122.5 111.5,123C 110.663,124.011 110.33,125.178 110.5,126.5 Z M 139.5,143.5 C 140.833,146.5 140.833,149.5 139.5,152.5C 135.833,153.833 132.167,153.833 128.5,152.5C 128.805,150.081 128.805,147.414 128.5,144.5C 132.371,144.815 136.038,144.482 139.5,143.5 Z M 68.5,144.5 C 68.8064,147.385 68.4731,150.052 67.5,152.5C 63.8333,153.833 60.1667,153.833 56.5,152.5C 56.6845,150.144 56.6845,147.477 56.5,144.5C 60.5,144.5 64.5,144.5 68.5,144.5 Z"/></g>
<g><path style="opacity:0.055" fill="#363636" d="M 57.5,-0.5 C 58.1667,-0.5 58.8333,-0.5 59.5,-0.5C 59.1667,0.166667 58.8333,0.833333 58.5,1.5C 57.5084,1.67158 56.8417,1.33825 56.5,0.5C 57.1667,0.5 57.5,0.166667 57.5,-0.5 Z"/></g>
<g><path style="opacity:0.008" fill="#171717" d="M 62.5,1.5 C 64.6977,1.40879 65.0311,2.07546 63.5,3.5C 62.8333,3.5 62.5,3.16667 62.5,2.5C 62.5,2.16667 62.5,1.83333 62.5,1.5 Z"/></g>
<g><path style="opacity:0.008" fill="#000000" d="M 22.5,4.5 C 21.8333,4.5 21.5,4.83333 21.5,5.5C 21.1667,5.5 20.8333,5.5 20.5,5.5C 20.1667,5.5 19.8333,5.5 19.5,5.5C 20.221,3.61818 21.221,3.28485 22.5,4.5 Z"/></g>
<g><path style="opacity:0.01" fill="#101010" d="M 68.5,4.5 C 70.6977,4.40879 71.0311,5.07546 69.5,6.5C 68.8333,6.5 68.5,6.16667 68.5,5.5C 68.5,5.16667 68.5,4.83333 68.5,4.5 Z"/></g>
<g><path style="opacity:0.009" fill="#000000" d="M 19.5,5.5 C 19.5,5.83333 19.5,6.16667 19.5,6.5C 18.8333,6.5 18.5,6.83333 18.5,7.5C 18.1667,7.5 17.8333,7.5 17.5,7.5C 17.0618,7.56544 16.7284,7.39877 16.5,7C 17.2438,5.96141 18.2438,5.46141 19.5,5.5 Z"/></g>
<g><path style="opacity:0.157" fill="#2d2d2d" d="M 36.5,6.5 C 37.5676,5.56552 38.901,5.23219 40.5,5.5C 40.631,6.23891 40.4643,6.90558 40,7.5C 38.8552,7.38093 37.6885,7.0476 36.5,6.5 Z"/></g>
<g><path style="opacity:0.008" fill="#000000" d="M 15.5,9.5 C 14.8333,9.5 14.5,9.83333 14.5,10.5C 13.8333,10.5 13.5,10.8333 13.5,11.5C 12.8333,11.5 12.5,11.8333 12.5,12.5C 11.8333,12.5 11.5,12.8333 11.5,13.5C 10.8333,13.5 10.5,13.8333 10.5,14.5C 9.83333,14.5 9.5,14.8333 9.5,15.5C 8.47498,15.1034 8.30831,14.4368 9,13.5C 10.5,12 12,10.5 13.5,9C 14.4368,8.30831 15.1034,8.47498 15.5,9.5 Z"/></g>
<g><path style="opacity:0.01" fill="#000000" d="M 22.5,12.5 C 23.1667,12.5 23.8333,12.5 24.5,12.5C 24.0269,13.9063 23.0269,14.573 21.5,14.5C 21.5,14.1667 21.5,13.8333 21.5,13.5C 22.1667,13.5 22.5,13.1667 22.5,12.5 Z"/></g>
<g><path style="opacity:0.008" fill="#000000" d="M 65.5,12.5 C 66.1667,12.5 66.8333,12.5 67.5,12.5C 67.5,13.1667 67.8333,13.5 68.5,13.5C 68.5,13.8333 68.5,14.1667 68.5,14.5C 66.9731,14.573 65.9731,13.9063 65.5,12.5 Z"/></g>
<g><path style="opacity:0.006" fill="#0b0b0b" d="M 40.5,15.5 C 40.5,15.8333 40.5,16.1667 40.5,16.5C 39.8333,17.1667 39.1667,17.8333 38.5,18.5C 37.8333,18.5 37.5,18.8333 37.5,19.5C 37.1667,19.5 36.8333,19.5 36.5,19.5C 36.8333,17.1667 38.1667,15.8333 40.5,15.5 Z"/></g>
<g><path style="opacity:0.008" fill="#000000" d="M 82.5,18.5 C 81.6618,18.1583 81.3284,17.4916 81.5,16.5C 81.81,15.2617 82.31,15.2617 83,16.5C 83.6917,17.4368 83.525,18.1034 82.5,18.5 Z"/></g>
<g><path style="opacity:0.008" fill="#000000" d="M 7.5,17.5 C 7.5,17.8333 7.5,18.1667 7.5,18.5C 6.83333,18.5 6.5,18.8333 6.5,19.5C 6.16667,19.5 5.83333,19.5 5.5,19.5C 5.36899,18.7611 5.53566,18.0944 6,17.5C 6.68999,16.2617 7.18999,16.2617 7.5,17.5 Z"/></g>
<g><path style="opacity:0.998" fill="#929292" d="M 40.5,15.5 C 42.9193,15.1949 45.586,15.1949 48.5,15.5C 48.8333,16.8333 49.1667,16.8333 49.5,15.5C 50.4916,15.3284 51.1583,15.6618 51.5,16.5C 50.1667,16.8333 50.1667,17.1667 51.5,17.5C 51.8333,18.1667 52.1667,18.8333 52.5,19.5C 52.8333,20.8333 53.1667,20.8333 53.5,19.5C 53.6221,24.9178 53.6221,30.5844 53.5,36.5C 58.6405,37.4881 63.9738,37.8214 69.5,37.5C 70.7206,38.0283 71.8873,38.695 73,39.5C 73.3988,39.2716 73.5654,38.9382 73.5,38.5C 74.3382,38.8417 74.6716,39.5084 74.5,40.5C 74.8051,42.9193 74.8051,45.586 74.5,48.5C 73.8333,48.5 73.5,48.8333 73.5,49.5C 72.8333,49.5 72.5,49.8333 72.5,50.5C 72.5,50.8333 72.5,51.1667 72.5,51.5C 71.5084,51.3284 70.8417,51.6618 70.5,52.5C 69.1667,52.8333 69.1667,53.1667 70.5,53.5C 65.0822,53.6221 59.4156,53.6221 53.5,53.5C 53.6221,59.4156 53.6221,65.0822 53.5,70.5C 53.1667,69.1667 52.8333,69.1667 52.5,70.5C 52.1667,71.1667 51.8333,71.8333 51.5,72.5C 50.1667,72.8333 50.1667,73.1667 51.5,73.5C 51.1583,74.3382 50.4916,74.6716 49.5,74.5C 46.5,74.5 43.5,74.5 40.5,74.5C 41.8333,74.1667 41.8333,73.8333 40.5,73.5C 40.5,72.8333 40.1667,72.5 39.5,72.5C 39.1667,72.5 38.8333,72.5 38.5,72.5C 38.6716,71.5084 38.3382,70.8417 37.5,70.5C 37.5,70.1667 37.5,69.8333 37.5,69.5C 37.5,63.8333 37.5,58.1667 37.5,52.5C 31.8333,52.5 26.1667,52.5 20.5,52.5C 20.1667,52.5 19.8333,52.5 19.5,52.5C 19.5,51.8333 19.1667,51.5 18.5,51.5C 18.1667,51.5 17.8333,51.5 17.5,51.5C 17.1667,50.1667 16.8333,50.1667 16.5,51.5C 15.6618,51.1583 15.3284,50.4916 15.5,49.5C 16.8333,49.1667 16.8333,48.8333 15.5,48.5C 15.1949,45.586 15.1949,42.9193 15.5,40.5C 15.8333,41.8333 16.1667,41.8333 16.5,40.5C 17.5,40.1667 18.1667,39.5 18.5,38.5C 19.1667,38.5 19.5,38.1667 19.5,37.5C 19.8333,37.5 20.1667,37.5 20.5,37.5C 26.1667,37.5 31.8333,37.5 37.5,37.5C 37.5,31.8333 37.5,26.1667 37.5,20.5C 37.5,20.1667 37.5,19.8333 37.5,19.5C 38.1667,19.5 38.5,19.1667 38.5,18.5C 39.1667,17.8333 39.8333,17.1667 40.5,16.5C 41.8333,16.1667 41.8333,15.8333 40.5,15.5 Z M 46.5,22.5 C 47.4902,28.6446 47.8235,34.9779 47.5,41.5C 46.453,42.0778 46.6197,42.7445 48,43.5C 48.3988,43.2716 48.5654,42.9382 48.5,42.5C 55.0221,42.1765 61.3554,42.5098 67.5,43.5C 68.8333,44.5 68.8333,45.5 67.5,46.5C 61.3554,47.4902 55.0221,47.8235 48.5,47.5C 47.9222,46.453 47.2555,46.6197 46.5,48C 46.7284,48.3988 47.0618,48.5654 47.5,48.5C 47.8235,55.0221 47.4902,61.3554 46.5,67.5C 45.7494,68.5735 44.7494,68.7401 43.5,68C 43.8333,67.6667 44.1667,67.3333 44.5,67C 42.5698,61.1263 41.9032,54.9596 42.5,48.5C 43.547,47.9222 43.3803,47.2555 42,46.5C 41.6012,46.7284 41.4346,47.0618 41.5,47.5C 34.9779,47.8235 28.6446,47.4902 22.5,46.5C 21.4265,45.7494 21.2599,44.7494 22,43.5C 22.3333,43.8333 22.6667,44.1667 23,44.5C 28.8737,42.5698 35.0404,41.9032 41.5,42.5C 41.56,43.0431 41.8933,43.3764 42.5,43.5C 43.7733,42.7435 43.7733,42.0768 42.5,41.5C 42.1765,34.9779 42.5098,28.6446 43.5,22.5C 44.5,21.1667 45.5,21.1667 46.5,22.5 Z"/></g>
<g><path style="opacity:0.009" fill="#000000" d="M 51.5,16.5 C 52.9063,16.9731 53.573,17.9731 53.5,19.5C 53.1667,19.5 52.8333,19.5 52.5,19.5C 52.1667,18.8333 51.8333,18.1667 51.5,17.5C 51.5,17.1667 51.5,16.8333 51.5,16.5 Z"/></g>
<g><path style="opacity:0.007" fill="#000000" d="M 71.5,17.5 C 72.8333,17.5 73.5,18.1667 73.5,19.5C 72.5,19.1667 71.8333,18.5 71.5,17.5 Z"/></g>
<g><path style="opacity:0.008" fill="#000000" d="M 13.5,21.5 C 13.8333,21.5 14.1667,21.5 14.5,21.5C 14.573,23.0269 13.9063,24.0269 12.5,24.5C 12.5,23.8333 12.5,23.1667 12.5,22.5C 13.1667,22.5 13.5,22.1667 13.5,21.5 Z"/></g>
<g><path style="opacity:0.01" fill="#000000" d="M 75.5,21.5 C 75.8333,21.5 76.1667,21.5 76.5,21.5C 76.5,22.1667 76.8333,22.5 77.5,22.5C 77.5,23.1667 77.5,23.8333 77.5,24.5C 76.0937,24.0269 75.427,23.0269 75.5,21.5 Z"/></g>
<g><path style="opacity:0.008" fill="#131313" d="M 2.5,28.5 C 2.5,29.1667 2.16667,29.5 1.5,29.5C 0.257631,27.654 0.590965,27.3207 2.5,28.5 Z"/></g>
<g><path style="opacity:0.008" fill="#000000" d="M 88.5,28.5 C 89.8333,29.1667 89.8333,29.1667 88.5,28.5 Z"/></g>
<g><path style="opacity:0.004" fill="#000000" d="M 89.5,31.5 C 90.8333,32.1667 90.8333,32.1667 89.5,31.5 Z"/></g>
<g><path style="opacity:0.004" fill="#000000" d="M 90.5,35.5 C 91.8333,36.1667 91.8333,36.1667 90.5,35.5 Z"/></g>
<g><path style="opacity:0.007" fill="#121212" d="M 19.5,36.5 C 19.5,36.8333 19.5,37.1667 19.5,37.5C 18.8333,37.5 18.5,37.8333 18.5,38.5C 18.1667,39.5 17.5,40.1667 16.5,40.5C 16.1667,40.5 15.8333,40.5 15.5,40.5C 15.8333,38.1667 17.1667,36.8333 19.5,36.5 Z"/></g>
<g><path style="opacity:0.472" fill="#505050" d="M 36.5,19.5 C 36.5,20.1667 36.8333,20.5 37.5,20.5C 37.5,26.1667 37.5,31.8333 37.5,37.5C 31.8333,37.5 26.1667,37.5 20.5,37.5C 20.5,36.8333 20.1667,36.5 19.5,36.5C 24.9178,36.3779 30.5844,36.3779 36.5,36.5C 36.3779,30.5844 36.3779,24.9178 36.5,19.5 Z"/></g>
<g><path style="opacity:0.472" fill="#4b4b4b" d="M 70.5,36.5 C 69.8333,36.5 69.5,36.8333 69.5,37.5C 63.9738,37.8214 58.6405,37.4881 53.5,36.5C 59.4156,36.3779 65.0822,36.3779 70.5,36.5 Z"/></g>
<g><path style="opacity:0.014" fill="#000000" d="M 42.5,41.5 C 43.7733,42.0768 43.7733,42.7435 42.5,43.5C 41.8933,43.3764 41.56,43.0431 41.5,42.5C 42.1667,42.5 42.5,42.1667 42.5,41.5 Z"/></g>
<g><path style="opacity:0.01" fill="#131313" d="M 72.5,50.5 C 72.5,49.8333 72.8333,49.5 73.5,49.5C 73.8333,49.5 74.1667,49.5 74.5,49.5C 74.6716,50.4916 74.3382,51.1583 73.5,51.5C 73.5,50.8333 73.1667,50.5 72.5,50.5 Z"/></g>
<g><path style="opacity:0.007" fill="#000000" d="M 16.5,51.5 C 16.8333,51.5 17.1667,51.5 17.5,51.5C 17.8333,51.5 18.1667,51.5 18.5,51.5C 19.1667,51.5 19.5,51.8333 19.5,52.5C 19.5,52.8333 19.5,53.1667 19.5,53.5C 17.9731,53.573 16.9731,52.9063 16.5,51.5 Z"/></g>
<g><path style="opacity:0.009" fill="#0f0f0f" d="M 72.5,51.5 C 72.8333,51.5 73.1667,51.5 73.5,51.5C 73.0269,52.9063 72.0269,53.573 70.5,53.5C 70.5,53.1667 70.5,52.8333 70.5,52.5C 70.8417,51.6618 71.5084,51.3284 72.5,51.5 Z"/></g>
<g><path style="opacity:0.502" fill="#5b5b5b" d="M 90.5,48.5 C 90.5,49.8333 90.5,51.1667 90.5,52.5C 101.885,52.8116 113.218,52.4782 124.5,51.5C 125.463,51.9698 125.463,52.6365 124.5,53.5C 112.833,53.5 101.167,53.5 89.5,53.5C 89.2155,51.5853 89.5489,49.9187 90.5,48.5 Z"/></g>
<g><path style="opacity:0.457" fill="#565656" d="M 20.5,52.5 C 26.1667,52.5 31.8333,52.5 37.5,52.5C 37.5,58.1667 37.5,63.8333 37.5,69.5C 36.8333,69.5 36.5,69.8333 36.5,70.5C 36.3779,65.0822 36.3779,59.4156 36.5,53.5C 30.5844,53.6221 24.9178,53.6221 19.5,53.5C 20.1667,53.5 20.5,53.1667 20.5,52.5 Z"/></g>
<g><path style="opacity:0.009" fill="#000000" d="M 131.5,58.5 C 130.833,58.5 130.5,58.1667 130.5,57.5C 130.5,57.1667 130.5,56.8333 130.5,56.5C 130.81,55.2617 131.31,55.2617 132,56.5C 132.692,57.4368 132.525,58.1034 131.5,58.5 Z"/></g>
<g><path style="opacity:0.008" fill="#141414" d="M 82.5,58.5 C 82.1583,59.3382 81.4916,59.6716 80.5,59.5C 80.4088,57.3023 81.0755,56.9689 82.5,58.5 Z"/></g>
<g><path style="opacity:0.006" fill="#111111" d="M 122.5,58.5 C 123.338,58.8417 123.672,59.5084 123.5,60.5C 121.302,60.5912 120.969,59.9245 122.5,58.5 Z"/></g>
<g><path style="opacity:0.006" fill="#171717" d="M 124.5,61.5 C 125.492,61.3284 126.158,61.6618 126.5,62.5C 125.075,64.0311 124.409,63.6977 124.5,61.5 Z"/></g>
<g><path style="opacity:0.004" fill="#111111" d="M 86.5,63.5 C 86.5,62.8333 86.8333,62.5 87.5,62.5C 88.8333,63.1667 88.8333,63.8333 87.5,64.5C 87.5,63.8333 87.1667,63.5 86.5,63.5 Z"/></g>
<g><path style="opacity:0.009" fill="#000000" d="M 12.5,65.5 C 13.9063,65.9731 14.573,66.9731 14.5,68.5C 14.1667,68.5 13.8333,68.5 13.5,68.5C 13.5,67.8333 13.1667,67.5 12.5,67.5C 12.5,66.8333 12.5,66.1667 12.5,65.5 Z"/></g>
<g><path style="opacity:0.009" fill="#000000" d="M 77.5,65.5 C 77.5,66.1667 77.5,66.8333 77.5,67.5C 76.8333,67.5 76.5,67.8333 76.5,68.5C 76.1667,68.5 75.8333,68.5 75.5,68.5C 75.427,66.9731 76.0937,65.9731 77.5,65.5 Z"/></g>
<g><path style="opacity:0.02" fill="#272727" d="M 126.5,64.5 C 127.338,64.8417 127.672,65.5084 127.5,66.5C 125.323,67.5042 124.989,66.8375 126.5,64.5 Z"/></g>
<g><path style="opacity:0.01" fill="#141414" d="M 84.5,67.5 C 84.8417,66.6618 85.5084,66.3284 86.5,66.5C 86.6716,67.4916 86.3382,68.1583 85.5,68.5C 85.5,67.8333 85.1667,67.5 84.5,67.5 Z"/></g>
<g><path style="opacity:0.008" fill="#000000" d="M 84.5,68.5 C 84.8333,68.5 85.1667,68.5 85.5,68.5C 85.573,70.0269 84.9063,71.0269 83.5,71.5C 83.5,70.8333 83.5,70.1667 83.5,69.5C 84.1667,69.5 84.5,69.1667 84.5,68.5 Z"/></g>
<g><path style="opacity:0.007" fill="#000000" d="M 36.5,70.5 C 36.8333,70.5 37.1667,70.5 37.5,70.5C 38.3382,70.8417 38.6716,71.5084 38.5,72.5C 38.5,72.8333 38.5,73.1667 38.5,73.5C 37.0937,73.0269 36.427,72.0269 36.5,70.5 Z"/></g>
<g><path style="opacity:0.008" fill="#000000" d="M 52.5,70.5 C 52.8333,70.5 53.1667,70.5 53.5,70.5C 53.573,72.0269 52.9063,73.0269 51.5,73.5C 51.5,73.1667 51.5,72.8333 51.5,72.5C 51.8333,71.8333 52.1667,71.1667 52.5,70.5 Z"/></g>
<g><path style="opacity:0.006" fill="#0d0d0d" d="M 73.5,70.5 C 73.5,71.5 73.5,72.5 73.5,73.5C 72.5,73.5 71.5,73.5 70.5,73.5C 71.1667,72.1667 72.1667,71.1667 73.5,70.5 Z"/></g>
<g><path style="opacity:0.006" fill="#0c0c0c" d="M 91.5,71.5 C 84.2721,78.3063 77.2721,85.3063 70.5,92.5C 70.3893,91.8826 70.056,91.3826 69.5,91C 76.1667,84.3333 82.8333,77.6667 89.5,71C 90.4368,70.3083 91.1034,70.475 91.5,71.5 Z"/></g>
<g><path style="opacity:0.01" fill="#000000" d="M 94.5,71.5 C 95.6226,70.2426 96.2893,70.5759 96.5,72.5C 96.1667,72.5 95.8333,72.5 95.5,72.5C 95.5,71.8333 95.1667,71.5 94.5,71.5 Z"/></g>
<g><path style="opacity:0.008" fill="#141414" d="M 113.5,71.5 C 114.167,70.1667 114.833,70.1667 115.5,71.5C 115.5,72.1667 115.167,72.5 114.5,72.5C 114.5,71.8333 114.167,71.5 113.5,71.5 Z"/></g>
<g><path style="opacity:0.01" fill="#000000" d="M 118.5,71.5 C 119.077,70.2267 119.743,70.2267 120.5,71.5C 120.376,72.1067 120.043,72.44 119.5,72.5C 119.5,71.8333 119.167,71.5 118.5,71.5 Z"/></g>
<g><path style="opacity:0.01" fill="#000000" d="M 82.5,71.5 C 82.8333,71.5 83.1667,71.5 83.5,71.5C 83.573,73.0269 82.9063,74.0269 81.5,74.5C 81.5,73.8333 81.5,73.1667 81.5,72.5C 82.1667,72.5 82.5,72.1667 82.5,71.5 Z"/></g>
<g><path style="opacity:0.01" fill="#111111" d="M 39.5,72.5 C 40.1667,72.5 40.5,72.8333 40.5,73.5C 40.5,73.8333 40.5,74.1667 40.5,74.5C 39.5084,74.6716 38.8417,74.3382 38.5,73.5C 39.1667,73.5 39.5,73.1667 39.5,72.5 Z"/></g>
<g><path style="opacity:0.01" fill="#121212" d="M 68.5,75.5 C 68.5,75.8333 68.5,76.1667 68.5,76.5C 67.8333,77.1667 67.1667,77.8333 66.5,78.5C 66.5,77.8333 66.1667,77.5 65.5,77.5C 65.9731,76.0937 66.9731,75.427 68.5,75.5 Z"/></g>
<g><path style="opacity:0.005" fill="#000000" d="M 140.5,79.5 C 140.167,79.5 139.833,79.5 139.5,79.5C 138.833,79.5 138.5,79.8333 138.5,80.5C 138.167,80.5 137.833,80.5 137.5,80.5C 137.5,79.8333 137.5,79.1667 137.5,78.5C 137.435,78.0618 137.601,77.7284 138,77.5C 138.995,78.0659 139.828,78.7326 140.5,79.5 Z"/></g>
<g><path style="opacity:0.01" fill="#000000" d="M 72.5,81.5 C 73.1667,81.5 73.8333,81.5 74.5,81.5C 74.0269,82.9063 73.0269,83.573 71.5,83.5C 71.5,83.1667 71.5,82.8333 71.5,82.5C 72.1667,82.5 72.5,82.1667 72.5,81.5 Z"/></g>
<g><path style="opacity:0.016" fill="#000000" d="M 159.5,81.5 C 159.5,81.8333 159.5,82.1667 159.5,82.5C 158.83,82.0187 158.83,81.6853 159.5,81.5 Z"/></g>
<g><path style="opacity:0.102" fill="#323232" d="M 34.5,83.5 C 33.5084,83.6716 32.8417,83.3382 32.5,82.5C 34.8375,80.9893 35.5042,81.3227 34.5,83.5 Z"/></g>
<g><path style="opacity:0.01" fill="#000000" d="M 69.5,83.5 C 70.1667,83.5 70.8333,83.5 71.5,83.5C 71.0269,84.9063 70.0269,85.573 68.5,85.5C 68.5,85.1667 68.5,84.8333 68.5,84.5C 69.1667,84.5 69.5,84.1667 69.5,83.5 Z"/></g>
<g><path style="opacity:0.01" fill="#171717" d="M 67.5,84.5 C 67.5,85.1667 67.8333,85.5 68.5,85.5C 68.1583,86.3382 67.4916,86.6716 66.5,86.5C 66.3284,85.5084 66.6618,84.8417 67.5,84.5 Z"/></g>
<g><path style="opacity:0.01" fill="#171717" d="M 24.5,85.5 C 25.1667,85.5 25.5,85.8333 25.5,86.5C 25.5,86.8333 25.5,87.1667 25.5,87.5C 24.5084,87.6716 23.8417,87.3382 23.5,86.5C 24.1667,86.5 24.5,86.1667 24.5,85.5 Z"/></g>
<g><path style="opacity:0.006" fill="#000000" d="M 27.5,88.5 C 28.1667,88.5 28.8333,88.5 29.5,88.5C 28.8333,89.8333 28.1667,89.8333 27.5,88.5 Z"/></g>
<g><path style="opacity:0.004" fill="#0e0e0e" d="M 56.5,91.5 C 56.1667,92.5 55.5,93.1667 54.5,93.5C 53.3398,91.7973 54.0065,91.1307 56.5,91.5 Z"/></g>
<g><path style="opacity:0.011" fill="#000000" d="M 49.5,95.5 C 48.8333,95.5 48.5,95.8333 48.5,96.5C 47.8333,96.5 47.5,96.8333 47.5,97.5C 46.475,97.1034 46.3083,96.4368 47,95.5C 47.9772,94.2264 48.8106,94.2264 49.5,95.5 Z"/></g>
<g><path style="opacity:0.016" fill="#000000" d="M 158.5,95.5 C 158.833,95.5 159.167,95.5 159.5,95.5C 159.5,95.8333 159.5,96.1667 159.5,96.5C 159.167,96.1667 158.833,95.8333 158.5,95.5 Z"/></g>
<g><path style="opacity:0.02" fill="#000000" d="M 157.5,96.5 C 157.833,96.5 158.167,96.5 158.5,96.5C 158.315,97.1701 157.981,97.1701 157.5,96.5 Z"/></g>
<g><path style="opacity:0.02" fill="#000000" d="M 156.5,97.5 C 156.833,97.5 157.167,97.5 157.5,97.5C 157.315,98.1701 156.981,98.1701 156.5,97.5 Z"/></g>
<g><path style="opacity:0.008" fill="#0e0e0e" d="M 53.5,100.5 C 54.1667,100.5 54.8333,100.5 55.5,100.5C 54.8333,101.833 53.8333,102.833 52.5,103.5C 52.5,102.833 52.1667,102.5 51.5,102.5C 52.1667,101.833 52.8333,101.167 53.5,100.5 Z"/></g>
<g><path style="opacity:0.004" fill="#000000" d="M 151.5,100.5 C 152.833,101.167 152.833,101.167 151.5,100.5 Z"/></g>
<g><path style="opacity:0.008" fill="#000000" d="M 104.5,105.5 C 104.897,104.475 105.563,104.308 106.5,105C 107.774,105.977 107.774,106.811 106.5,107.5C 106.5,106.833 106.167,106.5 105.5,106.5C 105.5,105.833 105.167,105.5 104.5,105.5 Z"/></g>
<g><path style="opacity:0.009" fill="#000000" d="M 124.5,105.5 C 124.5,105.833 124.5,106.167 124.5,106.5C 123.833,106.5 123.5,106.833 123.5,107.5C 122.833,107.5 122.5,107.833 122.5,108.5C 122.167,108.5 121.833,108.5 121.5,108.5C 121.5,106.5 122.5,105.5 124.5,105.5 Z"/></g>
<g><path style="opacity:0.471" fill="#6a6a6a" d="M 45.5,102.5 C 45.5,114.5 45.5,126.5 45.5,138.5C 44.8333,138.5 44.5,138.833 44.5,139.5C 44.7959,127.364 44.4625,115.031 43.5,102.5C 43.9698,101.537 44.6365,101.537 45.5,102.5 Z"/></g>
<g><path style="opacity:0.999" fill="#868686" d="M 91.5,105.5 C 95.8333,105.5 100.167,105.5 104.5,105.5C 105.167,105.5 105.5,105.833 105.5,106.5C 106.167,106.5 106.5,106.833 106.5,107.5C 106.5,108.5 106.5,109.5 106.5,110.5C 105.833,110.5 105.5,110.833 105.5,111.5C 104.833,111.5 104.5,111.833 104.5,112.5C 99.7697,112.717 95.1031,112.383 90.5,111.5C 90.5,111.167 90.5,110.833 90.5,110.5C 90.5,109.833 90.1667,109.5 89.5,109.5C 89.5,108.833 89.5,108.167 89.5,107.5C 90.5,107.167 91.1667,106.5 91.5,105.5 Z"/></g>
<g><path style="opacity:0.008" fill="#141414" d="M 121.5,108.5 C 121.5,109.167 121.833,109.5 122.5,109.5C 122.158,110.338 121.492,110.672 120.5,110.5C 120.328,109.508 120.662,108.842 121.5,108.5 Z"/></g>
<g><path style="opacity:0.004" fill="#0f0f0f" d="M 89.5,109.5 C 90.1667,109.5 90.5,109.833 90.5,110.5C 89.8333,110.5 89.5,110.833 89.5,111.5C 88.1667,110.833 88.1667,110.167 89.5,109.5 Z"/></g>
<g><path style="opacity:0.01" fill="#000000" d="M 106.5,110.5 C 107.757,111.623 107.424,112.289 105.5,112.5C 105.5,112.167 105.5,111.833 105.5,111.5C 106.167,111.5 106.5,111.167 106.5,110.5 Z"/></g>
<g><path style="opacity:0.008" fill="#141414" d="M 120.5,110.5 C 120.5,111.167 120.833,111.5 121.5,111.5C 121.158,112.338 120.492,112.672 119.5,112.5C 119.328,111.508 119.662,110.842 120.5,110.5 Z"/></g>
<g><path style="opacity:0.067" fill="#2b2b2b" d="M 50.5,112.5 C 56.5,111.167 62.5,111.167 68.5,112.5C 62.8085,112.576 56.8085,112.576 50.5,112.5 Z"/></g>
<g><path style="opacity:0.066" fill="#343434" d="M 127.5,112.5 C 133.645,111.51 139.978,111.177 146.5,111.5C 146.784,113.415 146.451,115.081 145.5,116.5C 145.5,115.167 145.5,113.833 145.5,112.5C 139.5,112.5 133.5,112.5 127.5,112.5 Z"/></g>
<g><path style="opacity:0.008" fill="#131313" d="M 119.5,112.5 C 119.5,113.167 119.833,113.5 120.5,113.5C 120.5,114.167 120.167,114.5 119.5,114.5C 118.167,113.833 118.167,113.167 119.5,112.5 Z"/></g>
<g><path style="opacity:0.009" fill="#000000" d="M 81.5,116.5 C 81.5,116.833 81.5,117.167 81.5,117.5C 80.8333,117.5 80.5,117.833 80.5,118.5C 80.1667,118.5 79.8333,118.5 79.5,118.5C 79.5,117.167 80.1667,116.5 81.5,116.5 Z"/></g>
<g><path style="opacity:0.031" fill="#333333" d="M 115.5,116.5 C 114.833,116.5 114.5,116.833 114.5,117.5C 113.508,117.672 112.842,117.338 112.5,116.5C 113.652,115.375 114.652,115.375 115.5,116.5 Z"/></g>
<g><path style="opacity:0.043" fill="#444444" d="M 76.5,114.5 C 76.8333,114.5 77.1667,114.5 77.5,114.5C 77.1568,116.483 77.8235,117.817 79.5,118.5C 79.5,118.833 79.5,119.167 79.5,119.5C 78.8333,119.833 78.1667,120.167 77.5,120.5C 77.5,119.833 77.1667,119.5 76.5,119.5C 76.5,117.833 76.5,116.167 76.5,114.5 Z"/></g>
<g><path style="opacity:0.999" fill="#8f8f8f" d="M 82.5,116.5 C 92.5,116.5 102.5,116.5 112.5,116.5C 112.842,117.338 113.508,117.672 114.5,117.5C 115.167,117.833 115.833,118.167 116.5,118.5C 116.5,118.833 116.5,119.167 116.5,119.5C 116.5,120.167 116.833,120.5 117.5,120.5C 117.5,123.5 117.5,126.5 117.5,129.5C 116.167,129.833 116.167,130.167 117.5,130.5C 117.672,131.492 117.338,132.158 116.5,132.5C 116.167,131.167 115.833,131.167 115.5,132.5C 115.167,132.5 114.833,132.5 114.5,132.5C 114.167,132.5 113.833,132.5 113.5,132.5C 103.167,132.5 92.8333,132.5 82.5,132.5C 81.5,131.833 80.5,131.167 79.5,130.5C 79.5,126.833 79.5,123.167 79.5,119.5C 80.1667,119.5 80.5,119.167 80.5,118.5C 81.1667,118.5 81.5,118.167 81.5,117.5C 82.1667,117.5 82.5,117.167 82.5,116.5 Z M 110.5,126.5 C 110.33,125.178 110.663,124.011 111.5,123C 102.84,122.5 94.1731,122.334 85.5,122.5C 85.3398,124.199 85.5065,125.866 86,127.5C 94.081,126.518 102.248,126.184 110.5,126.5 Z"/></g>
<g><path style="opacity:0.006" fill="#000000" d="M 116.5,119.5 C 117.5,119.5 118.5,119.5 119.5,119.5C 120.167,120.167 120.833,120.833 121.5,121.5C 121.5,122.167 121.833,122.5 122.5,122.5C 122.44,123.043 122.107,123.376 121.5,123.5C 120.148,122.476 118.815,121.476 117.5,120.5C 116.833,120.5 116.5,120.167 116.5,119.5 Z"/></g>
<g><path style="opacity:0.342" fill="#484848" d="M 82.5,132.5 C 92.8333,132.5 103.167,132.5 113.5,132.5C 113.5,132.833 113.5,133.167 113.5,133.5C 102.586,133.561 91.919,133.561 81.5,133.5C 82.1667,133.5 82.5,133.167 82.5,132.5 Z"/></g>
<g><path style="opacity:0.006" fill="#000000" d="M 114.5,132.5 C 114.833,132.5 115.167,132.5 115.5,132.5C 115.833,132.5 116.167,132.5 116.5,132.5C 115.779,134.382 114.779,134.715 113.5,133.5C 114.167,133.5 114.5,133.167 114.5,132.5 Z"/></g>
<g><path style="opacity:0.01" fill="#000000" d="M 150.5,140.5 C 150.833,140.5 151.167,140.5 151.5,140.5C 151.5,142.5 150.5,143.5 148.5,143.5C 148.5,143.167 148.5,142.833 148.5,142.5C 149.167,142.5 149.5,142.167 149.5,141.5C 150.167,141.5 150.5,141.167 150.5,140.5 Z"/></g>
<g><path style="opacity:0.008" fill="#000000" d="M 147.5,143.5 C 147.833,143.5 148.167,143.5 148.5,143.5C 148.315,144.17 147.981,144.17 147.5,143.5 Z"/></g>
<g><path style="opacity:0.118" fill="#444444" d="M 49.5,142.5 C 50.4816,145.962 50.815,149.629 50.5,153.5C 49.7611,153.631 49.0944,153.464 48.5,153C 50.0911,149.725 49.7577,146.725 47.5,144C 48.4158,143.722 49.0825,143.222 49.5,142.5 Z"/></g>
<g><path style="opacity:0.136" fill="#272727" d="M 68.5,144.5 C 64.5,144.5 60.5,144.5 56.5,144.5C 56.6845,147.477 56.6845,150.144 56.5,152.5C 55.5233,149.713 55.19,146.713 55.5,143.5C 60.0323,143.182 64.3656,143.515 68.5,144.5 Z"/></g>
<g><path style="opacity:0.059" fill="#1e1e1e" d="M 139.5,143.5 C 136.038,144.482 132.371,144.815 128.5,144.5C 128.805,147.414 128.805,150.081 128.5,152.5C 127.523,149.713 127.19,146.713 127.5,143.5C 131.5,143.5 135.5,143.5 139.5,143.5 Z"/></g>
<g><path style="opacity:0.004" fill="#000000" d="M 146.5,154.5 C 147.833,155.167 147.833,155.833 146.5,156.5C 146.5,155.833 146.5,155.167 146.5,154.5 Z"/></g>
<g><path style="opacity:0.008" fill="#000000" d="M 51.5,156.5 C 51.5,157.167 51.8333,157.5 52.5,157.5C 53.1667,157.5 53.5,157.833 53.5,158.5C 53.5,158.833 53.5,159.167 53.5,159.5C 52.8333,159.5 52.1667,159.5 51.5,159.5C 50.375,158.348 50.375,157.348 51.5,156.5 Z"/></g>
<g><path style="opacity:0.02" fill="#000000" d="M 73.5,156.5 C 73.8333,156.5 74.1667,156.5 74.5,156.5C 74.3147,157.17 73.9813,157.17 73.5,156.5 Z"/></g>
<g><path style="opacity:0.016" fill="#000000" d="M 145.5,156.5 C 145.833,156.5 146.167,156.5 146.5,156.5C 146.315,157.17 145.981,157.17 145.5,156.5 Z"/></g>
<g><path style="opacity:0.02" fill="#000000" d="M 72.5,157.5 C 72.8333,157.5 73.1667,157.5 73.5,157.5C 73.3147,158.17 72.9813,158.17 72.5,157.5 Z"/></g>
<g><path style="opacity:0.024" fill="#000000" d="M 144.5,157.5 C 144.833,157.5 145.167,157.5 145.5,157.5C 145.315,158.17 144.981,158.17 144.5,157.5 Z"/></g>
<g><path style="opacity:0.016" fill="#000000" d="M 71.5,158.5 C 71.8333,158.5 72.1667,158.5 72.5,158.5C 72.5,158.833 72.5,159.167 72.5,159.5C 72.1667,159.167 71.8333,158.833 71.5,158.5 Z"/></g>
<g><path style="opacity:0.02" fill="#000000" d="M 143.5,158.5 C 143.833,158.5 144.167,158.5 144.5,158.5C 144.5,158.833 144.5,159.167 144.5,159.5C 144.167,159.167 143.833,158.833 143.5,158.5 Z"/></g>
</svg>
