<?xml version="1.0" encoding="UTF-8"?>
<svg version="1.1" xmlns="http://www.w3.org/2000/svg" width="96" height="96">
<path d="M0 0 C5.0455 0.70566782 7.2990803 3.53521156 10.78121948 7.08132935 C11.49410629 7.78370224 12.2069931 8.48607513 12.94148254 9.20973206 C15.2941715 11.53600961 17.62422922 13.88355797 19.95358276 16.23318481 C21.58080813 17.85636901 23.20892333 19.4786616 24.83789062 21.10009766 C28.24861184 24.50197066 31.64823852 27.91446624 35.04049683 31.33474731 C39.39176239 35.72019711 43.76940789 40.07816111 48.15571404 44.42852974 C51.52256184 47.77370634 54.87499971 51.13303028 58.2232399 54.49682236 C59.83200656 56.10959429 61.44524989 57.71791334 63.06298447 59.32168961 C65.32113585 61.56461895 67.55918353 63.82585601 69.79293823 66.0930481 C70.8027047 67.08459648 70.8027047 67.08459648 71.83287048 68.09617615 C76.28690616 72.67465416 76.28690616 72.67465416 76.87426758 76.87426758 C76.39889526 79.47537231 76.39889526 79.47537231 75.39889526 80.47537231 C72.65412205 80.65677119 69.95856114 80.75361838 67.21139526 80.78787231 C66.45536011 80.81687622 65.69932495 80.84588013 64.92037964 80.87576294 C59.58176379 80.93595549 56.64934028 79.97686843 52.39889526 76.47537231 C48.03656926 71.7593442 47.98292542 67.62185618 48.06295776 61.47537231 C47.0906358 57.08276487 44.73166423 55.4300171 41.39889526 52.47537231 C41.36131104 53.3308667 41.36131104 53.3308667 41.32296753 54.2036438 C41.20732978 56.77363388 41.08445902 59.34322759 40.96139526 61.91287231 C40.92207886 62.81070435 40.88276245 63.70853638 40.84225464 64.63357544 C40.77941284 65.9145813 40.77941284 65.9145813 40.71530151 67.22146606 C40.6786438 68.01222534 40.64198608 68.80298462 40.60421753 69.6177063 C40.39889526 71.47537231 40.39889526 71.47537231 39.39889526 72.47537231 C36.39889526 72.60037231 36.39889526 72.60037231 33.39889526 72.47537231 C33.06889526 72.14537231 32.73889526 71.81537231 32.39889526 71.47537231 C32.43699298 69.61705048 32.47518394 67.7587305 32.5138855 65.90042114 C32.61871843 57.90752301 32.61871843 57.90752301 28.88717651 51.11209106 C26.93922431 49.18966067 24.93038532 47.57345174 22.76998901 45.86990356 C20.39889526 43.47537231 20.39889526 43.47537231 19.87155151 40.36209106 C20.45106614 37.18978507 21.09215603 36.55024759 23.39889526 34.47537231 C22.58098511 33.68888306 21.76307495 32.9023938 20.92037964 32.09207153 C17.88614927 29.16654571 14.8719061 26.2211201 11.86325073 23.26931763 C10.55903846 21.99525493 9.24948871 20.72663209 7.93453979 19.46365356 C6.04371884 17.6457214 4.17304542 15.808999 2.30514526 13.96755981 C1.71455322 13.40793549 1.12396118 12.84831116 0.51547241 12.27172852 C-2.30866028 9.44996347 -3.50688912 8.20511706 -4.03274536 4.1321106 C-3.46426413 0.63312147 -3.46426413 0.63312147 0 0 Z " fill="#D40000" transform="translate(11.601104736328125,7.524627685546875)"/>
<path d="M0 0 C4.63081828 2.23556745 8.14555835 5.12546766 10 10 C10.9108394 16.13064978 10.98075153 21.48108501 7.25 26.625 C4.3460147 30.10098241 1.77114838 31.73685795 -2.734375 32.40625 C-9.36701575 32.61244609 -13.33207097 32.00105463 -18.4765625 27.703125 C-22.46905224 23.23972622 -22.53832496 18.86248448 -22.453125 13.0546875 C-21.74989708 8.31396132 -19.53604402 5.16297515 -16 2 C-11.14376405 -1.10716792 -5.53967629 -0.82174226 0 0 Z M-9.75 9 C-12.60980567 11.54204948 -13.39650011 13.2281257 -14 17 C-12.6842033 20.61844093 -11.54023575 21.71813787 -8.125 23.5 C-5.01413076 24.25730638 -5.01413076 24.25730638 -2.25 23 C0.60980567 20.45795052 1.39650011 18.7718743 2 15 C0.6842033 11.38155907 -0.45976425 10.28186213 -3.875 8.5 C-6.98586924 7.74269362 -6.98586924 7.74269362 -9.75 9 Z " fill="#D40000" transform="translate(26,56)"/>
<path d="M0 0 C2.1171875 2.1171875 2.1171875 2.1171875 3.875 4.875 C4.47054687 5.77992187 5.06609375 6.68484375 5.6796875 7.6171875 C7 10 7 10 7 12 C8.39025391 11.98259766 8.39025391 11.98259766 9.80859375 11.96484375 C11.00613281 11.95582031 12.20367187 11.94679688 13.4375 11.9375 C14.63246094 11.92589844 15.82742187 11.91429687 17.05859375 11.90234375 C20 12 20 12 21 13 C21.125 16 21.125 16 21 19 C18.81949682 21.18050318 14.24847116 20.41593072 11.25 20.5 C10.43789062 20.55414063 9.62578125 20.60828125 8.7890625 20.6640625 C2.88769828 20.79862129 2.88769828 20.79862129 0.30664062 18.4765625 C-3 13.98065056 -3 13.98065056 -3 11 C-4.11375 11.20625 -5.2275 11.4125 -6.375 11.625 C-7.57125 11.74875 -8.7675 11.8725 -10 12 C-10.66 11.34 -11.32 10.68 -12 10 C-11.916552 6.16139201 -11.43459697 4.47184814 -8.8125 1.625 C-5.45511593 -0.31482191 -3.82336863 -0.50653546 0 0 Z " fill="#D40000" transform="translate(59,28)"/>
<path d="M0 0 C4.9041872 0.03917082 7.5526738 1.72963904 11.30859375 4.734375 C14.40951407 7.97658426 15.2057225 10.68526265 15.125 15.125 C15.11855469 15.91261719 15.11210938 16.70023438 15.10546875 17.51171875 C14.9375 19.4375 14.9375 19.4375 13.9375 20.4375 C11.93791636 20.47830783 9.93704746 20.48004356 7.9375 20.4375 C7.75316406 19.83421875 7.56882812 19.2309375 7.37890625 18.609375 C5.54485746 13.53060418 5.54485746 13.53060418 1.66796875 9.94921875 C-0.55373381 8.9870641 -2.74784217 8.14475656 -5.0625 7.4375 C-5.10504356 5.43795254 -5.10330783 3.43708364 -5.0625 1.4375 C-3.53256031 -0.09243969 -2.12951177 0.1205384 0 0 Z " fill="#D40000" transform="translate(77.0625,55.5625)"/>
<path d="M0 0 C2.5 1.5 2.5 1.5 4 4 C4.791013 8.02098277 4.62153384 10.96411027 2.5 14.5 C-1.03588973 16.62153384 -3.97901723 16.791013 -8 16 C-10.5 14.5 -10.5 14.5 -12 12 C-12.791013 7.97901723 -12.62153384 5.03588973 -10.5 1.5 C-6.96411027 -0.62153384 -4.02098277 -0.791013 0 0 Z " fill="#D40000" transform="translate(72,12)"/>
</svg>
