<svg width="24" height="24" viewBox="0 0 24 24" fill="none" xmlns="http://www.w3.org/2000/svg">
<g clip-path="url(#clip0_52_343)">
<path d="M11 20C11 20.2652 11.1054 20.5196 11.2929 20.7071C11.4804 20.8946 11.7348 21 12 21C12.2652 21 12.5196 20.8946 12.7071 20.7071C12.8946 20.5196 13 20.2652 13 20C13 19.7348 12.8946 19.4804 12.7071 19.2929C12.5196 19.1054 12.2652 19 12 19C11.7348 19 11.4804 19.1054 11.2929 19.2929C11.1054 19.4804 11 19.7348 11 20Z" stroke="#D9D9D9" stroke-width="1.5" stroke-linecap="round" stroke-linejoin="round"/>
<path d="M3 11L8.5 16.5C9.43464 15.5839 10.6912 15.0707 12 15.0707C13.3088 15.0707 14.5654 15.5839 15.5 16.5L21 11C19.8739 9.72312 18.489 8.70048 16.9373 8C15.3855 7.29953 13.7025 6.93726 12 6.93726C10.2975 6.93726 8.61447 7.29953 7.06275 8C5.51102 8.70048 4.1261 9.72312 3 11Z" stroke="#D9D9D9" stroke-width="1.5" stroke-linecap="round" stroke-linejoin="round"/>
<path d="M12 20V6" stroke="#D9D9D9" stroke-width="1.5" stroke-linecap="round" stroke-linejoin="round"/>
<path d="M3.9999 5.99995C3.99123 5.37699 4.1282 4.76061 4.3999 4.19995" stroke="#D9D9D9" stroke-width="1.5" stroke-linecap="round" stroke-linejoin="round"/>
<path d="M7 2.10004C7.65591 1.93068 8.34409 1.93068 9 2.10004" stroke="#D9D9D9" stroke-width="1.5" stroke-linecap="round" stroke-linejoin="round"/>
<path d="M12.0001 5.99995C12.0088 5.37699 11.8718 4.76061 11.6001 4.19995" stroke="#D9D9D9" stroke-width="1.5" stroke-linecap="round" stroke-linejoin="round"/>
<path d="M11.9999 5.99995C11.9912 5.37699 12.1282 4.76061 12.3999 4.19995" stroke="#D9D9D9" stroke-width="1.5" stroke-linecap="round" stroke-linejoin="round"/>
<path d="M15 2.10004C15.6559 1.93068 16.3441 1.93068 17 2.10004" stroke="#D9D9D9" stroke-width="1.5" stroke-linecap="round" stroke-linejoin="round"/>
<path d="M20.0001 5.99995C20.0088 5.37699 19.8718 4.76061 19.6001 4.19995" stroke="#D9D9D9" stroke-width="1.5" stroke-linecap="round" stroke-linejoin="round"/>
</g>
<defs>
<clipPath id="clip0_52_343">
<rect width="24" height="24" fill="white"/>
</clipPath>
</defs>
</svg>
