<svg width="32" height="32" viewBox="0 0 32 32" fill="none" xmlns="http://www.w3.org/2000/svg">
<g clip-path="url(#clip0_11304_10798)">
<path d="M21.3419 1.35967L20.8312 1.06501L20.2586 1.39767C20.0126 0.898351 19.6319 0.453027 19.1946 0.201699C18.372 -0.27829 17.6053 0.127034 17.5946 1.11368C17.5946 1.621 17.8013 2.17899 18.1146 2.64365L17.1933 3.17897C16.948 2.67698 16.5647 2.22832 16.126 1.97633C15.3047 1.49767 14.536 1.899 14.526 2.88764C14.526 3.3983 14.734 3.95895 15.0494 4.42494L14.1281 4.96026C13.8827 4.45561 13.4981 4.00428 13.0574 3.75096C12.2341 3.27097 11.4674 3.67562 11.4574 4.66227C11.4574 5.17492 11.6668 5.73891 11.9841 6.20557L11.0628 6.74156C10.8175 6.23423 10.4308 5.77958 9.98815 5.52558C9.16683 5.04626 8.39818 5.44825 8.38818 6.4369C8.38818 6.95155 8.59884 7.51887 8.9195 7.98686L7.99819 8.52285C7.75286 8.0122 7.36487 7.55554 6.91955 7.29954C6.09823 6.82089 5.32958 7.22288 5.31958 8.21152C5.31958 8.72885 5.53158 9.29817 5.8549 9.76816L4.93293 10.3041C4.6876 9.79082 4.29761 9.33083 3.85028 9.07417C3.02897 8.59552 2.26098 8.99684 2.25032 9.98549C2.25032 10.5048 2.46365 11.0768 2.78831 11.5468L3.2103 11.3048C2.47965 10.2888 2.61031 8.90351 3.60829 9.49616C3.97495 9.70416 4.30427 10.1108 4.5076 10.5515L2.28832 11.8408L0.000366211 28.4331L0.747016 28.8637L2.50031 28.3904L4.24161 30.881L4.98759 31.3117L23.5292 20.5359L21.3419 1.35967ZM6.27556 9.5235C5.99157 9.12684 5.80424 8.63552 5.80424 8.21619C5.81424 7.6382 6.1489 7.40821 6.67689 7.72154C7.04155 7.92886 7.36954 8.33219 7.57287 8.76951L6.27556 9.5235ZM9.34016 7.74287C9.05884 7.34688 8.87351 6.85889 8.87351 6.44156C8.88351 5.83891 9.24016 5.64691 9.74549 5.94691C10.1088 6.15357 10.4341 6.55356 10.6381 6.98822L9.34016 7.74287ZM12.4048 5.96157C11.7028 4.96826 11.7868 3.56229 12.8148 4.17295C13.1754 4.37761 13.4994 4.77493 13.7034 5.20692L12.4048 5.96157ZM15.47 4.18028C15.1934 3.78695 15.0107 3.30563 15.0107 2.89297C15.0207 2.31432 15.356 2.08499 15.884 2.39832C16.2427 2.60231 16.5647 2.99631 16.7687 3.42496L15.47 4.18028ZM18.5346 2.39965C18.2613 2.00766 18.08 1.529 18.08 1.11835C18.0893 0.540359 18.4246 0.310364 18.9526 0.62369C19.3093 0.826352 19.6299 1.21701 19.8346 1.64367L18.5346 2.39965Z" fill="#748BFD"/>
<path d="M2.34605 27.6957L20.8883 16.9199L19.1417 17.3932L0.598755 28.1703L2.34605 27.6957Z" fill="#678AEE"/>
<path d="M2.42134 27.6954L2.41867 27.6948C2.39437 27.69 2.36934 27.6907 2.34534 27.6968L20.8883 16.921C20.9041 16.9169 20.9206 16.9153 20.9369 16.9163L20.9569 16.9183L20.9616 16.919H20.9636L20.9789 16.923C21.0017 16.9287 21.0234 16.9377 21.0436 16.9497C21.0703 16.9657 21.0969 16.987 21.1236 17.013L21.1256 17.0143C21.1491 17.0374 21.1703 17.0626 21.1889 17.0897L21.1949 17.0983L2.652 27.8741C2.63136 27.8433 2.60769 27.8148 2.58133 27.7888C2.55716 27.7646 2.53006 27.7435 2.50067 27.7261C2.47593 27.7114 2.44955 27.701 2.42134 27.6954Z" fill="#566DF9"/>
<path d="M4.39109 30.3587L22.934 19.5823L21.1954 17.0957L2.65247 27.8735L4.39109 30.3587Z" fill="#566DF9"/>
<path d="M0.598755 28.1686L19.1417 17.3935L21.0816 3.33984L2.54005 14.1156L0.598755 28.1686Z" fill="#8FABFE"/>
<path d="M2.80002 12.1349L21.3423 1.35911L20.8316 1.06445L2.2887 11.8402L2.80002 12.1349Z" fill="#678AEE"/>
<path d="M4.98702 31.3114L23.5293 20.5356L21.3427 1.35938L2.79907 12.1351L4.98702 31.3114Z" fill="#8FABFE"/>
<path d="M2.79969 12.1352L4.98631 31.3114L4.241 30.8808L2.49903 28.3895L0.74574 28.8628L-0.000244141 28.4328L2.28837 11.8398L2.79969 12.1352ZM2.34637 27.6955C2.37281 27.6899 2.4001 27.6896 2.42665 27.6946C2.4532 27.6997 2.47848 27.7099 2.50103 27.7248C2.56164 27.7626 2.61329 27.8131 2.65236 27.8728L4.39099 30.3588L2.54037 14.1158L0.599076 28.1688L2.34637 27.6955Z" fill="#748BFD"/>
<path d="M3.8595 15.6711L21.1705 5.61133L22.8324 20.1857L5.52146 30.2455L3.8595 15.6711Z" fill="white"/>
<path d="M13.6528 10.9933C13.8148 10.9 13.9641 10.9833 13.9868 11.1813C14.0101 11.3793 13.8981 11.6133 13.7354 11.7073L11.6275 12.9246C11.4648 13.0179 11.3162 12.9346 11.2928 12.7366C11.2702 12.5386 11.3822 12.3046 11.5442 12.2106L13.6528 10.9933Z" fill="#72D561"/>
<path d="M16.9834 9.06946C17.1461 8.97613 17.2954 9.05946 17.3181 9.25746C17.3407 9.45545 17.2294 9.68945 17.0667 9.78411L14.5715 11.2241C14.4088 11.3174 14.2601 11.2341 14.2368 11.0361C14.2141 10.8381 14.3261 10.6041 14.4888 10.5101L16.9834 9.06946Z" fill="#DBA660"/>
<path d="M20.3147 7.14771C20.4747 7.05438 20.626 7.13705 20.6494 7.33504C20.672 7.53304 20.558 7.76836 20.398 7.8617L17.9028 9.30166C17.7401 9.395 17.5914 9.31167 17.5681 9.11367C17.5454 8.91634 17.6574 8.68168 17.8194 8.58835L20.3147 7.14771Z" fill="#748BFD"/>
<path d="M7.37781 14.6166C7.5398 14.5233 7.69113 14.6053 7.7138 14.8033C7.73713 15.0012 7.62313 15.2366 7.46047 15.3299L4.96719 16.7699C4.8052 16.8632 4.65587 16.7799 4.6332 16.5819C4.60987 16.3839 4.72187 16.1499 4.88453 16.0559L7.37781 14.6166Z" fill="#F45170"/>
<path d="M10.7081 12.6925C10.8708 12.5992 11.0194 12.6825 11.0428 12.8805C11.0654 13.0785 10.9534 13.3125 10.7914 13.4065L8.29615 14.8465C8.13615 14.9398 7.98482 14.8571 7.96149 14.6591C7.93882 14.4611 8.05282 14.2258 8.21349 14.1331L10.7081 12.6925Z" fill="#B28AFD"/>
<path d="M5.37279 12.1952L3.5835 13.2285L3.47217 12.2585L3.48683 12.2492L3.97149 11.9725L4.70814 11.5412L5.19813 11.2599L5.25613 11.2266L5.37279 12.1952Z" fill="white"/>
<path d="M5.20321 11.4119C5.20321 11.8819 5.03388 12.2359 4.71856 12.4152C4.3719 12.6206 3.95191 12.5312 3.60325 12.3286C3.56458 12.3039 3.52592 12.2792 3.48725 12.2506L3.97191 11.9739C4.17057 12.0612 4.3499 12.0712 4.48123 11.9939C4.60723 11.9206 4.68922 11.7606 4.70856 11.5426C4.71856 11.4986 4.71856 11.4553 4.71856 11.4119C4.72322 10.7233 4.21457 9.84063 3.60858 9.49664C2.6206 8.90998 2.45061 10.2486 3.21059 11.3053L2.7886 11.5473C2.46394 11.0773 2.25061 10.5053 2.25061 9.98596C2.26128 8.99731 3.03059 8.59599 3.85058 9.07464C4.56856 9.48664 5.14055 10.4226 5.19855 11.2613C5.20321 11.3099 5.20321 11.3633 5.20321 11.4119Z" fill="#3B475A"/>
<path d="M8.44127 10.4224L6.65265 11.4551L6.54065 10.4851L6.55532 10.4758L7.03997 10.1991L7.77729 9.76778L8.26661 9.48646L8.32528 9.45312L8.44127 10.4224Z" fill="white"/>
<path d="M8.2723 9.63585C8.2723 10.1065 8.10231 10.4605 7.78698 10.6398C7.44099 10.8452 7.021 10.7565 6.67234 10.5532C6.63367 10.5285 6.59434 10.5045 6.55568 10.4752L7.04033 10.1985C7.23966 10.2858 7.41899 10.2958 7.54965 10.2185C7.67632 10.1452 7.75832 9.98518 7.77765 9.76718C7.78698 9.72385 7.78698 9.68052 7.78698 9.63652C7.79232 8.94787 7.28299 8.06522 6.67701 7.72123C6.15968 7.41457 5.81436 7.62523 5.80436 8.21588C5.80436 8.63788 5.99369 9.13186 6.27968 9.52919L5.85769 9.77185C5.53303 9.30186 5.3197 8.72987 5.3197 8.21122C5.3297 7.22191 6.09902 6.82058 6.91967 7.29924C7.63698 7.7119 8.20897 8.64721 8.26697 9.48586C8.2723 9.53452 8.2723 9.58786 8.2723 9.63652V9.63585Z" fill="#3B475A"/>
<path d="M11.5111 8.64705L9.72181 9.68036L9.61047 8.71038L9.62514 8.70038L10.1098 8.42438L10.8464 7.99239L11.3364 7.71173L11.3944 7.67773L11.5111 8.64705Z" fill="white"/>
<path d="M11.3408 7.86284C11.3408 8.33283 11.1715 8.68682 10.8561 8.86615C10.5095 9.07148 10.0895 8.98282 9.74082 8.77949C9.70216 8.75482 9.66349 8.73082 9.62482 8.70149L10.1095 8.42549C10.3081 8.51216 10.4875 8.52216 10.6181 8.44483C10.7448 8.3715 10.8268 8.2115 10.8461 7.9935C10.8561 7.95017 10.8561 7.90684 10.8561 7.86284C10.8608 7.17419 10.3521 6.29221 9.74549 5.94755C9.23883 5.64622 8.88351 5.84088 8.87284 6.4422C8.87284 6.8642 9.06217 7.35885 9.34816 7.75618L8.92617 7.99884C8.60151 7.52818 8.38818 6.95619 8.38818 6.43754C8.39818 5.44823 9.1675 5.0469 9.98815 5.52622C10.7055 5.93822 11.2781 6.87353 11.3361 7.71284C11.3408 7.76084 11.3408 7.81417 11.3408 7.86284Z" fill="#3B475A"/>
<path d="M14.5802 6.87361L12.791 7.90692L12.679 6.93694L12.6936 6.92694L13.1783 6.65095L13.9156 6.21962L14.4049 5.9383L14.4636 5.9043L14.5802 6.87361Z" fill="white"/>
<path d="M14.41 6.08704C14.41 6.5577 14.24 6.91169 13.9247 7.09102C13.5787 7.29568 13.158 7.20702 12.81 7.00369C12.7707 6.97902 12.732 6.95502 12.6934 6.92569L13.178 6.6497C13.3774 6.73636 13.5567 6.74636 13.6873 6.66903C13.8133 6.5957 13.896 6.4357 13.9153 6.21837C13.9247 6.17437 13.9247 6.13104 13.9247 6.08704C13.93 5.39906 13.4207 4.51641 12.8147 4.17242C11.8047 3.57243 11.6734 4.94773 12.4174 5.98038L11.9954 6.22304C11.6707 5.75238 11.4574 5.18039 11.4574 4.66174C11.4674 3.67309 12.236 3.27177 13.0574 3.75043C13.7747 4.16242 14.3467 5.0984 14.4047 5.93704C14.41 5.98571 14.41 6.03904 14.41 6.08704Z" fill="#3B475A"/>
<path d="M17.6487 5.09822L15.8594 6.13086L15.748 5.16088L15.7627 5.15155L16.2474 4.87489L16.984 4.44357L17.474 4.16224L17.532 4.12891L17.6487 5.09822Z" fill="white"/>
<path d="M17.4784 4.3136C17.4784 4.78426 17.309 5.13825 16.9937 5.31758C16.647 5.52291 16.2271 5.43358 15.8784 5.23025C15.8397 5.20625 15.8011 5.18159 15.7624 5.15292L16.2471 4.87626C16.4457 4.96359 16.625 4.97359 16.7557 4.89626C16.8824 4.82293 16.9644 4.66293 16.9837 4.44493C16.9937 4.40094 16.9937 4.3576 16.9937 4.3136C16.9984 3.62562 16.489 2.74297 15.8831 2.39898C15.3657 2.09165 15.0204 2.30298 15.0104 2.89363C15.0104 3.31496 15.1997 3.80961 15.4857 4.20694L15.0637 4.4496C14.7391 3.97961 14.5258 3.40762 14.5258 2.8883C14.5358 1.89966 15.3051 1.49833 16.1257 1.97699C16.843 2.38898 17.4157 3.32496 17.4737 4.16361C17.4784 4.21227 17.4784 4.2656 17.4784 4.3136Z" fill="#3B475A"/>
<path d="M20.7172 3.32349L18.9279 4.35547L18.8165 3.38549L18.8312 3.37616L19.3159 3.0995L20.0532 2.66818L20.5425 2.38685L20.6005 2.35352L20.7172 3.32349Z" fill="white"/>
<path d="M20.5476 2.53886C20.5476 3.00885 20.3782 3.36285 20.0629 3.54218C19.7169 3.7475 19.2963 3.65884 18.9476 3.45551C18.9089 3.43085 18.8703 3.40685 18.8316 3.37751L19.3163 3.10085C19.5149 3.18818 19.6943 3.19818 19.8256 3.12085C19.9516 3.04752 20.0343 2.88752 20.0536 2.66953C20.0629 2.6262 20.0629 2.58286 20.0629 2.53886C20.0676 1.85021 19.5589 0.967565 18.9529 0.623573C18.4356 0.316913 18.0903 0.527575 18.0796 1.11823C18.0796 1.54022 18.269 2.03421 18.555 2.43153L18.1336 2.67419C17.8083 2.20421 17.595 1.63222 17.595 1.11356C17.6056 0.12425 18.375 -0.277075 19.1949 0.201582C19.9129 0.613573 20.4849 1.54955 20.5429 2.3882C20.5476 2.43687 20.5476 2.4902 20.5476 2.53886Z" fill="#3B475A"/>
<path d="M7.85586 16.0254L8.08252 17.974L5.00059 19.7526L4.77393 17.804L7.85586 16.0254ZM11.9691 20.852L12.1958 22.8006L9.1145 24.5792L8.88784 22.6312L11.9691 20.852ZM11.7071 18.602L11.9338 20.55L8.85317 22.3286L8.62651 20.3806L11.7071 18.602Z" fill="#E9E7FC"/>
<path d="M11.4467 16.3555L11.672 18.3008L8.59141 20.0801L8.36475 18.1341L11.4467 16.3555Z" fill="#B28AFD"/>
<path d="M11.1851 14.1043L11.4118 16.0529L8.33054 17.8315L8.10388 15.8829L11.1851 14.1043ZM14.1291 12.4043L14.3557 14.3529L11.6618 15.9082L11.4351 13.9596L14.1291 12.4043Z" fill="#E9E7FC"/>
<path d="M17.4597 10.4805L17.6863 12.4291L14.6051 14.2077L14.3784 12.2598L17.4597 10.4805Z" fill="#DBA660"/>
<path d="M20.791 8.55664L21.0176 10.5053L17.9364 12.2839L17.7097 10.3359L20.791 8.55664Z" fill="#E9E7FC"/>
<path d="M8.90109 25.0254L9.12775 26.9713L6.04649 28.75L5.81982 26.804L8.90109 25.0254Z" fill="#F45170"/>
<path d="M8.64005 22.774L8.86605 24.7226L5.78478 26.5012L5.55812 24.5533L8.64005 22.774ZM8.37806 20.524L8.60472 22.472L5.52346 24.2513L5.29679 22.3026L8.37806 20.524ZM8.1174 18.2754L8.34339 20.222L5.26213 22.0006L5.03613 20.0547L8.1174 18.2754Z" fill="#E9E7FC"/>
<path d="M14.9135 19.1523L15.1395 21.1003L12.4455 22.6556L12.2189 20.7076L14.9135 19.1523Z" fill="#78E75A"/>
<path d="M14.6513 16.9017L14.878 18.8497L12.1834 20.4056L11.9574 18.457L14.6513 16.9017ZM14.39 14.6538L14.6166 16.5997L11.922 18.155L11.696 16.2091L14.39 14.6538ZM18.2439 17.2284L18.4706 19.177L15.3893 20.9563L15.1626 19.0077L18.2439 17.2284ZM17.9826 14.9784L18.2092 16.927L15.128 18.7057L14.9013 16.757L17.9826 14.9784ZM17.7212 12.7305L17.9479 14.6764L14.8666 16.4551L14.64 14.5091L17.7212 12.7305ZM21.8365 17.5564L22.0625 19.5017L18.9812 21.2809L18.7552 19.3343L21.8365 17.5564ZM21.5752 15.3057L21.8018 17.2537L18.7206 19.033L18.4939 17.0844L21.5752 15.3057Z" fill="#E9E7FC"/>
<path d="M21.3133 13.0566L21.5399 15.0053L18.4593 16.7839L18.2327 14.8353L21.3133 13.0566Z" fill="#748BFD"/>
<path d="M21.0528 10.8086L21.2788 12.7546L18.1975 14.5332L17.9715 12.5872L21.0528 10.8086ZM12.2303 23.1037L12.4563 25.0496L9.37504 26.8282L9.14905 24.8823L12.2303 23.1037ZM15.1743 21.4037L15.4009 23.3503L12.7063 24.905L12.4803 22.9597L15.1743 21.4037ZM18.5055 19.4811L18.7315 21.4264L15.6502 23.205L15.4242 21.2597L18.5055 19.4811Z" fill="#E9E7FC"/>
<path d="M7.94724 25.8003C7.97591 25.7836 8.00591 25.7803 8.02991 25.7936C8.0799 25.8216 8.0899 25.907 8.05191 25.985L7.28526 27.5916C7.26863 27.6265 7.24253 27.6561 7.20992 27.6769C7.18192 27.6929 7.14992 27.6956 7.12793 27.6829L6.7386 27.4643C6.6906 27.4349 6.6806 27.3496 6.71593 27.2723C6.73215 27.2376 6.75809 27.2084 6.7906 27.1883C6.81927 27.1723 6.8486 27.1683 6.87393 27.1816L7.17192 27.3509L7.87391 25.883C7.88969 25.8488 7.9152 25.8201 7.94724 25.8003ZM14.2024 19.8858C14.2304 19.8691 14.2604 19.8658 14.2844 19.8791C14.3344 19.9071 14.3444 19.9924 14.3071 20.0711L13.5391 21.6804C13.5225 21.7153 13.4964 21.7449 13.4638 21.7657C13.4358 21.7817 13.4038 21.7844 13.3811 21.7717L12.9911 21.5531C12.9431 21.5237 12.9331 21.4384 12.9691 21.3604C12.9852 21.3259 13.0109 21.2967 13.0431 21.2764C13.0718 21.2604 13.1018 21.2564 13.1271 21.2697L13.4258 21.4397L14.1284 19.9691C14.1441 19.9347 14.1696 19.9057 14.2018 19.8858H14.2024ZM20.3883 13.9366C20.4163 13.9206 20.4463 13.9166 20.4703 13.9299C20.5196 13.9586 20.5303 14.0432 20.4923 14.1219C19.367 16.4418 19.8443 15.7832 19.1823 15.5972C19.1343 15.5679 19.1243 15.4832 19.1597 15.4059C19.1758 15.3715 19.2015 15.3426 19.2337 15.3225C19.2623 15.3059 19.2923 15.3025 19.317 15.3152L19.615 15.4845L20.315 14.0199C20.3307 13.9857 20.3562 13.9563 20.3883 13.9366Z" fill="white"/>
<path d="M31.9998 16.2456C32.0065 19.7522 29.5465 24.0121 26.4999 25.7721C24.92 26.6854 23.4933 26.7387 22.4867 26.0921C22.5134 26.1187 22.5467 26.1387 22.58 26.1587L20.4667 24.9321C19.4801 24.3521 18.8668 23.1321 18.8601 21.3922C18.8601 20.4055 19.0601 19.3589 19.4068 18.3256L19.4001 18.3189C19.8468 17.2036 20.1387 16.2609 21.4801 14.4723C21.64 14.2656 21.8 14.0723 21.9667 13.8857L22.12 13.7123C22.3267 13.4857 22.54 13.2723 22.76 13.0657C23.0233 12.8023 23.7653 12.215 24.3533 11.8724H24.36C24.4667 11.8057 24.5666 11.759 24.6733 11.7057V11.5724C24.4333 11.4124 24.3067 11.2124 24.3067 11.0057V10.2191C24.3067 9.99907 24.4533 9.77908 24.74 9.61242C25.3133 9.27242 26.2533 9.27242 26.8333 9.61242C27.1666 9.80575 27.3066 10.0657 27.2599 10.3124C27.2666 10.2857 27.2733 10.2524 27.2733 10.2257V11.0124C27.2733 11.0591 27.2599 11.1057 27.2466 11.1524C27.6266 11.199 27.9732 11.3057 28.2799 11.4857L30.3799 12.7057C31.3732 13.279 31.9932 14.5056 31.9998 16.2456Z" fill="#7E5AF2"/>
<path d="M30.3906 12.7105L28.282 11.4852C27.2793 10.9026 25.8907 10.9852 24.3581 11.8699L24.3561 11.8705C23.8308 12.1745 23.1994 12.6585 22.7594 13.0658C22.5395 13.2698 22.3261 13.4865 22.1195 13.7125C22.0681 13.7692 22.0181 13.8272 21.9675 13.8852C20.8296 15.1814 19.9575 16.6886 19.4009 18.3211L19.4049 18.3237C19.0575 19.3584 18.8582 20.405 18.8609 21.391C18.8662 23.131 19.4795 24.3543 20.4702 24.9296L22.5781 26.1549C19.0835 24.1243 21.6621 15.8691 26.4647 13.0952H26.466C27.9993 12.2099 29.3873 12.1279 30.3906 12.7105Z" fill="#B28AFD"/>
<path d="M26.4664 13.0966C29.5123 11.3373 31.989 12.75 31.9996 16.2499C32.009 19.7498 29.5477 24.0131 26.5017 25.7717C23.4551 27.5303 20.9792 26.1184 20.9685 22.6184C20.9592 19.1185 23.4198 14.8553 26.4657 13.096L26.4664 13.0966Z" fill="#7E5AF2"/>
<path d="M29.4512 13.5371C30.3532 14.0024 30.9198 15.0657 30.9245 16.6037C30.9318 19.5836 28.8312 23.2222 26.2379 24.7195C25.1086 25.3722 24.07 25.5108 23.256 25.2129C24.1026 25.6502 25.2446 25.5602 26.4999 24.8355C29.0919 23.3389 31.1931 19.6996 31.1851 16.719C31.1805 15.0377 30.5052 13.9218 29.4518 13.5371H29.4512Z" fill="#B28AFD"/>
<path d="M30.9238 16.6032C30.9245 16.7836 30.9173 16.964 30.9025 17.1438C30.6792 20.0111 28.6759 23.3124 26.2379 24.7197C25.1086 25.3723 24.0693 25.511 23.256 25.213C22.354 24.7483 21.7874 23.685 21.7834 22.1471C21.7707 17.8778 25.8926 12.9293 28.9972 13.4206L29.0399 13.4273C29.1825 13.4526 29.3199 13.4899 29.4512 13.5373C30.3532 14.0026 30.9198 15.0659 30.9238 16.6039V16.6032Z" fill="white"/>
<path d="M26.3399 14.4632C26.4239 14.4152 26.4919 14.4539 26.4919 14.5499L26.4939 15.3625C26.4939 15.4585 26.4273 15.5758 26.3433 15.6238C26.2599 15.6718 26.1913 15.6338 26.1906 15.5372L26.1886 14.7252C26.1886 14.6292 26.2566 14.5119 26.3399 14.4632ZM26.3646 23.1257C26.4479 23.077 26.5159 23.1157 26.5166 23.2123L26.5186 24.0243C26.5186 24.1203 26.4519 24.2376 26.3679 24.2856C26.2839 24.3336 26.2159 24.2956 26.2153 24.199L26.2133 23.387C26.2161 23.3346 26.2313 23.2836 26.2576 23.2382C26.2839 23.1928 26.3206 23.1542 26.3646 23.1257ZM22.9373 21.1724C23.0213 21.1244 23.0893 21.1637 23.0893 21.259C23.0893 21.3557 23.0227 21.4724 22.9387 21.521L22.232 21.929C22.148 21.977 22.08 21.939 22.0793 21.8424C22.0793 21.7464 22.1473 21.629 22.2307 21.5804L22.9373 21.1724ZM30.4758 16.8205C30.5598 16.7718 30.6278 16.8111 30.6278 16.9071C30.6278 17.0031 30.5612 17.1205 30.4772 17.1685L29.7698 17.5771C29.6858 17.6251 29.6178 17.5865 29.6178 17.4905C29.6178 17.3945 29.6845 17.2771 29.7685 17.2285L30.4758 16.8205ZM23.4287 17.5338C23.468 17.5111 23.5066 17.5058 23.536 17.5231L24.0373 17.8091C24.0973 17.8425 24.0973 17.9531 24.038 18.0558C24.0125 18.1016 23.9758 18.1401 23.9313 18.1678C23.8926 18.1904 23.854 18.1958 23.8246 18.1791L23.322 17.8931C23.2627 17.8598 23.262 17.7491 23.322 17.6465C23.3473 17.6002 23.384 17.5612 23.4287 17.5331V17.5338ZM28.7765 20.5817C28.8152 20.5591 28.8539 20.5537 28.8832 20.5711L29.3852 20.8564C29.4445 20.8897 29.4452 21.0004 29.3852 21.1031C29.3598 21.1491 29.3231 21.1879 29.2785 21.2157C29.2399 21.2377 29.2012 21.243 29.1719 21.2264L28.6705 20.9404C28.6105 20.9071 28.6105 20.7971 28.6699 20.6944C28.6951 20.6481 28.7318 20.6097 28.7765 20.5817ZM23.9466 23.3703C23.9846 23.3477 24.0233 23.3423 24.0533 23.3597C24.1126 23.393 24.1133 23.5037 24.054 23.6063L23.556 24.4683C23.5307 24.5146 23.494 24.5536 23.4493 24.5816C23.41 24.6036 23.3713 24.609 23.3413 24.5923C23.2813 24.559 23.2813 24.4483 23.3407 24.3463L23.8393 23.4837C23.8645 23.4373 23.9019 23.3983 23.9466 23.3703ZM29.2592 14.1679C29.2979 14.1452 29.3365 14.1399 29.3659 14.1572C29.4259 14.1912 29.4259 14.3012 29.3665 14.4039L28.8685 15.2665C28.8432 15.3126 28.8065 15.3513 28.7619 15.3792C28.7232 15.4012 28.6839 15.4065 28.6545 15.3898C28.5945 15.3565 28.5945 15.2458 28.6539 15.1438L29.1519 14.2805C29.1771 14.2342 29.2139 14.1952 29.2585 14.1672L29.2592 14.1679ZM26.9046 11.2026L26.9032 12.0839C26.9032 12.2479 26.7952 12.4119 26.5792 12.5372C26.1459 12.7899 25.4399 12.7899 25.0033 12.5372C24.784 12.4106 24.674 12.2439 24.6746 12.0786L24.676 11.1973C24.676 11.3639 24.7853 11.5299 25.0046 11.6566C25.4413 11.9086 26.1466 11.9086 26.5806 11.6566C26.7966 11.5313 26.9046 11.3673 26.9046 11.2033V11.2026Z" fill="#4C5C75"/>
<path d="M27.2732 10.2257V11.0124C27.2732 11.2324 27.1266 11.4524 26.8399 11.619C26.2599 11.9524 25.3266 11.9524 24.74 11.619C24.4533 11.4524 24.3066 11.2257 24.3066 11.0057V10.2191C24.3066 9.99907 24.4533 9.77908 24.74 9.61242C25.3133 9.27242 26.2533 9.27242 26.8333 9.61242C27.1666 9.80575 27.3066 10.0657 27.2599 10.3124C27.2666 10.2857 27.2732 10.2524 27.2732 10.2257Z" fill="#1D2943"/>
<path d="M27.2739 10.2235L27.2726 11.0162C27.2719 11.2342 27.1279 11.4528 26.8412 11.6195C26.2633 11.9548 25.3239 11.9548 24.7433 11.6195C24.4506 11.4508 24.3046 11.2295 24.3053 11.0082L24.3073 10.2148C24.3073 10.4368 24.4526 10.6582 24.7453 10.8268C25.3259 11.1622 26.2653 11.1622 26.8426 10.8268C27.1299 10.6602 27.2732 10.4415 27.2739 10.2235Z" fill="#1D2943"/>
<path d="M27.2618 10.2167C27.2627 9.74211 26.5994 9.35611 25.7802 9.35453C24.961 9.35296 24.2961 9.73641 24.2952 10.211C24.2943 10.6856 24.9577 11.0716 25.7769 11.0732C26.5961 11.0747 27.2609 10.6913 27.2618 10.2167Z" fill="#4C5C75"/>
<path d="M26.9829 10.2148C26.9836 9.82936 26.4449 9.51582 25.7796 9.51455C25.1143 9.51327 24.5743 9.82473 24.5736 10.2102C24.5729 10.5957 25.1116 10.9092 25.7769 10.9105C26.4422 10.9118 26.9821 10.6003 26.9829 10.2148Z" fill="#1D2943"/>
<path d="M29.7462 15.4212C29.7982 15.3912 29.8489 15.3925 29.8775 15.4325C29.9209 15.4872 29.8982 15.6059 29.8242 15.7018C29.8019 15.7306 29.7743 15.7548 29.7429 15.7732C29.7305 15.7806 29.7173 15.7866 29.7035 15.7912C28.7022 17.1485 27.7436 18.4078 26.8583 19.4731C26.8703 19.6118 26.8109 19.7884 26.6989 19.9284C26.5716 20.0931 26.3489 20.2164 26.2369 20.0638C26.1036 19.8864 26.2583 19.4664 26.5196 19.3151C26.5728 19.2805 26.6367 19.2662 26.6996 19.2751C27.5556 18.1105 28.5349 16.8985 29.5969 15.6445C29.6094 15.5889 29.6338 15.5366 29.6682 15.4912C29.6896 15.4632 29.716 15.4394 29.7462 15.4212Z" fill="#F45170"/>
</g>
<defs>
<clipPath id="clip0_11304_10798">
<rect width="32" height="32" fill="white"/>
</clipPath>
</defs>
</svg>
