<?xml version="1.0" standalone="no"?>
<!DOCTYPE svg PUBLIC "-//W3C//DTD SVG 20010904//EN"
 "http://www.w3.org/TR/2001/REC-SVG-20010904/DTD/svg10.dtd">
<svg version="1.0" xmlns="http://www.w3.org/2000/svg"
 width="100.000000pt" height="100.000000pt" viewBox="0 0 100.000000 100.000000"
 preserveAspectRatio="xMidYMid meet">

<g transform="translate(0.000000,100.000000) scale(0.100000,-0.100000)"
fill="#000000" stroke="none">
<path d="M29 971 l-29 -29 0 -376 0 -376 29 -32 29 -33 162 -3 c175 -4 205 -1
214 24 15 39 -9 44 -189 44 -148 0 -174 2 -179 16 -3 9 -6 172 -6 363 0 257 3
350 12 359 8 8 47 12 110 12 l98 0 0 -103 c0 -148 -1 -147 154 -147 157 0 154
-2 158 140 l3 105 85 3 c143 5 130 27 130 -226 l0 -218 -41 4 c-91 9 -187 -42
-236 -125 -24 -41 -28 -59 -28 -123 0 -64 4 -82 28 -122 84 -144 275 -170 392
-53 99 98 98 252 -1 351 l-42 43 -4 236 -3 237 -33 29 -32 29 -376 0 -376 0
-29 -29z m501 -126 l0 -95 -95 0 -95 0 0 88 c0 49 3 92 7 95 3 4 46 7 95 7
l88 0 0 -95z m275 -416 c53 -15 110 -73 125 -128 50 -186 -176 -318 -311 -182
-98 98 -62 260 68 306 47 17 67 18 118 4z"/>
<path d="M787 289 l-39 -51 -23 22 c-27 25 -58 23 -63 -4 -5 -22 64 -96 89
-96 22 0 122 134 117 157 -7 37 -42 26 -81 -28z"/>
<path d="M143 433 c-22 -8 -15 -50 10 -57 29 -8 165 -8 195 0 26 7 31 48 6 58
-19 7 -193 7 -211 -1z"/>
<path d="M134 295 c-15 -38 2 -46 88 -43 81 3 83 4 83 28 0 24 -2 25 -83 28
-67 2 -83 0 -88 -13z"/>
</g>
</svg>
