<?xml version="1.0" encoding="UTF-8"?>
<svg version="1.1" xmlns="http://www.w3.org/2000/svg" width="128" height="128">
<path d="M0 0 C5.61 0 11.22 0 17 0 C21.94311044 9.31897869 26.87229024 18.64460736 31.625 28.0625 C31.96724609 28.73410156 32.30949219 29.40570313 32.66210938 30.09765625 C35 34.76371654 35 34.76371654 35 37 C36.155 37.061875 37.31 37.12375 38.5 37.1875 C44.08721943 37.91066847 48.85543278 40.23740187 52.35546875 44.74609375 C55.87942453 50.66175959 56.95357697 56.15582898 55.609375 62.984375 C53.79467781 68.98683494 50.08880255 72.49416466 45 76 C39.30662915 78.67239856 33.81863132 78.77881412 27.875 76.8125 C21.38118385 74.13709799 18.04777279 69.09554559 15 63 C14.26989848 55.89048685 14.63492372 49.84655671 19 44 C20.90765805 42.09234195 22.80661487 40.59518919 25 39 C24.01 36.03 24.01 36.03 23 33 C22.34 33 21.68 33 21 33 C19.82769599 34.25366206 18.71872601 35.56680511 17.640625 36.90234375 C5.43517567 51.12644114 5.43517567 51.12644114 -3.0859375 52.41796875 C-8.41404632 52.77736396 -13.69504056 52.59309178 -19 52 C-18.97679687 52.6602417 -18.95359375 53.3204834 -18.9296875 54.00073242 C-18.78256163 61.17640244 -19.64860249 66.11465661 -24 72 C-29.75323482 76.96714927 -35.46323036 78.50245131 -43 78 C-49.99639948 76.62275601 -54.02237555 72.77361554 -58 67 C-60.67239856 61.30662915 -60.77881412 55.81863132 -58.8125 49.875 C-56.64683936 44.59364835 -52.68885528 41.12590352 -48 38 C-42.26432453 36.08810818 -36.0327381 36.03906926 -30.5625 38.625 C-29.716875 39.07875 -28.87125 39.5325 -28 40 C-24.71374028 38.82681195 -22.64258549 36.85960801 -20.25 34.375 C-19.16666667 33.25 -18.08333333 32.125 -17 31 C-17.56509277 30.98018066 -18.13018555 30.96036133 -18.71240234 30.93994141 C-21.26707997 30.84481764 -23.82092541 30.73508942 -26.375 30.625 C-27.26445313 30.5940625 -28.15390625 30.563125 -29.0703125 30.53125 C-29.92109375 30.49257813 -30.771875 30.45390625 -31.6484375 30.4140625 C-32.43395996 30.3826416 -33.21948242 30.3512207 -34.02880859 30.31884766 C-36 30 -36 30 -38 28 C-38.125 24.875 -38.125 24.875 -38 22 C-35.47255912 20.73627956 -33.73619692 20.87977205 -30.90771484 20.88647461 C-29.31629166 20.88658791 -29.31629166 20.88658791 -27.69271851 20.88670349 C-25.96923691 20.89444542 -25.96923691 20.89444542 -24.2109375 20.90234375 C-23.03737701 20.9037587 -21.86381653 20.90517365 -20.6546936 20.90663147 C-16.89477015 20.91224311 -13.13490555 20.92479762 -9.375 20.9375 C-6.83073002 20.9425135 -4.28645912 20.94707667 -1.7421875 20.95117188 C4.50522853 20.96221632 10.75261006 20.97896582 17 21 C16.14916998 19.0143543 15.26515126 17.04290531 14.3671875 15.078125 C13.87847168 13.97887695 13.38975586 12.87962891 12.88623047 11.74707031 C11.23041237 8.74849402 11.23041237 8.74849402 8.03515625 7.9921875 C5.29794765 7.76439296 2.73330664 7.74709618 0 8 C-1.125 2.25 -1.125 2.25 0 0 Z M-14 41 C-14 41.33 -14 41.66 -14 42 C-6.40655863 43.23546981 -6.40655863 43.23546981 0.6953125 40.93652344 C4.21420085 37.99774168 7.18914561 34.6107368 10 31 C10 30.67 10 30.34 10 30 C-1.97818715 28.11472094 -6.99324072 31.99933327 -14 41 Z M-49 50 C-51.35392186 53.75525327 -51.21381254 56.53157143 -50.59375 60.80859375 C-49.61664527 64.41488159 -48.05193688 65.92208553 -45 68 C-40.8320749 69.37215641 -37.84246324 69.28611959 -33.6875 67.875 C-30.65386826 65.75851274 -29.39873219 64.41912313 -28 61 C-27.46367111 55.99426368 -27.89291777 52.99482001 -31 49 C-33.61272312 46.19374184 -34.97968242 46.00229392 -38.875 45.5625 C-43.1659538 45.73061573 -45.72018157 47.18872706 -49 50 Z M25.1875 50.6875 C23.43398131 54.10224693 23.35121658 57.29266615 24 61 C26.0935109 65.03748531 27.76542739 67.35107136 32 69 C36.67166102 69.32592984 40.13764953 68.59286595 44 65.9375 C46.50598534 62.25683403 47.2955892 59.43383794 47 55 C45.7747927 51.39244516 44.66935191 49.55779326 41.75 47.125 C35.06700832 44.39104886 30.27210763 45.95355496 25.1875 50.6875 Z " fill="#004774" transform="translate(66,28)"/>
</svg>
