<?xml version="1.0" encoding="UTF-8"?>
<svg version="1.1" xmlns="http://www.w3.org/2000/svg" width="512" height="512">
<path d="M0 0 C0.92554688 0.7115625 1.85109375 1.423125 2.8046875 2.15625 C8.5100079 6.67102929 13.54254908 11.24969536 18 17 C18.78117187 17.99515625 19.56234375 18.9903125 20.3671875 20.015625 C29.65905227 32.21821587 36.44341589 46.03417579 40 61 C40.16624909 61.64277421 40.33249819 62.28554842 40.50378513 62.94780064 C42.79043439 73.2357151 42.30415128 83.78581978 42.30639648 94.26342773 C42.31402624 96.52141593 42.32245513 98.77940154 42.33161926 101.03738403 C42.35348481 107.14685275 42.36235194 113.25627145 42.36744571 119.36577487 C42.37109732 123.18733288 42.37734142 127.00887794 42.3844471 130.83043098 C42.40388265 141.43284468 42.42040972 152.03524762 42.42332363 162.6376791 C42.4235112 163.31429222 42.42369877 163.99090535 42.42389202 164.6880219 C42.42425825 166.05934973 42.42462195 167.43067757 42.42498314 168.8020054 C42.42516595 169.48262926 42.42534876 170.16325313 42.42553711 170.86450195 C42.42580793 171.88669761 42.42580793 171.88669761 42.42608423 172.92954368 C42.42962711 183.97535199 42.45666657 195.02096553 42.494035 206.06670629 C42.53218428 217.43505432 42.55104113 228.8032743 42.55178314 240.17169911 C42.55257487 246.54363591 42.56126696 252.91532078 42.58978081 259.28719902 C42.61600178 265.28000951 42.61814372 271.27235978 42.60212517 277.26520157 C42.60031419 279.45809625 42.60696943 281.65101766 42.62294388 283.8438549 C42.7301967 299.52869469 41.84816145 311.02160959 30.3828125 322.80859375 C19.0754294 333.20767886 7.20422727 334.45256442 -7.66159058 334.38768005 C-9.22924719 334.39185926 -10.79690077 334.39733998 -12.3645488 334.40399987 C-16.647257 334.41839626 -20.9297718 334.41422801 -25.21249032 334.40683305 C-29.84110056 334.40208925 -34.46966968 334.41462194 -39.0982666 334.42485046 C-48.15635706 334.44202008 -57.21437809 334.44288228 -66.27248059 334.43763756 C-73.63719804 334.43359119 -81.00189501 334.43504496 -88.36661148 334.44038582 C-89.94070171 334.44150845 -89.94070171 334.44150845 -91.54659174 334.44265376 C-93.67864036 334.44418529 -95.81068898 334.44572364 -97.94273759 334.44726873 C-117.92310276 334.46098714 -137.90342874 334.45556072 -157.88379301 334.44408352 C-176.14875408 334.43415191 -194.41361384 334.44709176 -212.67855929 334.47101771 C-231.44961683 334.4954207 -250.22062721 334.50501362 -268.99170029 334.49836498 C-279.52358899 334.49487543 -290.05539978 334.49708746 -300.58727646 334.51461601 C-309.55277872 334.52935297 -318.51814822 334.52995388 -327.48364793 334.5125451 C-332.05441947 334.50404506 -336.62495399 334.50186117 -341.19571304 334.51719666 C-345.38670028 334.53108344 -349.57724833 334.52622971 -353.76821043 334.50695742 C-355.27752294 334.50320929 -356.78687098 334.50608486 -358.29615174 334.51656907 C-371.0760804 334.5989734 -383.38851253 333.14113808 -393 324 C-393.68835938 323.35160156 -394.37671875 322.70320313 -395.0859375 322.03515625 C-407.06920622 309.71778152 -406.72803356 296.62145153 -406.64697266 280.43945312 C-406.6537564 278.16160892 -406.66266377 275.8837702 -406.67352295 273.60594177 C-406.69623241 267.44681423 -406.68751422 261.2881075 -406.67162752 255.12897301 C-406.6589253 248.66836835 -406.67072063 242.20779853 -406.67855835 235.74719238 C-406.68822335 224.20608346 -406.67273303 212.66518875 -406.64726166 201.12411338 C-406.62492581 190.68079245 -406.62880688 180.23774951 -406.65185547 169.79443359 C-406.67867247 157.63812696 -406.68854169 145.48203824 -406.67379415 133.32569647 C-406.66601873 126.90127233 -406.66490565 120.47703925 -406.68147659 114.05262756 C-406.69597225 108.01132817 -406.68580596 101.97055119 -406.65700531 95.92930794 C-406.65042178 93.71869332 -406.65224503 91.50803436 -406.66331863 89.29743767 C-406.73450273 73.63747781 -405.89563445 61.97837647 -394.44921875 50.19140625 C-381.52535902 38.62795281 -367.07939604 38.564151 -350.6574707 38.65942383 C-348.60661329 38.66027113 -346.55575496 38.65979295 -344.50489807 38.65809631 C-338.96432316 38.65723895 -333.42394486 38.67482275 -327.88341546 38.69581819 C-322.08319116 38.71462824 -316.28296189 38.71633884 -310.48271179 38.71989441 C-299.5111682 38.72920217 -288.53971476 38.75379878 -277.56821078 38.78394288 C-265.0724383 38.81752641 -252.57666142 38.83398284 -240.08085501 38.84902918 C-214.38718678 38.88034945 -188.69359845 38.93308524 -163 39 C-162.55321899 37.60128662 -162.55321899 37.60128662 -162.09741211 36.17431641 C-158.40260532 25.48691308 -149.69738288 16.98850932 -142 9 C-141.40574219 8.34257813 -140.81148438 7.68515625 -140.19921875 7.0078125 C-104.86282315 -31.04676737 -39.37060254 -30.66489175 0 0 Z M-134 24.69140625 C-151.66316597 45.07994354 -158.75268155 68.43263033 -157.24365234 95.11328125 C-156.66267622 101.99650938 -155.17741957 108.45773017 -153 115 C-152.68651611 115.96123779 -152.68651611 115.96123779 -152.36669922 116.94189453 C-144.71686218 139.67365748 -129.21194491 157.08140978 -108.125 168.3125 C-83.43565159 179.87130635 -56.8704498 180.66945014 -31.24609375 171.68359375 C-9.20655003 162.80487526 8.25406898 146.32262173 17.6875 124.5078125 C27.1793107 99.13981842 28.66475288 72.67788314 17.29516602 47.65478516 C5.73559822 23.77745679 -14.44664889 7.38103865 -39.25 -1.375 C-73.60183572 -11.7818564 -109.2405135 -0.91669168 -134 24.69140625 Z M-379 60 C-379.56323188 60.35809628 -380.12646376 60.71619255 -380.70676327 61.08514023 C-384.93206347 64.15032652 -387.3580553 68.13310752 -389 73 C-390.42426407 81.79133718 -390.42426407 81.79133718 -390 98 C-318.72 98 -247.44 98 -174 98 C-173.67 89.42 -173.34 80.84 -173 72 C-171.2421875 61.171875 -171.2421875 61.171875 -170 56 C-195.92128891 55.90652235 -221.84255253 55.83600389 -247.7639761 55.79275131 C-259.79998347 55.77213381 -271.83588606 55.74402858 -283.87182617 55.69824219 C-294.36342234 55.65834975 -304.85494261 55.63256128 -315.34661251 55.62364602 C-320.9009189 55.6184354 -326.45500817 55.60620514 -332.00924492 55.57707977 C-337.24015798 55.54987282 -342.47076507 55.54156576 -347.70174217 55.54756927 C-349.61853449 55.54647141 -351.53533733 55.53854913 -353.45206833 55.5231781 C-366.82913081 55.110475 -366.82913081 55.110475 -379 60 Z M-390 115 C-390.04125 144.16375 -390.0825 173.3275 -390.125 203.375 C-390.14320801 212.57681152 -390.16141602 221.77862305 -390.18017578 231.25927734 C-390.18686547 239.52192613 -390.18686547 239.52192613 -390.19088745 247.78457642 C-390.19274752 251.45916163 -390.20022974 255.13368881 -390.21115112 258.80825806 C-390.22491699 263.50239625 -390.22897347 268.19645061 -390.22614455 272.89060712 C-390.22673569 274.60898281 -390.23067324 276.32736158 -390.23843026 278.04571986 C-390.72694371 294.6760131 -390.72694371 294.6760131 -383.78125 309.2421875 C-377.76144404 315.18278549 -371.97609426 317.12230336 -363.65802383 317.13142776 C-361.68884282 317.13718948 -361.68884282 317.13718948 -359.67988038 317.1430676 C-358.21938716 317.14228735 -356.75889399 317.14140856 -355.29840088 317.14044189 C-353.74972451 317.1430254 -352.20104881 317.14603852 -350.65237403 317.1494453 C-346.38986124 317.15752019 -342.12736529 317.15930514 -337.86484575 317.16004276 C-333.27030516 317.16189246 -328.67577333 317.16943936 -324.08123779 317.17617798 C-314.03167243 317.18976517 -303.98211105 317.19578659 -293.93253803 317.20018864 C-287.65887937 317.20295033 -281.38522225 317.20718755 -275.11156464 317.21169281 C-257.74538901 317.22388585 -240.37921463 317.23418518 -223.01303482 317.2375679 C-221.90136597 317.23778747 -220.78969712 317.23800703 -219.64434133 317.23823325 C-217.97282478 317.23856067 -217.97282478 317.23856067 -216.26754022 317.2388947 C-214.00941483 317.23933817 -211.75128945 317.23978473 -209.49316406 317.24023438 C-207.81299807 317.24056652 -207.81299807 317.24056652 -206.09888932 317.24090537 C-187.94652331 317.24485392 -169.79419743 317.26230951 -151.64184693 317.2855939 C-133.0100356 317.30930061 -114.37824442 317.32176944 -95.74641776 317.32293582 C-85.28333841 317.32385295 -74.82031135 317.32961481 -64.3572464 317.34775543 C-55.44818395 317.36314721 -46.53918995 317.36828232 -37.63011673 317.36001733 C-33.08434812 317.3561076 -28.53871739 317.3570562 -23.9929657 317.37107468 C-19.83040802 317.38379409 -15.66809211 317.38263336 -11.50553486 317.37048396 C-10.00080911 317.36852357 -8.49606634 317.37162122 -6.99136451 317.38032833 C3.25561019 317.43586264 11.59458563 316.99009681 19.4609375 309.734375 C25.39409628 303.04827728 26.12762595 295.21573992 26.12025452 286.53956604 C26.12162918 285.28464859 26.12300385 284.02973114 26.12442017 282.73678589 C26.12088198 281.3643186 26.11724718 279.99185157 26.11352539 278.61938477 C26.11324303 277.16024274 26.11340221 275.70110057 26.1139679 274.24195862 C26.11425395 270.29620543 26.10838827 266.35048285 26.10139394 262.40473676 C26.09512842 258.27543625 26.09455407 254.14613498 26.09336853 250.01683044 C26.09026463 242.20429444 26.08206395 234.39177248 26.07201904 226.57924265 C26.06082864 217.68203267 26.05534008 208.78482201 26.05032361 199.88760674 C26.03988054 181.59172987 26.02229936 163.29586607 26 145 C23.23567409 147.72425803 20.7798005 150.4656329 18.4375 153.5625 C16.79699687 155.72913331 15.24274555 157.76610166 13.28515625 159.65234375 C11.76995785 160.93086226 11.76995785 160.93086226 12 163 C11.14341797 163.36931641 11.14341797 163.36931641 10.26953125 163.74609375 C7.63007863 165.20437996 5.84176687 166.95288115 3.6875 169.0625 C-17.56110858 188.44172953 -46.34881125 194.9308749 -74.38916016 194.13183594 C-97.46328153 192.96669422 -119.70378654 182.99652965 -137 168 C-137.58523438 167.55785156 -138.17046875 167.11570312 -138.7734375 166.66015625 C-154.15603258 154.78017085 -165.36183227 133.55267092 -170 115 C-242.6 115 -315.2 115 -390 115 Z " fill="#D50000" transform="translate(438,100)"/>
<path d="M0 0 C3.16636344 2.34650148 6.04761297 4.84109937 8.9375 7.51953125 C10.38769531 8.85757813 10.38769531 8.85757813 11.8671875 10.22265625 C12.59164062 10.898125 13.31609375 11.57359375 14.0625 12.26953125 C17.89573532 10.68429141 20.36098637 8.20343237 23.3125 5.33203125 C28.41213997 0.57953595 32.45650919 -2.58675609 39.56640625 -2.80859375 C49.40767901 -2.280597 54.66034461 3.52441727 61.3125 10.20703125 C62.39144531 11.26180664 62.39144531 11.26180664 63.4921875 12.33789062 C64.18054688 13.02560547 64.86890625 13.71332031 65.578125 14.421875 C66.19977539 15.04054443 66.82142578 15.65921387 67.46191406 16.29663086 C71.39907937 21.1496255 71.56559706 26.25445268 71.42578125 32.28125 C70.32230294 41.35824904 62.35227211 47.30951418 56.0625 53.26953125 C56.908125 54.25953125 57.75375 55.24953125 58.625 56.26953125 C59.16769531 56.90503906 59.71039063 57.54054687 60.26953125 58.1953125 C61.4834114 59.59960522 62.71045331 60.99260958 63.94921875 62.375 C64.56410156 63.06207031 65.17898438 63.74914062 65.8125 64.45703125 C66.38484375 65.08996094 66.9571875 65.72289062 67.546875 66.375 C70.78220307 70.41916009 71.37704046 73.45710251 71.4375 78.64453125 C71.46585937 79.74539062 71.49421875 80.84625 71.5234375 81.98046875 C70.48047477 89.42262655 64.29102983 94.37691211 59.1875 99.45703125 C58.49269531 100.16794922 57.79789062 100.87886719 57.08203125 101.61132812 C52.71400731 105.98346508 48.83416755 109.68308294 42.5 110.66796875 C41.695625 110.66023438 40.89125 110.6525 40.0625 110.64453125 C38.8559375 110.65613281 38.8559375 110.65613281 37.625 110.66796875 C31.92441393 109.78159714 27.99974392 106.60650233 23.875 102.76953125 C23.03582031 101.99609375 22.19664062 101.22265625 21.33203125 100.42578125 C19.54812259 98.73091451 17.78814979 97.02328609 16.0625 95.26953125 C11.49985076 97.18356778 8.72781544 100.54284174 5.37890625 104.078125 C0.15074704 109.02415757 -4.66247552 110.68016498 -11.81274414 110.54052734 C-19.61864761 109.54494503 -25.04647269 103.72227625 -30.25 98.33203125 C-30.95189453 97.62884766 -31.65378906 96.92566406 -32.37695312 96.20117188 C-37.73448638 90.75170764 -41.41724852 86.40072214 -41.984375 78.58984375 C-41.7712211 68.0387257 -32.91169537 61.19606697 -25.9375 54.26953125 C-27.175 52.81546875 -27.175 52.81546875 -28.4375 51.33203125 C-29.24960937 50.36910156 -29.24960937 50.36910156 -30.078125 49.38671875 C-31.35466371 47.93318098 -32.68150173 46.52277396 -34.046875 45.15234375 C-39.15256059 39.91622093 -41.75700024 35.69408787 -41.9375 28.26953125 C-41.61118522 21.15586914 -37.74672336 17.14543362 -32.9375 12.26953125 C-31.98696921 11.24861584 -31.03784519 10.22638954 -30.08984375 9.203125 C-21.72811014 0.32112358 -12.2668428 -7.22634489 0 0 Z M-9.9375 14.26953125 C-12.62747212 16.57717231 -15.28882333 18.91462552 -17.9375 21.26953125 C-18.56527344 21.81738281 -19.19304687 22.36523438 -19.83984375 22.9296875 C-21.71025573 24.59288461 -21.71025573 24.59288461 -23.9375 27.26953125 C-23.46175829 32.4395943 -18.99756795 35.34735413 -15.41796875 38.671875 C-11.46680842 42.44914563 -8.48722318 46.03586551 -7.5390625 51.61328125 C-7.54679687 52.32484375 -7.55453125 53.03640625 -7.5625 53.76953125 C-7.55476563 54.48109375 -7.54703125 55.19265625 -7.5390625 55.92578125 C-8.82139149 63.46889296 -14.19260514 67.71468981 -19.55078125 72.58984375 C-20.12699219 73.13640625 -20.70320313 73.68296875 -21.296875 74.24609375 C-21.82764648 74.73158691 -22.35841797 75.21708008 -22.90527344 75.71728516 C-24.14825519 77.2384657 -24.14825519 77.2384657 -23.77270508 79.27001953 C-22.8573568 81.46139702 -21.9145321 82.63914226 -20.21484375 84.28515625 C-19.67666016 84.81367188 -19.13847656 85.3421875 -18.58398438 85.88671875 C-18.02001953 86.42554688 -17.45605469 86.964375 -16.875 87.51953125 C-16.30716797 88.07382813 -15.73933594 88.628125 -15.15429688 89.19921875 C-13.75537531 90.56287339 -12.34730886 91.91713542 -10.9375 93.26953125 C-7.42207971 91.92515437 -5.30438349 89.70537277 -2.77661133 86.97705078 C6.6854572 76.78107801 6.6854572 76.78107801 14.0625 76.26953125 C21.43890729 76.19105883 25.63557412 79.99483606 30.75390625 84.9375 C31.51574219 85.70707031 32.27757812 86.47664063 33.0625 87.26953125 C33.71089844 87.90503906 34.35929687 88.54054688 35.02734375 89.1953125 C36.38849591 90.5372484 37.72858727 91.90051555 39.0625 93.26953125 C43.05682781 91.64892092 45.85808321 88.87613952 48.875 85.89453125 C49.38998047 85.41242188 49.90496094 84.9303125 50.43554688 84.43359375 C52.09563673 82.85581842 52.09563673 82.85581842 54.0625 80.26953125 C53.54089361 75.09022702 49.13763993 72.20570634 45.54296875 68.8671875 C41.59180842 65.08991687 38.61222318 61.50319699 37.6640625 55.92578125 C37.67179687 55.21421875 37.67953125 54.50265625 37.6875 53.76953125 C37.67589844 52.7021875 37.67589844 52.7021875 37.6640625 51.61328125 C38.94639149 44.07016954 44.31760514 39.82437269 49.67578125 34.94921875 C50.25199219 34.40265625 50.82820313 33.85609375 51.421875 33.29296875 C51.95264648 32.80747559 52.48341797 32.32198242 53.03027344 31.82177734 C54.27325519 30.3005968 54.27325519 30.3005968 53.89770508 28.26904297 C52.9823568 26.07766548 52.0395321 24.89992024 50.33984375 23.25390625 C49.80166016 22.72539062 49.26347656 22.196875 48.70898438 21.65234375 C48.14501953 21.11351562 47.58105469 20.5746875 47 20.01953125 C46.43216797 19.46523437 45.86433594 18.9109375 45.27929688 18.33984375 C43.88037531 16.97618911 42.47230886 15.62192708 41.0625 14.26953125 C37.54707971 15.61390813 35.42938349 17.83368973 32.90161133 20.56201172 C23.4395428 30.75798449 23.4395428 30.75798449 16.0625 31.26953125 C8.67874903 31.34808179 4.55263844 27.54886046 -0.5625 22.6015625 C-1.34625 21.83199219 -2.13 21.06242187 -2.9375 20.26953125 C-4.30115868 19.06902459 -5.67462103 17.8794532 -7.0625 16.70703125 C-8.01125 15.90265625 -8.96 15.09828125 -9.9375 14.26953125 Z " fill="#D50000" transform="translate(356.9375,132.73046875)"/>
<path d="M0 0 C0.82537262 -0.01022186 1.65074524 -0.02044373 2.50112915 -0.03097534 C5.21215341 -0.05862921 7.9221528 -0.05686478 10.63330078 -0.05224609 C12.5298805 -0.06002799 14.42645676 -0.06869897 16.32302856 -0.07821655 C20.29229037 -0.0931114 24.26119632 -0.09258059 28.23046875 -0.08203125 C33.30024514 -0.07044853 38.36855855 -0.10429793 43.43809319 -0.1507206 C47.35369282 -0.18028276 51.26894369 -0.181927 55.18463516 -0.17570114 C57.05283631 -0.17672332 58.92105808 -0.18711888 60.78915024 -0.20732498 C78.73658935 -0.37763418 78.73658935 -0.37763418 84.87005615 4.80627441 C89.56600018 9.97516128 91.07285384 14.77878532 91.05517578 21.79150391 C91.06374603 22.55931183 91.07231628 23.32711975 91.08114624 24.11819458 C91.092568 25.7333789 91.09368128 27.34866602 91.08496094 28.96386719 C91.0786447 31.41213691 91.1255941 33.85555025 91.17626953 36.30322266 C91.24041393 44.23345356 91.23286932 50.49489788 86.0859375 56.97363281 C79.72958236 63.10942643 72.62578119 63.66915314 64.10644531 63.69458008 C63.39665527 63.69793869 62.68686523 63.7012973 61.95556641 63.70475769 C59.62416808 63.71420637 57.29284203 63.71620768 54.96142578 63.71728516 C53.33006766 63.72050181 51.69870982 63.72386618 50.06735229 63.72737122 C46.65296765 63.73334716 43.23860826 63.73521268 39.82421875 63.73461914 C35.46441096 63.73451757 31.10476621 63.7481714 26.74499702 63.76539135 C23.37681342 63.77654799 20.00866879 63.77853723 16.6404686 63.77800941 C15.03382683 63.77918394 13.42718388 63.78357591 11.82056046 63.79134178 C9.56678312 63.8012167 7.3133541 63.7982345 5.05957031 63.79223633 C3.78083038 63.79366135 2.50209045 63.79508636 1.18460083 63.79655457 C-4.21136768 63.43898454 -9.81908447 62.60896878 -14.29638672 59.36181641 C-14.82748047 58.99701172 -15.35857422 58.63220703 -15.90576172 58.25634766 C-20.78801609 53.17647823 -22.16534494 48.20784842 -22.14794922 41.30712891 C-22.15651947 40.53932098 -22.16508972 39.77151306 -22.17391968 38.98043823 C-22.18534144 37.36525391 -22.18645472 35.74996679 -22.17773438 34.13476562 C-22.17141814 31.6864959 -22.21836754 29.24308256 -22.26904297 26.79541016 C-22.33430033 19.07000309 -22.34476313 12.69004279 -17.52050781 6.27148438 C-11.86951831 1.34171935 -7.30132093 -0.04729881 0 0 Z M-3.54638672 17.54931641 C-6.51922405 22.00857241 -5.9146646 26.24020076 -5.92138672 31.48681641 C-5.94587891 32.4890625 -5.97037109 33.49130859 -5.99560547 34.52392578 C-5.99947266 35.49007812 -6.00333984 36.45623047 -6.00732422 37.45166016 C-6.01554199 38.33329834 -6.02375977 39.21493652 -6.03222656 40.12329102 C-5.36672933 43.44642971 -4.20702457 44.4705297 -1.54638672 46.54931641 C1.7306638 47.15588389 1.7306638 47.15588389 5.45361328 47.06689453 C6.1500293 47.07390381 6.84644531 47.08091309 7.56396484 47.08813477 C9.8609226 47.10570836 12.15664349 47.0940956 14.45361328 47.08056641 C16.05257402 47.08326154 17.65153315 47.08714413 19.25048828 47.09216309 C22.59960554 47.09805722 25.94829571 47.08949833 29.29736328 47.07080078 C33.58839919 47.04801076 37.87843439 47.06113437 42.16943359 47.08509064 C45.47061694 47.0995512 48.77156339 47.09494156 52.07275391 47.08457947 C53.65478636 47.08191287 55.23684039 47.08517963 56.81884766 47.09449768 C59.03101491 47.10466819 61.24156628 47.08915831 63.45361328 47.06689453 C64.71173828 47.06371216 65.96986328 47.06052979 67.26611328 47.05725098 C71.0140606 46.46000799 72.20027111 45.54734726 74.45361328 42.54931641 C75.03073526 40.09901698 75.03073526 40.09901698 74.91455078 37.45166016 C74.91068359 36.48550781 74.90681641 35.51935547 74.90283203 34.52392578 C74.87833984 33.52167969 74.85384766 32.51943359 74.82861328 31.48681641 C74.82732422 30.48070312 74.82603516 29.47458984 74.82470703 28.43798828 C74.89155135 22.65653505 74.89155135 22.65653505 72.45361328 17.54931641 C69.98107922 17.2466744 67.75714268 17.13966792 65.28173828 17.16113281 C64.17421204 17.15324738 64.17421204 17.15324738 63.04431152 17.14520264 C60.59719859 17.13197002 58.15073313 17.14075184 55.70361328 17.15087891 C54.00732294 17.1488591 52.31103345 17.14594844 50.61474609 17.1421814 C47.05704493 17.13775364 43.49956949 17.1442035 39.94189453 17.15820312 C35.37500035 17.1752954 30.80863502 17.16545661 26.24176025 17.14748573 C22.7382405 17.13666 19.23484673 17.14008863 15.73132324 17.14786911 C14.0471592 17.14987448 12.36298382 17.14740008 10.67883301 17.14043045 C8.32740864 17.13283565 5.97684809 17.14439145 3.62548828 17.16113281 C2.92516479 17.15506012 2.22484131 17.14898743 1.5032959 17.14273071 C-0.63609266 17.13604594 -0.63609266 17.13604594 -3.54638672 17.54931641 Z " fill="#D50000" transform="translate(109.54638671875,236.45068359375)"/>
<path d="M0 0 C0.79053904 -0.00297112 1.58107808 -0.00594224 2.39557284 -0.0090034 C5.05325121 -0.01769776 7.71088457 -0.01919927 10.36857605 -0.02069092 C12.27059017 -0.02531856 14.17260337 -0.03034315 16.07461548 -0.03573608 C21.24822906 -0.04886706 26.42182967 -0.05530637 31.59545732 -0.05974674 C34.82661696 -0.06267627 38.05777304 -0.06678085 41.28893089 -0.07125092 C51.39527298 -0.08492753 61.50160696 -0.09459345 71.60795766 -0.09845281 C83.28025325 -0.10293445 94.95243179 -0.12048666 106.62469178 -0.1494534 C115.64303288 -0.1710583 124.66134101 -0.18115645 133.67970771 -0.18249393 C139.06782667 -0.18354278 144.45583563 -0.18946784 149.84392738 -0.20731354 C154.91233517 -0.22377363 159.98055002 -0.22595972 165.04897499 -0.21717453 C166.90896623 -0.21640306 168.76896775 -0.22076135 170.62893295 -0.23063278 C173.16894939 -0.24332258 175.70827942 -0.23749179 178.24829102 -0.22705078 C178.98361158 -0.23510719 179.71893214 -0.24316359 180.47653514 -0.25146413 C185.1423603 -0.20663517 188.35678597 0.66206078 192.31462097 3.14044189 C193.8793333 6.26986655 194.01164055 9.75126413 193.31462097 13.14044189 C191.79093933 15.23809052 191.79093933 15.23809052 189.31462097 17.14044189 C186.50146543 17.5332969 184.07973834 17.68122638 181.26774597 17.64837646 C180.45044006 17.65461643 179.63313416 17.66085639 178.7910614 17.66728544 C176.04862233 17.68325791 173.30706685 17.6705948 170.56462097 17.65802002 C168.60009746 17.66343925 166.63557801 17.67056079 164.67106628 17.67926025 C159.33226081 17.69752013 153.99376398 17.69041502 148.654953 17.67774391 C143.07275041 17.66763007 137.49057458 17.67700509 131.90837097 17.68328857 C122.53332261 17.69056969 113.15840022 17.68096507 103.78337097 17.66192627 C92.93829758 17.6401567 82.09352496 17.64720774 71.24845886 17.66923189 C61.9439079 17.68737264 52.63944758 17.68995069 43.33488464 17.67947721 C37.7746945 17.67323501 32.21464582 17.67242666 26.65446472 17.68562317 C21.42755526 17.69716172 16.20103428 17.68919232 10.97416687 17.66604614 C9.0536819 17.66074839 7.13316435 17.66229097 5.21269226 17.6710968 C2.59518259 17.6819939 -0.02107463 17.66836 -2.63850403 17.64837646 C-3.40231384 17.65729935 -4.16612366 17.66622224 -4.95307922 17.67541552 C-8.46145806 17.62329776 -10.339255 17.40766604 -13.15510559 15.23369598 C-15.27378249 12.33556747 -15.255002 10.52516545 -15.07991028 7.04278564 C-14.47149795 4.10915394 -13.07391389 2.84653822 -10.68537903 1.14044189 C-7.06878398 -0.06508979 -3.76463917 -0.00439614 0 0 Z " fill="#D40000" transform="translate(102.68537902832031,369.85955810546875)"/>
<path d="M0 0 C1.04269043 -0.00574036 1.04269043 -0.00574036 2.10644531 -0.01159668 C3.57228041 -0.0143118 5.03816428 -0.00697835 6.50390625 0.00976562 C8.74328975 0.03118581 10.97946587 0.00995557 13.21875 -0.015625 C14.64584039 -0.01298165 16.07292879 -0.0078565 17.5 0 C19.44132812 0.00676758 19.44132812 0.00676758 21.421875 0.01367188 C25.25919979 0.61043894 26.44070951 1.47408051 28.75 4.53125 C29.47804951 7.27214228 29.32443241 9.76146206 28.75 12.53125 C26.54259319 15.49983157 25.26402627 16.35990791 21.75 17.53125 C17.4834685 17.79244199 13.21116425 17.7626991 8.9375 17.78125 C7.76123047 17.801875 6.58496094 17.8225 5.37304688 17.84375 C-5.57419894 17.89325705 -5.57419894 17.89325705 -10.25 14.53125 C-11.81471233 11.40182535 -11.94701958 7.92042777 -11.25 4.53125 C-7.965637 0.15583639 -5.31676963 0.01853456 0 0 Z " fill="#D50000" transform="translate(267.25,337.46875)"/>
<path d="M0 0 C1.04269043 -0.00574036 1.04269043 -0.00574036 2.10644531 -0.01159668 C3.57228041 -0.0143118 5.03816428 -0.00697835 6.50390625 0.00976562 C8.74328975 0.03118581 10.97946587 0.00995557 13.21875 -0.015625 C14.64584039 -0.01298165 16.07292879 -0.0078565 17.5 0 C19.44132812 0.00676758 19.44132812 0.00676758 21.421875 0.01367188 C25.25919979 0.61043894 26.44070951 1.47408051 28.75 4.53125 C29.47804951 7.27214228 29.32443241 9.76146206 28.75 12.53125 C26.54259319 15.49983157 25.26402627 16.35990791 21.75 17.53125 C17.4834685 17.79244199 13.21116425 17.7626991 8.9375 17.78125 C7.76123047 17.801875 6.58496094 17.8225 5.37304688 17.84375 C-5.57419894 17.89325705 -5.57419894 17.89325705 -10.25 14.53125 C-11.81471233 11.40182535 -11.94701958 7.92042777 -11.25 4.53125 C-7.965637 0.15583639 -5.31676963 0.01853456 0 0 Z " fill="#D50000" transform="translate(211.25,337.46875)"/>
<path d="M0 0 C1.04269043 -0.00574036 1.04269043 -0.00574036 2.10644531 -0.01159668 C3.57228041 -0.0143118 5.03816428 -0.00697835 6.50390625 0.00976562 C8.74328975 0.03118581 10.97946587 0.00995557 13.21875 -0.015625 C14.64584039 -0.01298165 16.07292879 -0.0078565 17.5 0 C19.44132812 0.00676758 19.44132812 0.00676758 21.421875 0.01367188 C25.25919979 0.61043894 26.44070951 1.47408051 28.75 4.53125 C29.47804951 7.27214228 29.32443241 9.76146206 28.75 12.53125 C26.54259319 15.49983157 25.26402627 16.35990791 21.75 17.53125 C17.4834685 17.79244199 13.21116425 17.7626991 8.9375 17.78125 C7.76123047 17.801875 6.58496094 17.8225 5.37304688 17.84375 C-5.57419894 17.89325705 -5.57419894 17.89325705 -10.25 14.53125 C-11.81471233 11.40182535 -11.94701958 7.92042777 -11.25 4.53125 C-7.965637 0.15583639 -5.31676963 0.01853456 0 0 Z " fill="#D50000" transform="translate(155.25,337.46875)"/>
<path d="M0 0 C1.04269043 -0.00574036 1.04269043 -0.00574036 2.10644531 -0.01159668 C3.57228041 -0.0143118 5.03816428 -0.00697835 6.50390625 0.00976562 C8.74328975 0.03118581 10.97946587 0.00995557 13.21875 -0.015625 C14.64584039 -0.01298165 16.07292879 -0.0078565 17.5 0 C19.44132812 0.00676758 19.44132812 0.00676758 21.421875 0.01367188 C25.25919979 0.61043894 26.44070951 1.47408051 28.75 4.53125 C29.47804951 7.27214228 29.32443241 9.76146206 28.75 12.53125 C26.54259319 15.49983157 25.26402627 16.35990791 21.75 17.53125 C17.4834685 17.79244199 13.21116425 17.7626991 8.9375 17.78125 C7.76123047 17.801875 6.58496094 17.8225 5.37304688 17.84375 C-5.57419894 17.89325705 -5.57419894 17.89325705 -10.25 14.53125 C-11.81471233 11.40182535 -11.94701958 7.92042777 -11.25 4.53125 C-7.965637 0.15583639 -5.31676963 0.01853456 0 0 Z " fill="#D50000" transform="translate(99.25,337.46875)"/>
<path d="M0 0 C2.46220488 3.69330732 2.67270703 6.7136488 2 11 C0.5 13.5 0.5 13.5 -2 15 C-6.02098277 15.791013 -8.96411027 15.62153384 -12.5 13.5 C-14.60819617 9.98633972 -14.82934956 6.99894292 -14 3 C-9.85157448 -2.57891707 -6.21013744 -2.2582318 0 0 Z " fill="#D50000" transform="translate(422,372)"/>
<path d="M0 0 C2.46220488 3.69330732 2.67270703 6.7136488 2 11 C0.5 13.5 0.5 13.5 -2 15 C-6.02098277 15.791013 -8.96411027 15.62153384 -12.5 13.5 C-14.60819617 9.98633972 -14.82934956 6.99894292 -14 3 C-9.85157448 -2.57891707 -6.21013744 -2.2582318 0 0 Z " fill="#D50000" transform="translate(390,372)"/>
<path d="M0 0 C2.46220488 3.69330732 2.67270703 6.7136488 2 11 C0.5 13.5 0.5 13.5 -2 15 C-6.02098277 15.791013 -8.96411027 15.62153384 -12.5 13.5 C-14.60819617 9.98633972 -14.82934956 6.99894292 -14 3 C-9.85157448 -2.57891707 -6.21013744 -2.2582318 0 0 Z " fill="#D50000" transform="translate(358,372)"/>
</svg>
