<?xml version="1.0" encoding="UTF-8"?>
<svg version="1.1" xmlns="http://www.w3.org/2000/svg" width="512" height="512">
<path d="M0 0 C1.38188845 -0.0030255 2.76377523 -0.00691697 4.14565909 -0.01159257 C7.91945467 -0.02182996 11.69315479 -0.01970168 15.46695805 -0.01541197 C19.54613316 -0.01293698 23.62528575 -0.02196847 27.70445251 -0.02944946 C35.68683042 -0.04217692 43.66917466 -0.0439926 51.65156101 -0.0416492 C58.1419749 -0.03986374 64.63237861 -0.04162056 71.12279129 -0.04587364 C72.04771773 -0.04646883 72.97264417 -0.04706402 73.92559869 -0.04767724 C75.80478957 -0.04888904 77.68398046 -0.05010317 79.56317134 -0.05131962 C97.17285934 -0.06218758 114.78252816 -0.06003616 132.39221723 -0.05393478 C148.48838301 -0.04876594 164.58448825 -0.06002152 180.68064205 -0.07903299 C197.22440385 -0.09842276 213.76813704 -0.10666542 230.31191027 -0.10290974 C239.59348266 -0.10099947 248.87500353 -0.10346833 258.15656662 -0.11762428 C266.05783988 -0.12955353 273.95902991 -0.13092564 281.86030434 -0.11883412 C285.88814456 -0.11295635 289.91583267 -0.11181536 293.94366264 -0.12383652 C297.63743282 -0.13473218 301.33092453 -0.13154864 305.02468188 -0.11757483 C306.97978047 -0.11369766 308.93489161 -0.12444481 310.88996065 -0.13587171 C324.12736444 -0.05534593 336.5723286 2.65491965 346.69155884 11.70600891 C357.10615238 22.72996697 359.7731995 34.87759966 359.66201782 49.68647766 C359.66581086 51.09061217 359.67131896 52.49474292 359.6783905 53.89886475 C359.69222401 57.67325841 359.6812665 61.44719014 359.66467929 65.22155762 C359.65073047 69.18480199 359.65729914 73.14802222 359.66081238 77.11128235 C359.66350426 83.7550748 359.65011868 90.39868549 359.62686157 97.04243469 C359.60017041 104.72028718 359.59853623 112.3978377 359.61024994 120.07572079 C359.62102478 127.47932735 359.61484864 134.88282484 359.60069466 142.28642273 C359.5949411 145.43148888 359.59501233 148.57647505 359.59976006 151.72154236 C359.60452988 155.4186197 359.59442846 159.11536557 359.5728054 162.81237984 C359.56458611 164.81535381 359.57108786 166.8183712 359.57800293 168.8213501 C359.5680983 170.01273087 359.55819366 171.20411163 359.54798889 172.43159485 C359.54434405 173.98448212 359.54434405 173.98448212 359.54062557 175.56874084 C359.09943591 178.6915668 358.41387326 180.0689427 356.16030884 182.26069641 C352.996817 182.71991297 351.17240272 182.93797196 348.16030884 182.26069641 C345.59780884 180.19819641 345.59780884 180.19819641 343.16030884 177.26069641 C341.94182998 176.02093407 340.71213338 174.79212055 339.47280884 173.57319641 C337.7019755 171.80236308 335.93114217 170.03152974 334.16030884 168.26069641 C330.73412059 171.59802099 327.36279333 174.91661375 324.34780884 178.63569641 C321.64571932 181.87820383 321.02424092 182.16289278 316.84780884 182.63569641 C312.10476849 182.15335332 311.2114207 180.84575285 308.16030884 177.26069641 C306.9404789 176.0222634 305.71087755 174.79339609 304.47280884 173.57319641 C302.7019755 171.80236308 300.93114217 170.03152974 299.16030884 168.26069641 C298.03218581 169.3616721 296.90793073 170.46661197 295.78530884 171.57319641 C295.15882446 172.18807922 294.53234009 172.80296204 293.88687134 173.43647766 C290.50341793 177.01130287 289.90745397 179.17098414 289.88183594 183.97436523 C289.87067245 185.16488495 289.85950897 186.35540466 289.8480072 187.58200073 C289.84476692 189.54350319 289.84476692 189.54350319 289.84146118 191.54463196 C289.832164 192.93422531 289.82199564 194.32381306 289.8110199 195.71339417 C289.78368202 199.48787764 289.76855933 203.26232372 289.75559187 207.03688025 C289.73997785 210.98073611 289.71318215 214.9245154 289.68756104 218.86831665 C289.64074256 226.33741549 289.60401334 233.80652869 289.57088816 241.27569944 C289.53268843 249.77867745 289.48327266 258.28157862 289.43290401 266.7844919 C289.32953852 284.27650452 289.24029317 301.76856158 289.16030884 319.26069641 C290.37762695 319.22927551 290.37762695 319.22927551 291.61953735 319.19721985 C295.32050026 319.11372558 299.0212645 319.06192886 302.72280884 319.01069641 C303.99962524 318.97718079 305.27644165 318.94366516 306.59194946 318.90913391 C318.89343651 318.78132625 318.89343651 318.78132625 324.16030884 323.26069641 C329.33212573 329.49083535 328.72718666 336.08648137 328.67788696 343.90351868 C328.68331345 345.28396847 328.69043906 346.66441246 328.6991272 348.04484558 C328.7172996 351.77833151 328.710319 355.51137332 328.69761086 359.24486661 C328.68745347 363.15916684 328.69688392 367.07343014 328.70315552 370.98773193 C328.71042313 377.5588511 328.70086672 384.12979016 328.68179321 390.70088196 C328.66001698 398.29060079 328.66708463 405.8798899 328.68909883 413.46959835 C328.70726741 419.99550661 328.70980435 426.52128573 328.69934416 433.04721111 C328.69311835 436.94076164 328.69224847 440.83411034 328.70549011 444.72764778 C328.71706971 448.38780275 328.70898521 452.04740502 328.68591309 455.70750046 C328.67812691 457.68628943 328.68996327 459.66512531 328.7024231 461.64389038 C328.59949127 472.45357008 328.59949127 472.45357008 324.16030884 477.26069641 C319.3471245 481.71289193 315.9344419 482.38412854 309.51667023 482.39212418 C308.35961909 482.39596532 307.20256795 482.39980647 306.01045465 482.40376401 C304.10251761 482.40246429 304.10251761 482.40246429 302.15603638 482.40113831 C300.79170189 482.40372222 299.42736817 482.40673546 298.06303549 482.41014171 C294.30991394 482.41821222 290.55681152 482.42000131 286.80368233 482.42073917 C282.75712699 482.42258971 278.71058158 482.43013718 274.66403198 482.43687439 C265.81250711 482.45045994 256.96098677 482.45648315 248.1094532 482.46088505 C242.58084645 482.46364784 237.05224144 482.46788533 231.52363586 482.47238922 C216.21284342 482.48458359 200.90205238 482.49488165 185.59125519 482.49826431 C184.61116748 482.49848388 183.63107978 482.49870344 182.62129244 482.49892966 C181.63886762 482.49914794 180.6564428 482.49936622 179.64424753 482.49959111 C177.65350755 482.50003458 175.66276757 482.50048114 173.67202759 482.50093079 C172.68455321 482.50115222 171.69707884 482.50137365 170.679681 482.50160179 C154.68983455 482.50554724 138.70003373 482.52299278 122.7102049 482.54629031 C106.2886783 482.57002334 89.86717458 482.5824671 73.44563055 482.58363223 C64.22768004 482.58454804 55.00978897 482.5902765 45.79185486 482.60845184 C37.9398487 482.62387936 30.08792033 482.62895778 22.23590189 482.62071374 C18.23240206 482.61681623 14.22905873 482.61769257 10.22557831 482.63177109 C6.55377979 482.64456458 2.88225451 482.64326516 -0.78954393 482.63118038 C-2.73300354 482.62831662 -4.67646811 482.64011791 -6.61988974 482.65260243 C-19.61830818 482.57988268 -31.2964495 480.19056029 -41.09750366 471.18647766 C-48.15845274 463.72167356 -51.96897304 455.64203768 -51.95994568 445.35084534 C-51.96132034 444.14212265 -51.96269501 442.93339996 -51.96411133 441.68804932 C-51.96057246 440.3519132 -51.95693765 439.01577734 -51.95321655 437.67964172 C-51.95293443 436.27020266 -51.95309291 434.86076344 -51.95365906 433.45132446 C-51.95394604 429.62729024 -51.94806529 425.80328738 -51.9410851 421.97926044 C-51.9348351 417.98207063 -51.93424646 413.9848801 -51.93305969 409.98768616 C-51.92995124 402.41942022 -51.92174439 394.85116873 -51.9117102 387.28290915 C-51.90053399 378.66629551 -51.89503481 370.04968117 -51.89001477 361.43306208 C-51.87956138 343.708932 -51.86197133 325.98481537 -51.83969116 308.26069641 C-52.61079224 307.96880432 -53.38189331 307.67691223 -54.17636108 307.37617493 C-68.33171335 301.44751011 -79.55344089 285.24386159 -85.38265991 271.66694641 C-86.65871207 268.22422503 -87.79375396 264.77961875 -88.83969116 261.26069641 C-89.0859021 260.46792297 -89.33211304 259.67514954 -89.58578491 258.85835266 C-94.63937463 239.02736958 -90.05890093 217.40952321 -79.94271851 200.03852844 C-73.60619778 189.82548198 -64.30874267 180.28040103 -53.83969116 174.26069641 C-53.17969116 174.26069641 -52.51969116 174.26069641 -51.83969116 174.26069641 C-51.84337833 173.54931361 -51.84706551 172.83793081 -51.85086441 172.10499096 C-51.93937333 154.75984363 -52.00547734 137.414754 -52.04693985 120.06943035 C-52.06752606 111.68119867 -52.09557083 103.29311815 -52.14144897 94.90498352 C-52.18143794 87.59008246 -52.20715259 80.27529092 -52.21604514 72.96028358 C-52.2212396 69.09043645 -52.23336508 65.22090254 -52.26261139 61.35115623 C-52.28997177 57.70101638 -52.29809512 54.05131566 -52.29212189 50.40108299 C-52.29372917 48.43863161 -52.31514324 46.47622691 -52.33737183 44.51390076 C-52.28126137 32.33901019 -48.85560469 22.50739982 -40.83969116 13.26069641 C-28.68620092 1.85040521 -16.20237882 -0.04836224 0 0 Z M-32.44515991 27.08882141 C-37.20993796 34.50959619 -37.25816572 41.53083402 -37.18026733 50.10249329 C-37.18070541 51.37162567 -37.18114349 52.64075806 -37.18159485 53.948349 C-37.18245098 57.40657234 -37.16488782 60.86447964 -37.14387298 64.32262993 C-37.12504195 67.94475044 -37.1233507 71.56687923 -37.11979675 75.18904114 C-37.11049507 82.0382922 -37.08590692 88.88739857 -37.05574828 95.73658609 C-37.0221456 103.53829557 -37.00570356 111.34001218 -36.99066198 119.14177608 C-36.95935551 135.18150072 -36.90663184 151.22108006 -36.83969116 167.26069641 C-36.08397953 167.11969198 -35.3282679 166.97868755 -34.54965591 166.83341026 C-33.55854687 166.65040682 -32.56743782 166.46740337 -31.54629517 166.27885437 C-30.56370853 166.09659994 -29.5811219 165.91434551 -28.56875992 165.72656822 C-7.64720894 162.15510788 13.31401422 166.18412307 30.85952759 178.09272766 C34.93759641 181.18666748 38.6744581 184.50670331 42.16030884 188.26069641 C42.75327759 188.83690735 43.34624634 189.41311829 43.95718384 190.00679016 C56.99776192 203.37590994 62.91974547 222.68418761 63.47280884 241.01069641 C63.02842314 259.77364789 57.31891525 279.56762222 43.42593384 292.92866516 C41.93070706 294.19610845 41.93070706 294.19610845 42.16030884 296.26069641 C41.56218384 296.53526672 40.96405884 296.80983704 40.34780884 297.09272766 C38.25294254 298.21123663 36.86980908 299.32328081 35.16030884 300.94819641 C21.49691547 312.81682201 4.76968433 317.43781329 -12.96469116 317.44819641 C-14.04234741 317.4604425 -15.12000366 317.4726886 -16.23031616 317.48530579 C-17.30023804 317.48723938 -18.37015991 317.48917297 -19.47250366 317.49116516 C-20.90940552 317.49732849 -20.90940552 317.49732849 -22.37533569 317.50361633 C-25.52235323 317.28294808 -28.45920323 316.82278327 -31.55621338 316.24551392 C-32.54589048 316.06208089 -33.53556759 315.87864786 -34.55523491 315.68965626 C-35.30910547 315.54809951 -36.06297604 315.40654276 -36.83969116 315.26069641 C-36.93323357 332.59392248 -37.00371877 349.92706949 -37.04693985 367.26049042 C-37.06754375 375.30914765 -37.09562258 383.35764782 -37.14144897 391.40620422 C-37.18138354 398.42332807 -37.20713977 405.44033813 -37.21604514 412.45757246 C-37.22124876 416.1713924 -37.23343322 419.88488691 -37.26261139 423.59860229 C-37.29496054 427.74978421 -37.29564634 431.9004044 -37.29379272 436.05171204 C-37.31536438 437.88806717 -37.31536438 437.88806717 -37.33737183 439.76152039 C-37.2985455 447.80048903 -36.25398413 453.1299137 -31.01547241 459.46772766 C-30.4005896 459.99753235 -29.78570679 460.52733704 -29.15219116 461.07319641 C-28.55019897 461.61589172 -27.94820679 462.15858704 -27.32797241 462.71772766 C-19.92694465 467.30706199 -12.40825471 467.68627212 -3.89413452 467.60127258 C-2.73214539 467.60171066 -1.57015625 467.60214874 -0.37295532 467.6026001 C3.44169314 467.60052148 7.25589404 467.57723351 11.07046509 467.55366516 C13.72561893 467.54806591 16.38074846 467.54364967 19.03590393 467.540802 C25.29368181 467.5315103 31.55130082 467.50693593 37.80900902 467.47675353 C44.93844289 467.44311947 52.0678847 467.42670098 59.19737828 467.41166723 C73.85177009 467.38038345 88.50603724 467.32767947 103.16030884 467.26069641 C103.16389137 466.21763116 103.16389137 466.21763116 103.16754627 465.15349388 C103.22670279 448.22721486 103.30225697 431.30109635 103.39602375 414.3749752 C103.44097412 406.1895972 103.48039052 398.00426263 103.50674438 389.81880188 C103.52973064 382.6836888 103.56313562 375.54871326 103.6090104 368.41370928 C103.63293426 364.63635957 103.65166847 360.85914599 103.65792274 357.08172226 C103.66397747 353.524302 103.68399087 349.96723005 103.71458435 346.40993881 C103.72753356 344.48598535 103.72579569 342.56195048 103.72358704 340.63795471 C103.78869133 334.65322303 103.90733828 330.34485085 107.16030884 325.26069641 C107.16030884 324.60069641 107.16030884 323.94069641 107.16030884 323.26069641 C108.33593384 322.79663391 108.33593384 322.79663391 109.53530884 322.32319641 C112.08361012 321.33194603 112.08361012 321.33194603 114.16030884 320.26069641 C116.26319707 320.15446301 118.36949834 320.11401071 120.47503662 320.10247803 C121.13011385 320.09754005 121.78519108 320.09260207 122.46011913 320.08751446 C124.66503 320.07210142 126.86991167 320.0637686 129.07485962 320.05537415 C130.65149189 320.04579861 132.22812158 320.03578872 133.80474854 320.02537537 C138.09373302 319.99828509 142.38272855 319.97729789 146.6717515 319.95737338 C151.15077648 319.93553921 155.62976725 319.90813798 160.10876465 319.88131714 C168.59434511 319.83135544 177.07994452 319.78642953 185.56556213 319.74329478 C195.22445577 319.69395208 204.88331508 319.63902297 214.54217553 319.58361518 C234.41485467 319.46974177 254.28756656 319.36291443 274.16030884 319.26069641 C274.16177405 318.37565017 274.16177405 318.37565017 274.16326886 317.4727242 C274.22158572 282.4751893 274.29541637 247.47772043 274.38929512 212.48026241 C274.4005628 208.27474982 274.41170133 204.0692369 274.42276001 199.86372375 C274.42496369 199.02650873 274.42716738 198.1892937 274.42943784 197.32670853 C274.46477608 183.78421876 274.4896598 170.24172905 274.51065586 156.69921032 C274.5324456 142.79544299 274.5655261 128.89173531 274.6090104 114.98801875 C274.6354725 106.41395905 274.6532079 97.83997362 274.65965488 89.26587513 C274.66492545 83.38020282 274.68119821 77.49462384 274.7059745 71.60900161 C274.71993272 68.21713246 274.72754645 64.82557179 274.725317 61.43365288 C274.72365887 57.7461073 274.7404107 54.05907261 274.76158142 50.37159729 C274.75431006 48.78399373 274.75431006 48.78399373 274.7468918 47.16431737 C274.86072284 35.09421383 277.89876991 25.55474747 284.16030884 15.26069641 C246.47747357 15.19201631 208.79464773 15.13916052 171.11176253 15.10750042 C166.66204284 15.10374834 162.21232327 15.09986537 157.76260376 15.09590149 C156.43382607 15.09472109 156.43382607 15.09472109 155.07820439 15.09351685 C140.73827636 15.08046614 126.39838444 15.05681414 112.05847783 15.02923802 C97.34228513 15.00117451 82.62611133 14.98451815 67.90989298 14.97843093 C58.83062118 14.97431645 49.75145147 14.96132536 40.6722111 14.93694701 C34.44459383 14.92107815 28.21702926 14.91629866 21.98939324 14.92019228 C18.39741064 14.92211204 14.80560631 14.91918777 11.21365547 14.90307999 C7.31499413 14.88572492 3.41656375 14.89174492 -0.48213196 14.89993286 C-1.61152803 14.89119434 -2.7409241 14.88245581 -3.90454429 14.87345248 C-15.80022796 14.94096361 -24.39346504 18.12770646 -32.44515991 27.08882141 Z M296.16030884 24.26069641 C289.61433269 32.45565892 288.86428738 40.54107 288.93325806 50.70381165 C288.932966 51.83624802 288.93267395 52.96868439 288.93237305 54.13543701 C288.93376189 57.86346709 288.94930237 61.59129516 288.96499634 65.31929016 C288.96872804 67.91003307 288.97157427 70.50077739 288.97357178 73.09152222 C288.98041732 79.20412306 288.99616633 85.31664103 289.01627076 91.42921072 C289.0386708 98.39174553 289.04963348 105.35428387 289.05966163 112.31684577 C289.08053383 126.63150124 289.1156841 140.94609626 289.16030884 155.26069641 C289.63081665 154.83627258 290.10132446 154.41184875 290.58609009 153.9745636 C291.52001587 153.14940247 291.52001587 153.14940247 292.47280884 152.30757141 C293.08769165 151.75939758 293.70257446 151.21122375 294.33609009 150.6464386 C296.16030884 149.26069641 296.16030884 149.26069641 299.16030884 148.51069641 C306.01756543 150.22501056 310.37097555 156.45633949 314.67984009 161.72163391 C315.16839478 162.22952454 315.65694946 162.73741516 316.16030884 163.26069641 C318.2961647 163.49552301 318.2961647 163.49552301 319.74624634 161.68647766 C320.33663696 160.98909485 320.92702759 160.29171204 321.53530884 159.57319641 C322.1553479 158.84616516 322.77538696 158.11913391 323.41421509 157.37007141 C324.79077506 155.70711306 326.13747233 154.01943468 327.47280884 152.32319641 C329.59053176 149.7348684 330.54359053 149.34675013 333.84780884 148.88569641 C337.2854634 149.27486485 338.20714779 149.78346734 340.86734009 151.78413391 C341.48713745 152.24481262 342.10693481 152.70549133 342.74551392 153.18013 C343.21239624 153.53671692 343.67927856 153.89330383 344.16030884 154.26069641 C344.25392741 139.16129789 344.32437365 124.06191278 344.36755753 108.96228886 C344.38814537 101.95057511 344.41619307 94.93904214 344.46206665 87.92744446 C344.50633308 81.15824107 344.52946082 74.38922545 344.53981781 67.6198864 C344.54719677 65.03995754 344.5616061 62.4600387 344.58322906 59.8801899 C344.61235288 56.26078901 344.61626091 52.64215891 344.6144104 49.0226593 C344.6287915 47.96098038 344.64317261 46.89930145 344.6579895 45.80545044 C344.60848729 36.83140633 342.14825758 29.4945355 335.98062134 22.83100891 C323.87764003 12.39023963 307.45288516 13.09387261 296.16030884 24.26069641 Z M-61.80453491 201.41304016 C-73.67721559 215.77976317 -77.23568252 232.07438696 -75.83969116 250.26069641 C-73.63105524 267.2134694 -63.97202302 281.12537329 -50.90219116 291.63569641 C-35.92590582 301.99684076 -20.72100715 304.8322895 -2.83969116 303.26069641 C1.75862426 302.40283616 5.86686843 301.09988086 10.16030884 299.26069641 C11.03687134 298.89846985 11.91343384 298.53624329 12.81655884 298.16304016 C27.94940508 291.27385862 39.58767559 278.33465852 45.45327759 262.84663391 C50.74401334 246.22952163 50.55347776 229.85375517 42.97280884 213.94819641 C34.35201592 197.9019306 21.88012395 187.03557999 4.70327759 181.02241516 C-20.16265869 173.57409324 -44.75796743 182.73976246 -61.80453491 201.41304016 Z M118.16030884 334.26069641 C118.16030884 378.15069641 118.16030884 422.04069641 118.16030884 467.26069641 C182.51030884 467.26069641 246.86030884 467.26069641 313.16030884 467.26069641 C313.16030884 423.37069641 313.16030884 379.48069641 313.16030884 334.26069641 C248.81030884 334.26069641 184.46030884 334.26069641 118.16030884 334.26069641 Z " fill="#004774" transform="translate(121.83969116210938,14.739303588867188)"/>
<path d="M0 0 C15.63326681 14.84008961 24.97012139 34.37276645 25.66992188 56.04272461 C25.9806419 77.62999845 18.00996216 97.43009198 3.38671875 113.265625 C-14.23972802 129.62360184 -34.13377873 135.99788615 -57.80078125 135.57421875 C-74.72982298 134.9110362 -89.80777692 128.24177157 -102.61328125 117.265625 C-103.20238281 116.81960937 -103.79148438 116.37359375 -104.3984375 115.9140625 C-119.02894214 104.51626617 -127.1323967 85.19763266 -129.61328125 67.265625 C-131.22529797 42.77106207 -124.23280131 22.77998232 -108.68359375 3.92578125 C-98.05968002 -7.5872583 -81.0471129 -16.50504376 -65.61328125 -18.734375 C-64.8965625 -18.85554688 -64.17984375 -18.97671875 -63.44140625 -19.1015625 C-40.67672138 -22.23361646 -17.23309673 -15.14657829 0 0 Z M-96.9921875 14.41796875 C-104.53264815 22.61021288 -109.24690206 30.63495387 -112.61328125 41.265625 C-112.85949219 42.02359375 -113.10570312 42.7815625 -113.359375 43.5625 C-117.39112288 58.35484395 -114.24654651 74.52752094 -107.55078125 88.015625 C-98.93412385 102.8237825 -85.2553144 114.12661599 -68.60180664 118.83422852 C-51.42353305 123.03668695 -34.41522807 120.35245836 -19.2265625 111.55078125 C-4.97584128 102.81259198 4.47036341 88.84836027 9.0625 72.921875 C12.9561896 56.60546143 9.84650632 39.7484536 1.49609375 25.3671875 C-8.73139357 10.32899318 -22.86327769 -0.11869816 -40.86328125 -3.546875 C-61.7224196 -7.45955138 -82.1954337 -0.57108387 -96.9921875 14.41796875 Z " fill="#004774" transform="translate(292.61328125,65.734375)"/>
<path d="M0 0 C0.65710968 -0.0065712 1.31421936 -0.0131424 1.99124146 -0.01991272 C4.16880402 -0.03964587 6.34629767 -0.05130758 8.52392578 -0.0612793 C9.63900702 -0.06739259 9.63900702 -0.06739259 10.77661514 -0.07362938 C14.71044894 -0.09448912 18.64424785 -0.10879183 22.578125 -0.11816406 C26.64267661 -0.12923498 30.70668171 -0.16364228 34.77103996 -0.20333576 C37.89544702 -0.22946949 41.01972314 -0.23785291 44.14422989 -0.24144554 C45.64256613 -0.24631912 47.14089622 -0.25795514 48.63912582 -0.27648354 C50.73642168 -0.30081042 52.83229401 -0.29992308 54.9296875 -0.29296875 C56.71933426 -0.30176811 56.71933426 -0.30176811 58.5451355 -0.31074524 C61.59423828 0.17700195 61.59423828 0.17700195 63.97941589 1.91705322 C65.81630393 4.48778349 66.09529785 5.68251438 66.09594727 8.80615234 C66.10532822 9.71712173 66.11470917 10.62809113 66.12437439 11.56666565 C66.11314041 12.54280319 66.10190643 13.51894073 66.09033203 14.5246582 C66.09178726 15.53290146 66.09324249 16.54114471 66.09474182 17.5799408 C66.09308326 19.70908501 66.08152689 21.83824127 66.06079102 23.96728516 C66.03181318 27.23106619 66.0401879 30.49322552 66.05322266 33.75708008 C66.04698597 35.82544737 66.03859558 37.89380952 66.02783203 39.9621582 C66.03076767 40.94031998 66.03370331 41.91848175 66.03672791 42.92628479 C66.02404373 43.83410202 66.01135956 44.74191925 65.99829102 45.67724609 C65.99288803 46.4757045 65.98748505 47.2741629 65.98191833 48.09681702 C65.59423828 50.17700195 65.59423828 50.17700195 64.48890686 51.93397522 C61.6357633 53.80582434 59.26468976 53.55859729 55.87548828 53.56518555 C54.85793457 53.57307098 54.85793457 53.57307098 53.81982422 53.58111572 C51.57772793 53.59431831 49.33634177 53.58557733 47.09423828 53.57543945 C45.53629419 53.57746013 43.97835101 53.58037151 42.42041016 53.58413696 C39.15534459 53.58856064 35.89052523 53.58212804 32.62548828 53.56811523 C28.43872479 53.55102308 24.25253822 53.56086406 20.0657959 53.57883263 C16.84875129 53.58966942 13.63184363 53.58622466 10.41479492 53.57844925 C8.87101168 53.57644694 7.32721603 53.57890762 5.78344727 53.58588791 C3.62629224 53.59350096 1.4700735 53.58190168 -0.68701172 53.56518555 C-1.91484375 53.56279877 -3.14267578 53.56041199 -4.40771484 53.55795288 C-7.40576172 53.17700195 -7.40576172 53.17700195 -9.26318359 51.77774048 C-11.1732004 49.10182938 -11.5364593 47.41259914 -11.56689453 44.17382812 C-11.57650208 43.34924606 -11.58610962 42.524664 -11.5960083 41.6750946 C-11.60238312 40.33605827 -11.60238312 40.33605827 -11.60888672 38.9699707 C-11.61458679 38.05242508 -11.62028687 37.13487946 -11.62615967 36.18952942 C-11.63561605 34.2451798 -11.64214618 32.30081411 -11.64599609 30.35644531 C-11.65568881 27.38683941 -11.68670075 24.41792932 -11.71826172 21.44848633 C-11.72479305 19.55981856 -11.73004301 17.67114585 -11.73388672 15.7824707 C-11.74623352 14.89585251 -11.75858032 14.00923431 -11.77130127 13.0957489 C-11.75408473 8.31108267 -11.56511429 5.04062286 -8.40576172 1.17700195 C-5.57247507 -0.23964137 -3.16825658 0.02617608 0 0 Z M3.59423828 15.17700195 C3.59423828 23.09700195 3.59423828 31.01700195 3.59423828 39.17700195 C19.10423828 39.17700195 34.61423828 39.17700195 50.59423828 39.17700195 C50.59423828 31.25700195 50.59423828 23.33700195 50.59423828 15.17700195 C35.08423828 15.17700195 19.57423828 15.17700195 3.59423828 15.17700195 Z " fill="#004875" transform="translate(267.40576171875,364.822998046875)"/>
<path d="M0 0 C1.2590213 -0.00571014 2.5180426 -0.01142029 3.81521606 -0.01730347 C5.21316518 -0.01854881 6.61111442 -0.01967391 8.00906372 -0.02069092 C9.47920862 -0.0253195 10.94935233 -0.03034421 12.41949463 -0.03573608 C16.41539258 -0.0488573 20.41127372 -0.05530437 24.40718985 -0.05974674 C26.90330958 -0.06267761 29.39942472 -0.06678242 31.89554214 -0.07125092 C39.70435562 -0.08492444 47.5131586 -0.09459209 55.32198322 -0.09845281 C64.33812993 -0.10293488 73.35412514 -0.12049023 82.37022579 -0.1494534 C89.33846278 -0.17106168 96.30665711 -0.18115661 103.27492726 -0.18249393 C107.43733043 -0.18354247 111.59959116 -0.1894608 115.76195908 -0.20731354 C119.67719095 -0.22377977 123.59217308 -0.22595688 127.50742722 -0.21717453 C128.94373747 -0.2164034 130.38006108 -0.22075689 131.81633759 -0.23063278 C133.77839656 -0.24333197 135.74055567 -0.23569114 137.70263672 -0.22705078 C138.80028288 -0.22851734 139.89792904 -0.2299839 141.0288372 -0.2314949 C144.40772859 0.19459394 146.26949082 1.10196954 148.978302 3.14044189 C150.478302 6.01544189 150.478302 6.01544189 150.978302 9.14044189 C149.86313309 11.53008956 148.83879743 13.27994647 146.978302 15.14044189 C144.9879124 15.24592863 142.99373343 15.28012085 141.00056458 15.28761292 C139.70077667 15.29476822 138.40098877 15.30192352 137.06181335 15.30929565 C135.60778832 15.31213622 134.15376304 15.31484791 132.69973755 15.31744385 C131.17900435 15.32370552 129.65827269 15.33035205 128.13754272 15.33735657 C123.99490884 15.35479424 119.85228653 15.36532588 115.70962501 15.3735621 C113.12340387 15.37870647 110.53718637 15.38478245 107.95096779 15.39107323 C99.86503954 15.41013315 91.77912047 15.42436248 83.69317406 15.4326852 C74.34868349 15.44246111 65.00442959 15.46878641 55.66002244 15.50918609 C48.44471077 15.53931387 41.22946706 15.5541509 34.0140937 15.55746621 C29.70129751 15.55982059 25.38875391 15.56883083 21.07602501 15.59392738 C17.01878081 15.61715492 12.96195645 15.62146304 8.90466309 15.611166 C7.41471272 15.61066922 5.92474206 15.6170315 4.43485451 15.63072205 C2.40230944 15.64835532 0.36958328 15.63897753 -1.66300964 15.62818909 C-2.80104695 15.63057744 -3.93908426 15.63296579 -5.11160755 15.63542652 C-8.68040098 15.02840144 -9.86205596 13.99847519 -12.021698 11.14044189 C-12.52517122 7.68805408 -12.43725954 5.87262175 -10.709198 2.82794189 C-7.56239785 -0.31885825 -4.21400134 0.01142795 0 0 Z " fill="#004875" transform="translate(214.02169799804688,216.85955810546875)"/>
<path d="M0 0 C2.67927341 4.01891012 2.15601248 6.24161923 2 11 C3.2375 10.95875 4.475 10.9175 5.75 10.875 C9.00644202 10.88650686 11.33396004 10.94920003 14 13 C15.92199114 15.56265486 16.01028636 16.83198949 15.8125 20.0625 C14.95582807 23.15969851 14.48331009 24.08193659 12 26 C9.87109375 26.36889648 9.87109375 26.36889648 7.4375 26.37109375 C6.11878906 26.39719727 6.11878906 26.39719727 4.7734375 26.42382812 C2.9244943 26.43294263 1.07552771 26.43815104 -0.7734375 26.43945312 C-1.65257812 26.45814453 -2.53171875 26.47683594 -3.4375 26.49609375 C-4.24058594 26.49794678 -5.04367188 26.4997998 -5.87109375 26.50170898 C-8.16674223 26.83691983 -8.16674223 26.83691983 -9.8046875 28.85961914 C-11.27104512 30.99676118 -11.27104512 30.99676118 -10.6875 33.75 C-10.3471875 34.86375 -10.3471875 34.86375 -10 36 C-9.030625 36.268125 -8.06125 36.53625 -7.0625 36.8125 C-5.70803836 37.20732283 -4.35389925 37.60325297 -3 38 C-2.25492188 38.20625 -1.50984375 38.4125 -0.7421875 38.625 C5.2745221 40.41981507 9.92678885 42.52580071 13.2890625 48.16015625 C16.24226275 54.49848739 16.87172706 60.23222899 15 67 C12.49705222 72.21841 9.50221721 76.7074095 4 79 C3.34 79 2.68 79 2 79 C2.04640625 79.67546875 2.0928125 80.3509375 2.140625 81.046875 C2.43299415 88.27256982 2.43299415 88.27256982 0.4375 91.625 C-2.96102671 93.54211763 -5.15968535 93.54861638 -9 93 C-11.4375 91.5625 -11.4375 91.5625 -13 89 C-13.31821008 85.96917943 -13.23343667 83.03467666 -13 80 C-13.67546875 80.05800781 -14.3509375 80.11601562 -15.046875 80.17578125 C-22.29337332 80.54229489 -22.29337332 80.54229489 -25.6875 77.9375 C-27.42832901 74.04135888 -27.34653516 72.03960548 -26 68 C-20.37175692 64.20667002 -14.79890024 64.54484541 -8.28125 64.47265625 C-6.18241173 64.41358299 -4.08849457 64.21633808 -2 64 C0.28138945 61.24301816 0.28138945 61.24301816 -0.1875 58.4375 C-0.83372442 55.66744883 -0.83372442 55.66744883 -4 54 C-5.72114476 53.69970334 -7.45248902 53.45555842 -9.1875 53.25 C-14.99922811 52.23525382 -19.07741064 50.49482593 -23 46 C-26.49928666 39.98281303 -28.24582375 33.89704565 -26.4921875 27.00390625 C-24.87381092 22.08366942 -22.61268583 18.69870216 -19 15 C-17.63875 14.3503125 -17.63875 14.3503125 -16.25 13.6875 C-13.81881007 12.25029212 -13.81881007 12.25029212 -13.5703125 9.9609375 C-13.44010305 8.36196547 -13.3268113 6.76152571 -13.23046875 5.16015625 C-12.92744508 2.31995135 -12.12994128 0.89328114 -10 -1 C-6.36647238 -2.75411678 -3.55908674 -1.54742902 0 0 Z " fill="#004774" transform="translate(246,78)"/>
<path d="M0 0 C2.62316277 2.1850899 3.8415881 3.98330234 4.37133789 7.38327026 C4.53094291 10.40727249 4.55414483 13.40542508 4.53125 16.43359375 C4.5350769 17.54428726 4.53890381 18.65498077 4.54284668 19.79933167 C4.54556535 22.14528308 4.53820745 24.49126482 4.52148438 26.8371582 C4.50009592 30.4214263 4.52127881 34.00368521 4.546875 37.58789062 C4.54423132 39.86979608 4.53910552 42.15170029 4.53125 44.43359375 C4.53934692 45.50250351 4.54744385 46.57141327 4.55578613 47.67271423 C4.44306686 56.65248812 1.44463595 60.80396712 -4.84375 67.109375 C-5.76027344 68.02847656 -6.67679688 68.94757813 -7.62109375 69.89453125 C-8.09401855 70.3632666 -8.56694336 70.83200195 -9.05419922 71.31494141 C-10.50337328 72.75334822 -11.94149173 74.20219574 -13.37890625 75.65234375 C-14.29542969 76.56628906 -15.21195313 77.48023438 -16.15625 78.421875 C-16.98962891 79.25299805 -17.82300781 80.08412109 -18.68164062 80.94042969 C-20.77820479 82.80296289 -22.38699023 84.02856566 -25 85 C-28.03536365 84.81416141 -30.22262247 84.44051393 -32.875 82.9375 C-34.33839927 80.41720125 -34.76417092 78.13170757 -34.72265625 75.22924805 C-33.68891153 72.04035513 -31.91384477 71.01650087 -29.22265625 69.05859375 C-17.69999678 60.70151889 -17.69999678 60.70151889 -11.35455322 48.34490967 C-9.95843459 38.9341313 -10.23999573 29.4297525 -10.59008789 19.95092773 C-10.64642647 18.42369835 -10.64642647 18.42369835 -10.7039032 16.86561584 C-10.79012517 14.92796817 -10.90236922 12.99125502 -11.04402161 11.05686951 C-11.41747113 4.60899911 -11.41747113 4.60899911 -9.22900391 1.41650391 C-5.94371882 -0.67125339 -3.80441228 -0.6114234 0 0 Z " fill="#004774" transform="translate(112,202)"/>
<path d="M0 0 C0.82306641 -0.00686325 1.64613281 -0.0137265 2.49414062 -0.02079773 C5.2183552 -0.03911817 7.94199673 -0.03522075 10.66625977 -0.02954102 C12.55811247 -0.03410043 14.44996351 -0.03940528 16.34181213 -0.04542542 C20.30883508 -0.05436691 24.27565683 -0.05192175 28.24267578 -0.04199219 C33.3284476 -0.0305034 38.41352502 -0.05070728 43.49920559 -0.07990932 C47.40684935 -0.09824912 51.31432604 -0.09798327 55.22200203 -0.0922718 C57.0971073 -0.09211831 58.9722237 -0.0981862 60.84728813 -0.11056328 C63.46894849 -0.12542909 66.08931775 -0.1148292 68.7109375 -0.09765625 C69.48665604 -0.10732422 70.26237457 -0.11699219 71.06159973 -0.12695312 C74.56692162 -0.07883275 76.55377611 0.13227354 79.40589905 2.24790955 C81.46169723 5.17513132 81.43150772 6.89770961 80.92016602 10.40405273 C79.14032197 13.53996844 78.39708395 14.24508009 74.92016602 15.40405273 C72.37612444 15.50516684 69.85941388 15.55089713 67.31518555 15.54931641 C66.54249329 15.55267502 65.76980103 15.55603363 64.97369385 15.55949402 C62.41677243 15.5690006 59.85991652 15.57094702 57.30297852 15.57202148 C55.52562432 15.5752344 53.74827039 15.5785985 51.97091675 15.58210754 C48.24354438 15.58809817 44.5161952 15.58994752 40.78881836 15.58935547 C36.01498443 15.58925388 31.24129935 15.60290294 26.46750069 15.62012768 C22.79575926 15.63125218 19.12405376 15.63327453 15.45229721 15.63274574 C13.69245771 15.6339253 11.93261726 15.63834572 10.17279434 15.64607811 C7.70973574 15.65588652 5.24699946 15.65299658 2.78393555 15.64697266 C2.05856598 15.65259216 1.33319641 15.65821167 0.58584595 15.66400146 C-3.40155662 15.63924809 -6.52511115 15.26112621 -10.07983398 13.40405273 C-12.07426341 10.86568802 -12.09106028 9.58741559 -11.89233398 6.34155273 C-10.06625429 -0.26042771 -6.20593941 -0.03592056 0 0 Z " fill="#004875" transform="translate(128.079833984375,450.595947265625)"/>
<path d="M0 0 C0.77269226 -0.0049649 1.54538452 -0.00992981 2.3414917 -0.01504517 C4.89840586 -0.02965357 7.45525799 -0.03646635 10.01220703 -0.04199219 C11.78956097 -0.04774445 13.56691489 -0.05350217 15.3442688 -0.05926514 C19.07163787 -0.06977117 22.79898539 -0.07561653 26.52636719 -0.07910156 C31.30026457 -0.0845874 36.0738769 -0.10861896 40.84768486 -0.13707352 C44.5194278 -0.1557051 48.19110212 -0.16090576 51.86288834 -0.16243744 C53.62273849 -0.165463 55.38258746 -0.17348829 57.1423912 -0.18662262 C59.60556435 -0.20369521 62.06804154 -0.20180018 64.53125 -0.1953125 C65.25661957 -0.20452728 65.98198914 -0.21374207 66.7293396 -0.22323608 C71.11850319 -0.18705878 73.90465174 0.45999765 77.39501953 3.16113281 C78.81543774 6.00196923 78.70954225 8.01590559 78.39501953 11.16113281 C76.88757324 13.32310486 76.88757324 13.32310486 74.39501953 15.16113281 C71.53591075 15.56087946 69.06036207 15.71867825 66.20166016 15.69458008 C65.37844772 15.70319565 64.55523529 15.71181122 63.70707703 15.72068787 C60.98815397 15.74337575 58.27025917 15.73660446 55.55126953 15.72753906 C53.66084486 15.73277317 51.77042281 15.73904886 49.88000488 15.74632263 C45.91890164 15.75673185 41.95815753 15.75215754 37.99707031 15.73754883 C32.91901715 15.7203544 27.84209476 15.74386148 22.76416779 15.77903843 C18.86078381 15.80098969 14.95767139 15.79957658 11.054245 15.79127312 C9.18192809 15.79045246 7.30959148 15.79733769 5.43733215 15.81204414 C2.82030529 15.82944989 0.20532315 15.81498262 -2.41162109 15.79223633 C-3.57284233 15.80977463 -3.57284233 15.80977463 -4.75752258 15.82766724 C-8.59622361 15.75972299 -10.26849193 15.47463684 -13.12097168 12.81700134 C-14.60498047 10.16113281 -14.60498047 10.16113281 -14.54248047 7.03613281 C-13.59894959 4.14263812 -13.0282857 2.93200971 -10.60498047 1.16113281 C-7.01512596 -0.03548536 -3.73697232 0.00572704 0 0 Z " fill="#004875" transform="translate(130.60498046875,387.8388671875)"/>
<path d="M0 0 C1.28498383 -0.00960754 2.56996765 -0.01921509 3.89389038 -0.02911377 C5.29856183 -0.03396167 6.70323535 -0.03824052 8.10791016 -0.04199219 C9.54896038 -0.04774597 10.99001059 -0.05350367 12.43106079 -0.05926514 C15.45225378 -0.06976647 18.47342023 -0.07561485 21.49462891 -0.07910156 C25.36054334 -0.08458556 29.22610544 -0.10861485 33.09190941 -0.13707352 C36.06880714 -0.15572285 39.04562036 -0.1609067 42.02257156 -0.16243744 C43.44749503 -0.16545916 44.87241719 -0.17347151 46.29728317 -0.18662262 C48.29316965 -0.20372968 50.28920185 -0.19995132 52.28515625 -0.1953125 C53.4197226 -0.19895813 54.55428894 -0.20260376 55.72323608 -0.20635986 C59.14378808 0.2059512 61.0227817 1.11846328 63.77197266 3.16113281 C65.19239086 6.00196923 65.08649538 8.01590559 64.77197266 11.16113281 C62.57706824 14.12972387 61.37655111 15.06122214 57.69836426 15.66906738 C55.89111877 15.67384094 55.89111877 15.67384094 54.04736328 15.67871094 C53.38020798 15.68572021 52.71305267 15.69272949 52.02568054 15.69995117 C49.82610123 15.71751912 47.62781445 15.70591434 45.42822266 15.69238281 C43.89652256 15.69507811 42.36482413 15.69896085 40.83312988 15.70397949 C37.62524095 15.70987285 34.41779797 15.70131738 31.20996094 15.68261719 C27.10051223 15.65982705 22.99210844 15.6729511 18.88269806 15.69690704 C15.72048079 15.71136981 12.55851077 15.70675699 9.39628601 15.69639587 C7.88123958 15.69372988 6.36617062 15.69699393 4.85115051 15.70631409 C2.73235734 15.71648842 0.61524981 15.70097012 -1.50341797 15.67871094 C-2.70824829 15.67552856 -3.91307861 15.67234619 -5.15441895 15.66906738 C-8.83189284 15.06133996 -10.02285077 14.11839772 -12.22802734 11.16113281 C-12.73150057 7.70874499 -12.64358888 5.89331267 -10.91552734 2.84863281 C-7.72722339 -0.33967114 -4.26996362 0.02573342 0 0 Z " fill="#004774" transform="translate(144.22802734375,356.8388671875)"/>
<path d="M0 0 C0.6671553 -0.00700928 1.33431061 -0.01401855 2.02168274 -0.02124023 C4.22126205 -0.03880818 6.41954884 -0.0272034 8.61914062 -0.01367188 C10.15084072 -0.01636718 11.68253915 -0.02024992 13.2142334 -0.02526855 C16.42212233 -0.03116191 19.62956531 -0.02260644 22.83740234 -0.00390625 C26.94685105 0.01888389 31.05525484 0.00575984 35.16466522 -0.01819611 C38.32688249 -0.03265887 41.48885251 -0.02804605 44.65107727 -0.01768494 C46.1661237 -0.01501894 47.68119266 -0.018283 49.19621277 -0.02760315 C51.31500594 -0.03777748 53.43211347 -0.02225918 55.55078125 0 C57.35802673 0.00477356 57.35802673 0.00477356 59.20178223 0.00964355 C62.87925612 0.61737098 64.07021405 1.56031322 66.27539062 4.51757812 C66.77886385 7.96996594 66.69095217 9.78539827 64.96289062 12.83007812 C61.77458668 16.01838207 58.3173269 15.65297752 54.04736328 15.67871094 C52.76237946 15.68831848 51.47739563 15.69792603 50.1534729 15.70782471 C48.74880145 15.7126726 47.34412793 15.71695145 45.93945312 15.72070312 C44.4984029 15.7264569 43.05735269 15.73221461 41.61630249 15.73797607 C38.5951095 15.74847741 35.57394305 15.75432579 32.55273438 15.7578125 C28.68681994 15.7632965 24.82125784 15.78732579 20.95545387 15.81578445 C17.97855615 15.83443379 15.00174292 15.83961764 12.02479172 15.84114838 C10.59986825 15.8441701 9.17494609 15.85218245 7.75008011 15.86533356 C5.75419363 15.88244062 3.75816144 15.87866226 1.76220703 15.87402344 C0.62764069 15.87766907 -0.50692566 15.8813147 -1.6758728 15.8850708 C-5.09642479 15.47275974 -6.97541842 14.56024766 -9.72460938 12.51757812 C-11.14502758 9.67674171 -11.0391321 7.66280535 -10.72460938 4.51757812 C-7.59352918 0.28281666 -5.12335727 0.01353256 0 0 Z " fill="#004875" transform="translate(212.724609375,279.482421875)"/>
<path d="M0 0 C0.68812271 -0.00700928 1.37624542 -0.01401855 2.08522034 -0.02124023 C4.35995838 -0.03884649 6.63345243 -0.02718958 8.90820312 -0.01367188 C10.48856851 -0.01636607 12.06893228 -0.02024788 13.64929199 -0.02526855 C16.96150494 -0.03116711 20.27328642 -0.02258962 23.58544922 -0.00390625 C27.83289684 0.01888409 32.07933356 0.00576284 36.32674408 -0.01819611 C39.59014515 -0.03264477 42.85330621 -0.02805251 46.11671448 -0.01768494 C47.68282694 -0.01501504 49.24896113 -0.01829667 50.81504822 -0.02760315 C53.00358862 -0.03775415 55.19048821 -0.02229142 57.37890625 0 C58.62450317 0.00318237 59.8701001 0.00636475 61.15344238 0.00964355 C64.18945312 0.51757812 64.18945312 0.51757812 66.08776855 2.36242676 C67.60191558 5.32445066 67.66817698 7.23490027 67.18945312 10.51757812 C64.97255907 13.50305774 63.7796763 14.42143772 60.07115173 15.0255127 C58.84554031 15.02869507 57.61992889 15.03187744 56.35717773 15.03515625 C55.33940498 15.04567017 55.33940498 15.04567017 54.30107117 15.05639648 C52.06422687 15.07396415 49.82865341 15.06236095 47.59179688 15.04882812 C46.03528094 15.05152312 44.47876665 15.0554056 42.92225647 15.0604248 C39.66309552 15.06631786 36.40437354 15.05776244 33.14526367 15.0390625 C28.96622066 15.01625346 24.78820407 15.02940863 20.60919857 15.05335236 C17.39641062 15.06779973 14.18386649 15.06320969 10.97107124 15.05284119 C9.43007854 15.05017192 7.88906374 15.05345074 6.34809685 15.0627594 C4.19557835 15.07291045 2.04472805 15.05744874 -0.10766602 15.03515625 C-1.33248184 15.03197388 -2.55729767 15.0287915 -3.81922913 15.0255127 C-6.81054688 14.51757812 -6.81054688 14.51757812 -8.70603943 12.67272949 C-10.20878746 9.74051795 -10.21727958 7.77143975 -9.81054688 4.51757812 C-7.44967697 -0.11726656 -4.95659875 0.0126636 0 0 Z " fill="#004774" transform="translate(211.810546875,248.482421875)"/>
<path d="M0 0 C0.95910782 -0.00761353 1.91821564 -0.01522705 2.90638733 -0.02307129 C4.93292642 -0.03386703 6.95952113 -0.03672753 8.98608398 -0.03222656 C12.08346516 -0.03125445 15.17836722 -0.07287749 18.27539062 -0.1171875 C20.24608859 -0.12239481 22.21679516 -0.12508269 24.1875 -0.125 C25.11159164 -0.14139526 26.03568329 -0.15779053 26.98777771 -0.17468262 C31.51450171 -0.12613274 33.54746909 0.01549655 37.28344727 2.77929688 C39.16015625 5.46875 39.16015625 5.46875 39.16015625 9.09375 C38.17393463 12.42224797 37.81362791 13.43811001 35.16015625 15.46875 C33.07997131 15.86315918 33.07997131 15.86315918 30.66040039 15.88867188 C29.75258316 15.90458374 28.84476593 15.92049561 27.90943909 15.93688965 C26.93127731 15.93709106 25.95311554 15.93729248 24.9453125 15.9375 C23.43438271 15.94892029 23.43438271 15.94892029 21.89292908 15.96057129 C19.76205932 15.97137956 17.63113656 15.97422245 15.50024414 15.96972656 C12.23819689 15.96875463 8.97850409 16.01036079 5.71679688 16.0546875 C3.64714033 16.05989466 1.5774756 16.06258269 -0.4921875 16.0625 C-1.95639381 16.0870929 -1.95639381 16.0870929 -3.45018005 16.11218262 C-10.18155704 16.04342258 -10.18155704 16.04342258 -13.48657227 13.15820312 C-15.34528224 9.46425596 -15.00185819 7.39054874 -13.83984375 3.46875 C-10.21686003 -0.74024172 -5.12011026 0.00111355 0 0 Z " fill="#004875" transform="translate(379.83984375,364.53125)"/>
<path d="M0 0 C0.89847656 -0.03738281 1.79695313 -0.07476562 2.72265625 -0.11328125 C7.33488878 -0.17459601 9.43722762 -0.14278072 13.22265625 2.70703125 C15.125 5.375 15.125 5.375 15.6875 8.4375 C14.95761106 12.24914223 14.32792901 13.14851621 11.125 15.375 C7.45121473 15.95458426 3.83609729 15.88681784 0.125 15.8125 C-0.87273437 15.81958984 -1.87046875 15.82667969 -2.8984375 15.83398438 C-11.22738582 15.76141311 -11.22738582 15.76141311 -14.875 12.375 C-16.26397856 8.94885288 -15.96525628 7.60966634 -14.625 4.125 C-11.34653359 -1.02687578 -5.55942412 0.08698957 0 0 Z " fill="#004774" transform="translate(403.875,395.625)"/>
<path d="M0 0 C1.01126953 -0.00064453 2.02253906 -0.00128906 3.06445312 -0.00195312 C4.11439453 0.01802734 5.16433594 0.03800781 6.24609375 0.05859375 C7.29990234 0.05150391 8.35371094 0.04441406 9.43945312 0.03710938 C17.17694113 0.1013004 17.17694113 0.1013004 19.45288086 1.87475586 C21.16186969 4.1261732 21.54911755 5.6720935 21.68359375 8.49609375 C20.50914812 11.15404964 19.49724806 12.90731877 17.12890625 14.62109375 C13.36938935 15.96635219 9.70826301 15.82450608 5.74609375 15.80859375 C4.94751953 15.82470703 4.14894531 15.84082031 3.32617188 15.85742188 C-1.37108494 15.86131355 -4.51096897 15.55682706 -8.31640625 12.49609375 C-9.73682446 9.65525734 -9.63092897 7.64132097 -9.31640625 4.49609375 C-6.4646765 0.83807259 -4.5903741 -0.00921038 0 0 Z " fill="#004874" transform="translate(343.31640625,279.50390625)"/>
<path d="M0 0 C1.01126953 -0.00064453 2.02253906 -0.00128906 3.06445312 -0.00195312 C4.11439453 0.01802734 5.16433594 0.03800781 6.24609375 0.05859375 C7.29990234 0.05150391 8.35371094 0.04441406 9.43945312 0.03710938 C17.17694113 0.1013004 17.17694113 0.1013004 19.45288086 1.87475586 C21.16186969 4.1261732 21.54911755 5.6720935 21.68359375 8.49609375 C20.54200185 10.77927755 19.49346692 12.68622058 17.68359375 14.49609375 C13.92102472 14.80422236 10.14472731 14.77451518 6.37109375 14.80859375 C5.31212891 14.83759766 4.25316406 14.86660156 3.16210938 14.89648438 C1.63166992 14.90905273 1.63166992 14.90905273 0.0703125 14.921875 C-0.86594971 14.93645752 -1.80221191 14.95104004 -2.7668457 14.96606445 C-6.08825381 14.353816 -7.25765915 13.12135965 -9.31640625 10.49609375 C-9.81640625 7.49609375 -9.81640625 7.49609375 -9.31640625 4.49609375 C-6.44480668 0.85119664 -4.59889363 -0.00922748 0 0 Z " fill="#004874" transform="translate(343.31640625,248.50390625)"/>
<path d="M0 0 C2.77496069 2.69087098 3.89826961 4.34556122 4.49609375 8.19140625 C4.47675781 9.30386719 4.45742188 10.41632813 4.4375 11.5625 C4.43621094 12.67753906 4.43492187 13.79257812 4.43359375 14.94140625 C3.96392504 18.25447474 3.34292835 19.65153281 1 22 C-2.65878362 23.19308162 -4.29997692 23.32667744 -7.8125 21.6875 C-10 20 -10 20 -11 18 C-11.17484831 15.7126402 -11.26720049 13.41858557 -11.3125 11.125 C-11.34988281 9.89007813 -11.38726562 8.65515625 -11.42578125 7.3828125 C-11 4 -11 4 -9.19921875 1.58984375 C-5.96991454 -0.74466214 -3.87946897 -0.62348608 0 0 Z " fill="#004774" transform="translate(415,443)"/>
<path d="M0 0 C2.4375 1.75 2.4375 1.75 4 5 C5.22040497 16.32350434 5.22040497 16.32350434 2 21 C-1.3125 22.4375 -1.3125 22.4375 -5 23 C-7.44253321 21.88493049 -9.11356555 20.88643445 -11 19 C-11.18063984 16.54507499 -11.27801743 14.14495751 -11.3125 11.6875 C-11.34150391 11.01009766 -11.37050781 10.33269531 -11.40039062 9.63476562 C-11.44385402 6.21453052 -11.25014437 4.33967544 -9.19921875 1.5546875 C-5.96266462 -0.73332057 -3.86103448 -0.6205234 0 0 Z " fill="#004774" transform="translate(353,443)"/>
<path d="M0 0 C2.19140625 1.5625 2.19140625 1.5625 4 4 C4.49609375 7.56640625 4.49609375 7.56640625 4.4375 11.5625 C4.44458984 12.23474609 4.45167969 12.90699219 4.45898438 13.59960938 C4.42141404 16.5098656 4.34954622 18.5147942 2.62109375 20.9140625 C0.37287465 22.42009843 -1.29975354 22.80712525 -4 23 C-6.87200399 22.2653013 -8.47318664 21.80398694 -10.12109375 19.2890625 C-11.87889277 14.7109726 -11.5186442 9.81223037 -11 5 C-8.4422936 -0.32002931 -5.70161275 -0.91633062 0 0 Z " fill="#004875" transform="translate(267,443)"/>
<path d="M0 0 C2.61593153 1.83115207 2.96989455 2.90968366 4 6 C4.11880354 7.8096818 4.1751965 9.62396447 4.1875 11.4375 C4.20167969 12.38496094 4.21585937 13.33242188 4.23046875 14.30859375 C3.99068225 17.10881232 3.58411765 18.69112264 2 21 C-1.3125 22.4375 -1.3125 22.4375 -5 23 C-7.44253321 21.88493049 -9.11356555 20.88643445 -11 19 C-11.18063984 16.54507499 -11.27801743 14.14495751 -11.3125 11.6875 C-11.34150391 11.01009766 -11.37050781 10.33269531 -11.40039062 9.63476562 C-11.44384763 6.21503393 -11.24628573 4.33623356 -9.203125 1.546875 C-6.02425477 -0.68509771 -3.78725462 -0.48201422 0 0 Z " fill="#004774" transform="translate(392,443)"/>
<path d="M0 0 C3.1359157 1.77984405 3.84102736 2.52308207 5 6 C5.80844373 17.09260003 5.80844373 17.09260003 3 21 C-0.3125 22.5 -0.3125 22.5 -4 23 C-6.44253321 21.88493049 -8.11356555 20.88643445 -10 19 C-10.18063984 16.54507499 -10.27801743 14.14495751 -10.3125 11.6875 C-10.34150391 11.01009766 -10.37050781 10.33269531 -10.40039062 9.63476562 C-10.44415733 6.1906628 -10.25281682 4.33852657 -8.16796875 1.546875 C-5.23586139 -0.54522322 -3.53002203 -0.51479488 0 0 Z " fill="#004774" transform="translate(290,443)"/>
<path d="M0 0 C2.1640625 1.01953125 2.1640625 1.01953125 4 3 C4.37980738 5.82313515 4.51500992 8.18964024 4.4375 11 C4.44458984 11.72445313 4.45167969 12.44890625 4.45898438 13.1953125 C4.39607201 18.44123552 4.39607201 18.44123552 2.62109375 20.9453125 C0.33650752 22.43166981 -1.26835925 22.86992187 -4 23 C-7.80149579 21.3202693 -9.46457928 19.81445326 -11 16 C-11.59189299 11.13429143 -11.48950208 6.32387204 -9 2 C-5.51131349 -0.32579101 -4.10281481 -0.41865457 0 0 Z " fill="#004774" transform="translate(329,443)"/>
</svg>
