<?xml version="1.0" encoding="UTF-8"?>
<svg version="1.1" xmlns="http://www.w3.org/2000/svg" width="128" height="128">
<path d="M0 0 C2.4909668 1.01879883 2.4909668 1.01879883 4.94921875 2.45703125 C6.33246338 3.25318848 6.33246338 3.25318848 7.74365234 4.06542969 C8.71512207 4.64196289 9.6865918 5.21849609 10.6875 5.8125 C11.69248535 6.39547852 12.6974707 6.97845703 13.73291016 7.57910156 C15.80633258 8.78323502 17.87663672 9.99275334 19.94384766 11.20751953 C22.85318338 12.91388979 25.77317223 14.59982575 28.69921875 16.27734375 C35.34868851 20.09462061 35.34868851 20.09462061 38.5546875 21.953125 C39.19905762 22.32598633 39.84342773 22.69884766 40.50732422 23.08300781 C42 24 42 24 43 25 C43.14026677 26.59337136 43.21223532 28.19282305 43.25634766 29.79174805 C43.28532135 30.81338547 43.31429504 31.83502289 43.34414673 32.88761902 C43.4413607 37.5791159 43.51570866 42.27045401 43.56982422 46.96264648 C43.6064804 49.43726315 43.66104576 51.91168207 43.73388672 54.38549805 C43.83729075 57.94912515 43.88175127 61.50932278 43.9140625 65.07421875 C43.95737701 66.17755051 44.00069153 67.28088226 44.0453186 68.41764832 C44.02689179 75.92023635 44.02689179 75.92023635 41.13737488 78.95852661 C38.82445185 80.53026098 36.51965958 81.79213402 34 83 C32.9881665 83.58716797 31.97633301 84.17433594 30.93383789 84.77929688 C30.03914795 85.25431641 29.14445801 85.72933594 28.22265625 86.21875 C27.21396484 86.75886719 26.20527344 87.29898438 25.16601562 87.85546875 C24.14185547 88.39816406 23.11769531 88.94085938 22.0625 89.5 C20.0105 90.59146178 17.95970519 91.68519256 15.91015625 92.78125 C14.42346436 93.57402344 14.42346436 93.57402344 12.90673828 94.3828125 C9.28082431 96.40011925 5.80447025 98.61979107 2.34936523 100.91601562 C-0.66763562 102.30804346 -2.70526219 102.34433366 -6 102 C-8.4909668 100.98120117 -8.4909668 100.98120117 -10.94921875 99.54296875 C-11.87138184 99.01219727 -12.79354492 98.48142578 -13.74365234 97.93457031 C-14.71512207 97.35803711 -15.6865918 96.78150391 -16.6875 96.1875 C-18.19497803 95.31303223 -18.19497803 95.31303223 -19.73291016 94.42089844 C-21.80633258 93.21676498 -23.87663672 92.00724666 -25.94384766 90.79248047 C-28.85318338 89.08611021 -31.77317223 87.40017425 -34.69921875 85.72265625 C-41.34868851 81.90537939 -41.34868851 81.90537939 -44.5546875 80.046875 C-45.19905762 79.67401367 -45.84342773 79.30115234 -46.50732422 78.91699219 C-48 78 -48 78 -49 77 C-49.14026677 75.40662864 -49.21223532 73.80717695 -49.25634766 72.20825195 C-49.2998082 70.67579582 -49.2998082 70.67579582 -49.34414673 69.11238098 C-49.4413607 64.4208841 -49.51570866 59.72954599 -49.56982422 55.03735352 C-49.6064804 52.56273685 -49.66104576 50.08831793 -49.73388672 47.61450195 C-49.83729075 44.05087485 -49.88175127 40.49067722 -49.9140625 36.92578125 C-49.95737701 35.82244949 -50.00069153 34.71911774 -50.0453186 33.58235168 C-50.02689179 26.07976365 -50.02689179 26.07976365 -47.13737488 23.04147339 C-44.82445185 21.46973902 -42.51965958 20.20786598 -40 19 C-38.9881665 18.41283203 -37.97633301 17.82566406 -36.93383789 17.22070312 C-36.03914795 16.74568359 -35.14445801 16.27066406 -34.22265625 15.78125 C-33.21396484 15.24113281 -32.20527344 14.70101563 -31.16601562 14.14453125 C-30.14185547 13.60183594 -29.11769531 13.05914062 -28.0625 12.5 C-26.0105 11.40853822 -23.95970519 10.31480744 -21.91015625 9.21875 C-20.91902832 8.69023437 -19.92790039 8.16171875 -18.90673828 7.6171875 C-15.28082431 5.59988075 -11.80447025 3.38020893 -8.34936523 1.08398438 C-5.33236438 -0.30804346 -3.29473781 -0.34433366 0 0 Z M-9.34765625 9.88671875 C-10.96897461 10.8003418 -10.96897461 10.8003418 -12.62304688 11.73242188 C-13.75806641 12.37759766 -14.89308594 13.02277344 -16.0625 13.6875 C-18.28250084 14.94149698 -20.50255207 16.19540474 -22.72265625 17.44921875 C-23.78629395 18.05169434 -24.84993164 18.65416992 -25.94580078 19.27490234 C-29.95217161 21.53781332 -33.97282328 23.77436952 -38 26 C-38 26.66 -38 27.32 -38 28 C-37.39639648 28.32685791 -36.79279297 28.65371582 -36.17089844 28.99047852 C-34.3750501 29.96388582 -32.57976951 30.93834095 -30.78491211 31.91357422 C-28.75811786 33.01477029 -26.73028043 34.11404849 -24.70141602 35.21142578 C-18.42445092 38.6221482 -12.30766427 42.1552527 -6.33984375 46.0859375 C-4.01520408 47.28153278 -4.01520408 47.28153278 -1.6652832 46.22241211 C0.94796838 45.02386391 3.46470117 43.73954564 5.984375 42.35546875 C6.92023438 41.84306641 7.85609375 41.33066406 8.8203125 40.80273438 C9.78710938 40.26970703 10.75390625 39.73667969 11.75 39.1875 C12.70132813 38.66607422 13.65265625 38.14464844 14.6328125 37.60742188 C20.43312363 34.42519639 26.22009901 31.21912859 32 28 C32 27.34 32 26.68 32 26 C31.09459473 25.50971313 31.09459473 25.50971313 30.17089844 25.00952148 C27.36286263 23.48747615 24.55617722 21.96296937 21.75 20.4375 C20.74614258 19.8919043 19.74228516 19.34630859 18.70800781 18.78417969 C12.40807318 15.34803687 6.18195359 11.83297761 0.046875 8.109375 C-3.82981222 6.00826971 -5.73433786 7.84068724 -9.34765625 9.88671875 Z M-42 33 C-42.32296056 38.54957083 -42.55788727 44.09362094 -42.71411133 49.65039062 C-42.77924271 51.5367764 -42.86778972 53.42251172 -42.98071289 55.30664062 C-43.57507288 64.25250309 -43.57507288 64.25250309 -42 73 C-38.27616835 77.16289855 -34.10925452 78.91631242 -29 81 C-26.97055499 82.11052605 -24.95393703 83.24492903 -22.953125 84.40625 C-21.05407145 85.44115657 -19.15304874 86.47245853 -17.25 87.5 C-16.26773438 88.03625 -15.28546875 88.5725 -14.2734375 89.125 C-10.33634273 91.69568235 -10.33634273 91.69568235 -6 93 C-6 79.8 -6 66.6 -6 53 C-9.5475 50.999375 -13.095 48.99875 -16.75 46.9375 C-24.23479491 42.71433586 -31.70047851 38.46931178 -39.0859375 34.07421875 C-40.77952525 32.91843066 -40.77952525 32.91843066 -42 33 Z M30.29296875 35.59765625 C28.8224707 36.43006836 28.8224707 36.43006836 27.32226562 37.27929688 C26.28779297 37.86775391 25.25332031 38.45621094 24.1875 39.0625 C23.19556641 39.62388672 22.20363281 40.18527344 21.18164062 40.76367188 C19.15107357 41.91516 17.13304382 43.08900748 15.12744141 44.28344727 C12 46 12 46 8.58740234 47.27709961 C4.89327165 48.81991672 2.66350075 49.98929543 0 53 C-1.97465174 59.54935692 -1.12074314 66.70524762 -0.75 73.4375 C-0.68976372 75.33251405 -0.63501827 77.22771109 -0.5859375 79.12304688 C-0.45409338 83.75323157 -0.24736419 88.37460675 0 93 C8.95939717 88.59256025 17.83388547 84.14087197 26.4375 79.0625 C27.26314453 78.58232422 28.08878906 78.10214844 28.93945312 77.60742188 C32.68183382 75.59171143 32.68183382 75.59171143 36 73 C36.08868299 70.04294679 36.11520296 67.10934944 36.09765625 64.15234375 C36.0962413 63.2659169 36.09482635 62.37949005 36.09336853 61.46620178 C36.08775215 58.62326746 36.07519691 55.78041069 36.0625 52.9375 C36.05748711 51.01497509 36.05292384 49.09244896 36.04882812 47.16992188 C36.03777741 42.44658451 36.02050183 37.72330542 36 33 C33.97304519 33 31.99162142 34.63451227 30.29296875 35.59765625 Z " fill="#004774" transform="translate(67,13)"/>
</svg>
