<?xml version="1.0" encoding="UTF-8"?>
<svg version="1.1" xmlns="http://www.w3.org/2000/svg" width="1024" height="1145">
<path d="M0 0 C0.33 182.49 0.66 364.98 1 553 C60.01100226 540.55167524 60.01100226 540.55167524 119 528 C118.9968576 526.11264444 118.99371519 524.22528889 118.99047756 522.28074074 C118.91788654 477.47631355 118.89168635 432.67205867 118.92259431 387.86757783 C118.92635822 382.35263671 118.92973074 376.83769542 118.93286133 371.32275391 C118.93349115 370.22483077 118.93412097 369.12690764 118.93476988 367.99571411 C118.94403387 350.21945176 118.92159306 332.44336369 118.88743024 314.66713782 C118.85308055 296.42635522 118.85281396 278.18580161 118.88417059 259.94501245 C118.90244502 248.68978047 118.8941516 237.43521242 118.85184724 226.18004243 C118.82538238 218.46137323 118.83203158 210.74317443 118.86465739 203.0245306 C118.88250465 198.5713129 118.88581208 194.11934165 118.84977531 189.66620636 C118.81707391 185.58533044 118.82615098 181.50671364 118.86784215 177.42593937 C118.87562333 175.95336133 118.86834064 174.48060641 118.84409653 173.0082074 C118.72573787 165.29420006 119.09336893 160.18705831 124.35907841 154.29385948 C125.88751879 152.8427981 127.4332817 151.40964639 129 150 C130.1443828 148.72547429 131.27358287 147.43683386 132.375 146.125 C141.32621903 135.86536612 150.47982468 125.77653882 160.82421875 116.8984375 C163.30652198 114.73254995 165.71055145 112.49123043 168.125 110.25 C174.47499385 104.46774975 181.17852408 99.21133954 188 94 C188.64130859 93.50709473 189.28261719 93.01418945 189.94335938 92.50634766 C204.05683316 81.67742614 218.67928988 72.02629789 234 63 C235.38832031 62.13181641 235.38832031 62.13181641 236.8046875 61.24609375 C239 60 239 60 241 60 C241 205.86 241 351.72 241 502 C329.8659794 483.16747456 418.73099849 464.33207514 507.58105469 445.42480469 C509.50929077 445.01597046 511.43752686 444.60713623 513.42419434 444.18591309 C517.14620752 443.39631167 520.86604016 442.59735141 524.58459473 441.79162598 C525.46185841 441.60303638 526.33912209 441.41444679 527.24296951 441.22014236 C528.8736383 440.86957192 530.50365598 440.51595238 532.13285446 440.1586113 C535.53158794 439.43149167 538.50450152 439 542 439 C542.19196055 446.1099233 541.49051891 452.79516377 540.375 459.8125 C540.19606201 460.94268555 540.01712402 462.07287109 539.83276367 463.23730469 C534.6418549 495.05269327 526.32211254 526.17327972 514.14257812 556.06005859 C512.9474774 558.987706 512.9474774 558.987706 512.15429688 562.06884766 C511.12021008 565.27674627 510.10682131 567.36333394 508 570 C505.23762512 571.13642883 505.23762512 571.13642883 501.66723633 571.91137695 C500.97987176 572.06607515 500.29250719 572.22077335 499.58431339 572.38015938 C497.06037258 572.94105886 494.53050433 573.46951792 492 574 C489.87374057 574.46211914 487.74779474 574.92568262 485.62210083 575.39039612 C478.51357327 576.93504823 471.39713187 578.44120432 464.27940822 579.94271541 C460.58689091 580.72238016 456.89511809 581.50555519 453.20326233 582.28834534 C446.88913857 583.62669544 440.57460564 584.96309886 434.25976562 586.29806519 C424.39786204 588.38292569 414.53671578 590.47135241 404.67578125 592.56079102 C403.85613207 592.73446642 403.03648289 592.90814183 402.19199586 593.08708012 C398.87600788 593.78971885 395.56002409 594.49237737 392.24405301 595.19509584 C388.09018777 596.07537865 383.93629665 596.95553891 379.78234482 597.83541298 C357.68493998 602.51604492 335.5914009 607.2142247 313.50390625 611.94140625 C312.27768492 612.20378082 311.05146358 612.4661554 309.78808403 612.73648071 C298.3854033 615.17645785 286.98323521 617.61880735 275.58209896 620.0659914 C271.52545804 620.93633649 267.46848831 621.80514125 263.41143608 622.67356682 C261.55501508 623.07136279 259.69875493 623.46991029 257.84266853 623.8692646 C255.35057519 624.40546111 252.85797542 624.93923622 250.36523438 625.47241211 C249.27487963 625.70804147 249.27487963 625.70804147 248.16249752 625.94843102 C243.22799572 627 243.22799572 627 241 627 C241 667.26 241 707.52 241 749 C246.28 747.68 251.56 746.36 257 745 C260.74330433 744.15781048 264.48304778 743.33251413 268.23706055 742.54345703 C269.25448806 742.3271035 270.27191557 742.11074997 271.32017422 741.88784027 C274.67511965 741.1751165 278.0309117 740.46646728 281.38671875 739.7578125 C283.82703111 739.24020148 286.26728621 738.72232041 288.70748901 738.20419312 C293.95235977 737.09110241 299.19758587 735.97971009 304.44314575 734.86987305 C312.78751309 733.10435548 321.13100446 731.33472045 329.47436523 729.56445312 C332.3619489 728.95182046 335.24953851 728.33921584 338.13713074 727.72662354 C339.22281722 727.49629516 339.22281722 727.49629516 340.33043677 727.26131368 C345.5515587 726.15370948 350.77280244 725.04668063 355.99409485 723.93988037 C378.42252039 719.18535408 400.84863503 714.42002176 423.2734375 709.6484375 C424.48316251 709.3910309 424.48316251 709.3910309 425.7173264 709.12842417 C434.53032142 707.25315311 443.34325382 705.37758788 452.15615845 703.50189209 C460.706944 701.68199001 469.25784877 699.86264858 477.80878496 698.04345441 C482.20707581 697.10771535 486.60535209 696.17190785 491.0036273 695.23609531 C494.42696032 694.50771983 497.8502976 693.77936437 501.27364731 693.05106735 C503.81520456 692.51034685 506.35674478 691.96954625 508.89826584 691.42865562 C511.23656818 690.9311434 513.57494614 690.43398645 515.91341019 689.93723488 C520.51629897 688.95878092 525.11841589 687.97803897 529.71481323 686.96948242 C530.97931305 686.69273682 532.24381287 686.41599121 533.54663086 686.13085938 C535.06793861 685.79314514 535.06793861 685.79314514 536.61997986 685.4486084 C539 685 539 685 542 685 C542.37204873 694.16510279 540.97768639 702.88029269 539.4375 711.875 C539.30273254 712.66922363 539.16796509 713.46344727 539.02911377 714.28173828 C533.55839589 746.28187718 524.48040738 777.60659323 512.0625 807.625 C511.7217041 808.47118896 511.3809082 809.31737793 511.02978516 810.18920898 C510.70155762 810.94403564 510.37333008 811.6988623 510.03515625 812.4765625 C509.7606665 813.11674316 509.48617676 813.75692383 509.20336914 814.41650391 C506.55291435 817.90419914 501.44341393 818.44585972 497.35787964 819.30490112 C496.22802454 819.54478665 495.09816944 819.78467218 493.93407631 820.03182697 C492.08121293 820.41801842 492.08121293 820.41801842 490.19091797 820.81201172 C488.8629 821.09220549 487.53496741 821.37280419 486.20711327 821.65377331 C483.32793057 822.2620787 480.44816118 822.86749816 477.56790924 823.47072029 C472.91027817 824.44619997 468.25399005 825.42798947 463.59783936 826.4105072 C456.87887289 827.82764581 450.15928498 829.24180325 443.43927002 830.65396118 C432.81052095 832.88765642 422.1831466 835.12784555 411.55615234 837.36987305 C410.66779639 837.55729297 409.77944043 837.74471289 408.86416459 837.93781221 C404.35449677 838.88927263 399.84485499 839.84085635 395.33523178 840.79252815 C391.69183614 841.56137963 388.04839385 842.33000951 384.40491104 843.0984478 C350.14679676 850.32388799 315.90332829 857.61646573 281.66756058 864.94698334 C277.63031581 865.81141171 273.59298705 866.67544731 269.55563354 867.53936768 C268.56288849 867.75179733 268.56288849 867.75179733 267.55008799 867.9685185 C266.21873629 868.2534012 264.88738424 868.53828224 263.55603182 868.8231616 C255.1367386 870.62471842 246.71749011 872.42648419 238.29832458 874.2286377 C214.59571453 879.30206169 190.89132933 884.36712226 167.184021 889.41854858 C163.05949978 890.29745699 158.93519708 891.17737948 154.81109619 892.05825806 C150.11579063 893.06112924 145.42009268 894.06213969 140.72405052 895.06155586 C139.02751133 895.42294879 137.33111831 895.78502874 135.63488197 896.1478405 C133.34935011 896.6365739 131.06330453 897.12282485 128.77709961 897.60839844 C126.87159584 898.01466461 126.87159584 898.01466461 124.92759705 898.42913818 C122 899 122 899 120 899 C120 817.82 120 736.64 120 653 C62.085 665.375 62.085 665.375 3 678 C2.01 678 1.02 678 0 678 C0.00276538 678.7413834 0.00553076 679.4827668 0.00837994 680.24661636 C0.07477292 698.32650786 0.12434519 716.40637486 0.15543652 734.48636246 C0.17087356 743.22988527 0.19190224 751.97332647 0.22631836 760.71679688 C0.25631795 768.34190737 0.27559797 775.96695873 0.28226548 783.59212661 C0.28615994 787.6257038 0.29524567 791.65911186 0.31719017 795.69263458 C0.33772264 799.49785103 0.34380039 803.30283049 0.33932304 807.10809708 C0.34014082 808.49631925 0.34600596 809.88455029 0.35761642 811.27272415 C0.45022556 822.9280389 -1.02294555 833.27897823 -6.6875 843.5625 C-7.31011719 844.71878906 -7.93273437 845.87507812 -8.57421875 847.06640625 C-11.02449862 851.2242266 -13.91363633 855.0408711 -16.77514648 858.92163086 C-20.45005859 864.00634135 -23.88972612 869.24628239 -27.34976196 874.47817993 C-29.7240483 878.06661028 -32.10850129 881.64827841 -34.4921875 885.23046875 C-35.00314468 885.99856369 -35.51410187 886.76665863 -36.0405426 887.55802917 C-42.13387839 896.71240021 -48.25944003 905.84505622 -54.39932251 914.96826172 C-55.6614176 916.84456394 -56.92232864 918.72166322 -58.18197632 920.59960938 C-81.64116158 955.56799664 -104.58205493 979.02675336 -146.99609375 988.0390625 C-148.71564531 988.41443598 -150.43499261 988.79074611 -152.15415955 989.1678772 C-157.02332097 990.23094021 -161.89650498 991.2743436 -166.77108002 992.31227112 C-170.12334841 993.02627202 -173.47495809 993.74330544 -176.82647705 994.46081543 C-193.37308153 998.00026896 -209.9282251 1001.49871957 -226.48538977 1004.98834592 C-234.70035602 1006.71988861 -242.91453723 1008.45514493 -251.12866211 1010.19067383 C-251.88640903 1010.35077332 -252.64415594 1010.51087281 -253.42486489 1010.67582381 C-256.50659048 1011.3269524 -259.58831251 1011.97809787 -262.67002374 1012.62929446 C-266.55802403 1013.45086538 -270.4460473 1014.27232721 -274.33412361 1015.09353828 C-297.07011219 1019.89567954 -319.80245231 1024.71472078 -342.53125 1029.55078125 C-343.97181108 1029.85726521 -345.41237237 1030.16374817 -346.85293388 1030.4702301 C-359.2094234 1033.09919629 -371.56566511 1035.72932563 -383.92141724 1038.36175537 C-416.59742528 1045.32334111 -449.28567871 1052.22057526 -482 1059 C-482.00736965 1057.3977883 -482.01263036 1055.79556681 -482.01699829 1054.19334412 C-482.0201536 1053.30110862 -482.02330891 1052.40887312 -482.02655983 1051.48960018 C-481.99688008 1048.70755216 -481.74743947 1046.03627494 -481.3359375 1043.28515625 C-481.18672852 1042.28371582 -481.03751953 1041.28227539 -480.88378906 1040.25048828 C-480.71588867 1039.19845215 -480.54798828 1038.14641602 -480.375 1037.0625 C-480.10768066 1035.37229736 -480.10768066 1035.37229736 -479.83496094 1033.64794922 C-474.85179165 1003.19665333 -466.98328321 972.99123721 -455.31114197 944.39561462 C-453.94938266 941.01025892 -453.94938266 941.01025892 -452.96748352 937.46876526 C-449.85189041 928.05718153 -449.85189041 928.05718153 -445.03894043 925.30963135 C-441.07134898 924.17518304 -437.18638807 923.47712154 -433.11328125 922.86328125 C-431.52751583 922.57461005 -429.94300738 922.27896531 -428.35969543 921.97712708 C-424.83880832 921.31137866 -421.31406345 920.67603336 -417.784729 920.05670166 C-408.31317605 918.36288537 -398.92428378 916.25711877 -389.52031708 914.22758484 C-383.53118734 912.94080688 -377.53616685 911.68208868 -371.54150391 910.42138672 C-369.01587557 909.88953142 -366.49026133 909.35760914 -363.96466064 908.82562256 C-362.68952858 908.55709221 -361.41439651 908.28856186 -360.10062408 908.01189423 C-348.57267788 905.58325356 -337.04601439 903.14852476 -325.5191431 900.71478844 C-323.40469769 900.26837882 -321.29023764 899.82203864 -319.17577362 899.37571716 C-288.21478897 892.84028958 -257.26106629 886.27080856 -226.30972439 879.68988043 C-221.55644029 878.67925075 -216.80306895 877.66903222 -212.0496521 876.6590271 C-205.61907745 875.29263248 -199.18865781 873.92551018 -192.75835991 872.55781364 C-190.32030834 872.03928737 -187.88222523 871.52090939 -185.44410896 871.00268745 C-173.72764406 868.51190977 -162.01352859 866.01205439 -150.31152344 863.45410156 C-149.42370367 863.26039034 -148.5358839 863.06667912 -147.62116051 862.86709785 C-143.59434141 861.98819094 -139.56848065 861.10536611 -135.54446411 860.2137146 C-134.17664692 859.91397963 -132.8088003 859.61437895 -131.44091797 859.31494141 C-130.28171844 859.05854889 -129.12251892 858.80215637 -127.92819214 858.53799438 C-125 858 -125 858 -121 858 C-121 807.18 -121 756.36 -121 704 C-138.82 707.96 -138.82 707.96 -157 712 C-166.67014166 714.07418793 -176.34204017 716.13665304 -186.01953125 718.17578125 C-188.69502859 718.74087909 -191.37039408 719.30660005 -194.04576111 719.87231445 C-199.70674047 721.0690601 -205.36797282 722.26460147 -211.02941895 723.45913696 C-225.35835782 726.48247376 -239.68643946 729.50986826 -254.01433992 732.53812194 C-256.35215093 733.03219991 -258.68998076 733.5261887 -261.02781296 734.0201664 C-282.86543208 738.63475217 -304.69753314 743.27464629 -326.52483177 747.93779945 C-331.00937181 748.89583469 -335.49408535 749.85305588 -339.97883606 750.81010437 C-342.17291166 751.27835888 -344.36698521 751.74662305 -346.56105793 752.21489108 C-348.00479718 752.5230185 -349.44853841 752.83113666 -350.89228165 753.13924539 C-359.34189235 754.94258383 -367.79079478 756.74917137 -376.23865062 758.56071317 C-382.12368906 759.82240267 -388.00980836 761.07897352 -393.89633369 762.33370972 C-396.30516825 762.84811531 -398.71361882 763.36432277 -401.12165642 763.88244629 C-404.39621337 764.58683871 -407.6720333 765.28502752 -410.94824219 765.98168945 C-411.90289273 766.18866612 -412.85754328 766.3956428 -413.84112263 766.60889149 C-415.15687417 766.88669972 -415.15687417 766.88669972 -416.49920654 767.17012024 C-417.2532011 767.33156178 -418.00719566 767.49300333 -418.78403854 767.65933704 C-421.21859033 768.03360421 -423.54059807 768.05749446 -426 768 C-422.25964367 732.08698966 -414.43314694 697.23336655 -402.15771484 663.23828125 C-401.37675166 661.05382414 -400.61972703 658.86068019 -399.88525391 656.66015625 C-398.79982489 653.4337957 -397.63185733 650.24989998 -396.4375 647.0625 C-395.97561279 645.6230603 -395.97561279 645.6230603 -395.50439453 644.15454102 C-394.31595786 641.17803011 -393.1941689 639.34385609 -391 637 C-388.21511841 635.91316223 -388.21511841 635.91316223 -384.65283203 635.12036133 C-383.96650727 634.96337202 -383.28018251 634.80638271 -382.57306004 634.64463615 C-380.05279326 634.07615751 -377.52696045 633.53793007 -375 633 C-372.87424252 632.53629119 -370.7485828 632.07213412 -368.6230011 631.60762024 C-361.51392817 630.0647788 -354.39724155 628.5588364 -347.27937031 627.05728459 C-343.5869993 626.27763704 -339.89537879 625.49445103 -336.20367432 624.71165466 C-329.88969324 623.3732792 -323.57530195 622.03685559 -317.2605896 620.70193481 C-302.4213677 617.56493489 -287.5835281 614.42140735 -272.74572182 611.2777195 C-269.42035538 610.57318331 -266.09495313 609.86881645 -262.76952171 609.16458702 C-240.70961897 604.49273632 -218.65572513 599.79398077 -196.609375 595.05859375 C-194.16118827 594.53315803 -191.71299203 594.00776661 -189.26478577 593.48242188 C-179.11825382 591.30469256 -168.9722147 589.12479508 -158.82849312 586.9340086 C-154.78500652 586.0617553 -150.74066015 585.1935432 -146.69606781 584.32643318 C-144.85026172 583.92973803 -143.00484469 583.53122741 -141.1598587 583.1307354 C-138.67614764 582.59170862 -136.1911842 582.05888703 -133.70581055 581.52758789 C-132.98969321 581.37050165 -132.27357588 581.21341541 -131.53575802 581.05156898 C-127.94727862 580.29160715 -124.65873935 579.93713964 -121 580 C-121.00455664 578.98965065 -121.00911329 577.9793013 -121.01380801 576.9383353 C-121.21390617 532.39489586 -121.39902958 487.85141214 -121.50811768 443.30764771 C-121.5106027 442.29553587 -121.5106027 442.29553587 -121.51313793 441.26297734 C-121.54905575 426.59779892 -121.58229752 411.93261557 -121.61278395 397.26742487 C-121.62775153 390.07525482 -121.64331024 382.88308609 -121.65917969 375.69091797 C-121.6607488 374.9752241 -121.6623179 374.25953024 -121.66393456 373.52214868 C-121.71503902 350.33894882 -121.80515048 327.15610074 -121.91556665 303.97311386 C-122.02886031 280.1425932 -122.1026489 256.31226709 -122.12697988 232.48148167 C-122.13043756 229.11286885 -122.1343452 225.74425668 -122.13852692 222.37564468 C-122.13974053 221.38119222 -122.13974053 221.38119222 -122.14097866 220.36664981 C-122.15601341 209.05242255 -122.21983296 197.73898284 -122.2949976 186.42501892 C-122.35846183 176.35907372 -122.37759406 166.29365021 -122.36201653 156.2275195 C-122.35433489 150.42067835 -122.36605202 144.61560129 -122.4304657 138.8090744 C-122.48907462 133.48682473 -122.49168528 128.16751665 -122.45078674 122.84512855 C-122.44573625 120.92558636 -122.46079104 119.005857 -122.49859819 117.08668052 C-122.70873574 105.75568278 -121.56077985 98.7022699 -113.53037731 90.33430742 C-112.50198403 89.32208878 -111.46236697 88.32110301 -110.41006103 87.33376743 C-108.55507087 85.57914447 -106.87288712 83.68981017 -105.1875 81.7734375 C-104.12863835 80.63722343 -103.0662317 79.50430084 -102 78.375 C-101.42169434 77.75947266 -100.84338867 77.14394531 -100.24755859 76.50976562 C-92.88394005 68.70944164 -85.46374493 60.88896553 -77.27734375 53.94140625 C-75.45476399 52.38768045 -73.66325461 50.81170047 -71.87890625 49.21484375 C-16.55817357 0 -16.55817357 0 0 0 Z " fill="#221E1F" transform="translate(482,0)"/>
<path d="M0 0 C0.35822939 9.081115 -0.98116043 17.71091976 -2.5 26.625 C-2.69873718 27.80367645 -2.69873718 27.80367645 -2.90148926 29.00616455 C-6.63458201 50.95287858 -11.93523602 72.34933022 -18.875 93.5 C-19.2369043 94.60649902 -19.59880859 95.71299805 -19.97167969 96.85302734 C-20.7611144 99.17253864 -21.60663571 101.47345898 -22.49707031 103.75610352 C-23.77443264 107.10454061 -24.5756605 110.45233204 -25.37011719 113.94506836 C-27.42643501 121.71445682 -29.70804218 129.41579847 -36.92523193 133.7612915 C-45.87151493 137.31236162 -55.40938999 138.64579576 -64.87088394 140.13315964 C-69.41564033 140.87532823 -73.93507685 141.7484444 -78.45776367 142.61352539 C-84.58536867 143.77934295 -90.714041 144.9355405 -96.85160828 146.04789734 C-115.17036331 149.37763106 -133.37849308 153.15430551 -151.58203125 157.0546875 C-152.684656 157.29075919 -152.684656 157.29075919 -153.80955601 157.5316 C-160.64142067 158.99438488 -167.47270231 160.45987444 -174.30316925 161.92917252 C-185.2468584 164.28298326 -196.19443392 166.61794289 -207.14501953 168.93945312 C-207.92585466 169.1049949 -208.7066898 169.27053668 -209.5111866 169.44109488 C-213.46382678 170.27897735 -217.41653353 171.11654532 -221.36927032 171.95397186 C-228.499931 173.4648161 -235.63004392 174.97824156 -242.76016617 176.49162436 C-245.12983734 176.99458935 -247.49951879 177.49750591 -249.86920166 178.0004158 C-276.1438564 183.5768094 -302.41667669 189.16184046 -328.68936819 194.74747509 C-333.4450347 195.75852898 -338.20073403 196.76942839 -342.95645142 197.78024292 C-349.32840198 199.13458601 -355.70029884 200.48918159 -362.07215691 201.84395981 C-364.36905355 202.3322949 -366.66596452 202.82056261 -368.96289253 203.30875015 C-371.09719706 203.76239136 -373.23147583 204.21615378 -375.36572742 204.67004395 C-377.41793193 205.1064357 -379.47020627 205.54249916 -381.52255535 205.97821045 C-386.59153581 207.05572696 -391.65872344 208.14082244 -396.72285211 209.24094564 C-398.67682477 209.66534231 -400.6310834 210.08842162 -402.58534431 210.51148891 C-405.08173798 211.05229669 -407.57759492 211.59558941 -410.07284355 212.14165592 C-411.19535578 212.3844601 -412.317868 212.62726427 -413.47439575 212.87742615 C-414.47017702 213.09440879 -415.46595829 213.31139143 -416.49191475 213.5349493 C-419 214 -419 214 -422 214 C-421.55798446 190.73390956 -415.9185085 167.39978388 -410 145 C-409.74524902 144.02820801 -409.49049805 143.05641602 -409.22802734 142.05517578 C-405.93138959 129.66849862 -401.90559711 117.60845707 -397.375 105.625 C-396.91971924 104.41875977 -396.46443848 103.21251953 -395.99536133 101.96972656 C-394.70464333 98.62232885 -393.41504107 95.29705041 -392 92 C-391.70494064 91.20391232 -391.40988129 90.40782465 -391.10588074 89.58761311 C-388.26164528 82.77070133 -388.26164528 82.77070133 -384.95807838 80.75265121 C-382.39745904 79.91907029 -379.89974892 79.37959721 -377.24853516 78.90649414 C-375.76419747 78.58804739 -375.76419747 78.58804739 -374.24987316 78.26316738 C-370.93665025 77.5629978 -367.61448094 76.92467499 -364.2890625 76.28515625 C-361.91112939 75.79496315 -359.53400262 75.30084447 -357.15763855 74.80310059 C-352.02839889 73.73716752 -346.894621 72.69715758 -341.75552368 71.67996216 C-334.21064229 70.1860804 -326.67660941 68.64237772 -319.14461958 67.08494079 C-315.61195281 66.3545189 -312.07892091 65.62587089 -308.54579163 64.89768982 C-307.83880172 64.75197645 -307.13181182 64.60626307 -306.40339798 64.45613414 C-301.32130119 63.4097771 -296.23741639 62.37241198 -291.15257263 61.3394928 C-271.78285754 57.40428767 -252.43530222 53.37663433 -233.10546875 49.25 C-232.45855969 49.11192853 -231.81165063 48.97385707 -231.14513826 48.83160162 C-223.96938434 47.30000123 -216.7941648 45.76591138 -209.61914062 44.230896 C-201.80336492 42.55951551 -193.98596631 40.89581594 -186.16796875 39.23486328 C-185.51958959 39.09711274 -184.87121043 38.95936221 -184.20318341 38.81743741 C-180.91643136 38.11920245 -177.62964974 37.42110683 -174.34285355 36.72307968 C-168.38963743 35.4587283 -162.43664302 34.19333367 -156.48362088 32.92806935 C-153.1073983 32.21049758 -149.73115901 31.49300448 -146.35491943 30.7755127 C-145.67546709 30.63112027 -144.99601475 30.48672784 -144.29597294 30.33795989 C-139.26521171 29.26886229 -134.23444395 28.19979537 -129.20367432 27.1307373 C-128.09626765 26.89540898 -128.09626765 26.89540898 -126.96648914 26.65532655 C-126.22495332 26.49774725 -125.4834175 26.34016796 -124.7194109 26.17781353 C-123.97490008 26.019602 -123.23038926 25.86139046 -122.46331751 25.69838464 C-120.95500463 25.37786214 -119.44669169 25.05733991 -117.93837869 24.73681796 C-105.29102744 22.04920327 -92.64374166 19.36128058 -79.99650288 16.67313671 C-72.20057421 15.016145 -64.40458551 13.35943626 -56.60851544 11.70310998 C-50.69633355 10.44700603 -44.7842418 9.19047837 -38.87218285 7.93379593 C-36.45049299 7.41910962 -34.02877261 6.9045669 -31.60701942 6.39017868 C-28.29278138 5.68620339 -24.97865312 4.98171346 -21.66455078 4.27709961 C-20.708569 4.07417077 -19.75258722 3.87124193 -18.7676363 3.66216373 C-13.76566517 2.5980888 -8.77233946 1.5065455 -3.78913689 0.35744572 C-2 0 -2 0 0 0 Z " fill="#221E1F" transform="translate(1024,931)"/>
</svg>
